{
copyright = "Copyright \U00A9 2019 IBM Corp. with Reserved Font Name \"Plex\"\012This Font Software is licensed under the SIL Open Font License, Version 1.1.\012This license is copied below, and is also available with a FAQ at: http://scripts.sil.org/OFL.";
customParameters = (
{
name = licenseURL;
value = "http://scripts.sil.org/OFL";
},
{
name = vendorID;
value = "";
},
{
name = glyphOrder;
value = (
    ".notdef",
    uni0000,
    uni000D,
    space,
    a,
    b,
    c,
    d,
    e,
    f,
    g,
    "g.alt02",
    h,
    i,
    j,
    k,
    l,
    m,
    n,
    o,
    p,
    q,
    r,
    s,
    t,
    u,
    v,
    w,
    x,
    y,
    z,
    A,
    B,
    C,
    D,
    E,
    F,
    G,
    H,
    I,
    J,
    K,
    L,
    M,
    N,
    O,
    P,
    Q,
    R,
    S,
    T,
    U,
    V,
    W,
    X,
    Y,
    Z,
    zero,
    one,
    two,
    three,
    four,
    five,
    six,
    seven,
    eight,
    nine,
    ampersand,
    at,
    hyphen,
    uni00AD,
    endash,
    emdash,
    underscore,
    period,
    ellipsis,
    colon,
    comma,
    semicolon,
    quotesingle,
    quotedbl,
    quoteleft,
    quoteright,
    quotedblleft,
    quotedblright,
    quotesinglbase,
    quotedblbase,
    guilsinglleft,
    guilsinglright,
    guillemotleft,
    guillemotright,
    exclamdown,
    exclam,
    questiondown,
    question,
    parenleft,
    parenright,
    bracketleft,
    bracketright,
    braceleft,
    braceright,
    slash,
    backslash,
    fraction,
    percent,
    perthousand,
    bar,
    brokenbar,
    section,
    paragraph,
    copyright,
    registered,
    trademark,
    ordfeminine,
    ordmasculine,
    degree,
    asterisk,
    dagger,
    daggerdbl,
    numbersign,
    asciicircum,
    asciitilde,
    plus,
    minus,
    plusminus,
    multiply,
    divide,
    equal,
    approxequal,
    notequal,
    less,
    greater,
    lessequal,
    greaterequal,
    periodcentered,
    bullet,
    lozenge,
    logicalnot,

glyphs = (
{
glyphname = .notdef;
layers = (
{
layerId = "4CAE8106-A471-4E77-8FE8-6CA20233BBD2";
name = Light;
paths = (
{
closed = 1;
nodes = (
"32 0 LINE",
"32 780 LINE",
"440 780 LINE",
"440 0 LINE"
);
},
{
closed = 1;
nodes = (
"48 16 LINE",
"424 16 LINE",
"424 764 LINE",
"48 764 LINE"
);
}
);
width = 472;
}
);
},
{
glyphname = a;
lastChange = "2018-11-02 02:03:26 +0000";
layers = (
{
layerId = "4CAE8106-A471-4E77-8FE8-6CA20233BBD2";
name = Light;
paths = (
{
closed = 1;
nodes = (
"154 518 OFFCURVE",
"106 477 OFFCURVE",
"78 412 CURVE",
"96 404 LINE",
"124 471 OFFCURVE",
"173 499 OFFCURVE",
"249 499 CURVE SMOOTH",
"344 499 OFFCURVE",
"393 453 OFFCURVE",
"393 349 CURVE SMOOTH",
"393 275 LINE",
"251 275 LINE SMOOTH",
"179 275 OFFCURVE",
"131 259 OFFCURVE",
"102 234 CURVE SMOOTH",
"73 209 OFFCURVE",
"61 171 OFFCURVE",
"61 130 CURVE SMOOTH",
"61 38 OFFCURVE",
"120 -12 OFFCURVE",
"224 -12 CURVE SMOOTH",
"317 -12 OFFCURVE",
"365 29 OFFCURVE",
"390 77 CURVE",
"393 77 LINE",
"393 0 LINE",
"414 0 LINE",
"414 352 LINE SMOOTH",
"414 460 OFFCURVE",
"360 518 OFFCURVE",
"249 518 CURVE SMOOTH"
);
},
{
closed = 1;
nodes = (
"393 101 OFFCURVE",
"373 66 OFFCURVE",
"342 43 CURVE SMOOTH",
"311 19 OFFCURVE",
"269 7 OFFCURVE",
"224 7 CURVE SMOOTH",
"141 7 OFFCURVE",
"84 44 OFFCURVE",
"84 115 CURVE SMOOTH",
"84 145 LINE SMOOTH",
"84 212 OFFCURVE",
"133 257 OFFCURVE",
"252 257 CURVE SMOOTH",
"393 257 LINE",
"393 148 LINE SMOOTH"
);
}
);
width = 509;
}
);
leftKerningGroup = a;
rightKerningGroup = a;
unicode = 0061;
},
{
glyphname = b;
layers = (
{
layerId = "4CAE8106-A471-4E77-8FE8-6CA20233BBD2";
name = Light;
paths = (
{
closed = 1;
nodes = (
"105 740 LINE",
"126 740 LINE",
"126 428 LINE",
"129 428 LINE",
"140 449 OFFCURVE",
"158 473 OFFCURVE",
"186 490 CURVE SMOOTH",
"213 506 OFFCURVE",
"249 518 OFFCURVE",
"293 518 CURVE SMOOTH",
"426 518 OFFCURVE",
"505 430 OFFCURVE",
"505 253 CURVE SMOOTH",
"505 76 OFFCURVE",
"426 -12 OFFCURVE",
"293 -12 CURVE SMOOTH",
"249 -12 OFFCURVE",
"213 0 OFFCURVE",
"186 17 CURVE",
"158 33 OFFCURVE",
"140 55 OFFCURVE",
"129 78 CURVE",
"126 78 LINE",
"126 0 LINE",
"105 0 LINE"
);
},
{
closed = 1;
nodes = (
"414 7 OFFCURVE",
"482 92 OFFCURVE",
"482 229 CURVE SMOOTH",
"482 277 LINE SMOOTH",
"482 414 OFFCURVE",
"414 499 OFFCURVE",
"293 499 CURVE SMOOTH",
"249 499 OFFCURVE",
"208 485 OFFCURVE",
"177 461 CURVE SMOOTH",
"145 437 OFFCURVE",
"126 403 OFFCURVE",
"126 363 CURVE SMOOTH",
"126 143 LINE SMOOTH",
"126 103 OFFCURVE",
"145 69 OFFCURVE",
"177 45 CURVE SMOOTH",
"208 21 OFFCURVE",
"249 7 OFFCURVE",
"293 7 CURVE SMOOTH"
);
}
);
width = 565;
}
);
leftKerningGroup = b;
rightKerningGroup = b;
unicode = 0062;
},
{
glyphname = c;
layers = (
{
layerId = "4CAE8106-A471-4E77-8FE8-6CA20233BBD2";
name = Light;
paths = (
{
closed = 1;
nodes = (
"137 -12 OFFCURVE",
"60 77 OFFCURVE",
"60 253 CURVE SMOOTH",
"60 429 OFFCURVE",
"137 518 OFFCURVE",
"270 518 CURVE SMOOTH",
"350 518 OFFCURVE",
"404 478 OFFCURVE",
"435 418 CURVE",
"417 409 LINE",
"385 468 OFFCURVE",
"342 499 OFFCURVE",
"270 499 CURVE SMOOTH",
"149 499 OFFCURVE",
"83 414 OFFCURVE",
"83 277 CURVE SMOOTH",
"83 229 LINE SMOOTH",
"83 92 OFFCURVE",
"149 7 OFFCURVE",
"270 7 CURVE SMOOTH",
"349 7 OFFCURVE",
"396 39 OFFCURVE",
"428 95 CURVE",
"444 84 LINE",
"411 27 OFFCURVE",
"358 -12 OFFCURVE",
"270 -12 CURVE SMOOTH"
);
}
);
width = 487;
}
);
leftKerningGroup = c;
rightKerningGroup = c;
unicode = 0063;
},
{
glyphname = d;
layers = (
{
layerId = "4CAE8106-A471-4E77-8FE8-6CA20233BBD2";
name = Light;
paths = (
{
closed = 1;
nodes = (
"439 78 LINE",
"436 78 LINE",
"425 55 OFFCURVE",
"407 33 OFFCURVE",
"380 17 CURVE SMOOTH",
"352 0 OFFCURVE",
"316 -12 OFFCURVE",
"272 -12 CURVE SMOOTH",
"139 -12 OFFCURVE",
"60 76 OFFCURVE",
"60 253 CURVE SMOOTH",
"60 430 OFFCURVE",
"139 518 OFFCURVE",
"272 518 CURVE SMOOTH",
"316 518 OFFCURVE",
"352 506 OFFCURVE",
"380 490 CURVE",
"407 473 OFFCURVE",
"425 449 OFFCURVE",
"436 428 CURVE",
"439 428 LINE",
"439 740 LINE",
"460 740 LINE",
"460 0 LINE",
"439 0 LINE"
);
},
{
closed = 1;
nodes = (
"316 7 OFFCURVE",
"357 21 OFFCURVE",
"389 45 CURVE SMOOTH",
"420 69 OFFCURVE",
"439 103 OFFCURVE",
"439 143 CURVE SMOOTH",
"439 363 LINE SMOOTH",
"439 403 OFFCURVE",
"420 437 OFFCURVE",
"389 461 CURVE SMOOTH",
"357 485 OFFCURVE",
"316 499 OFFCURVE",
"272 499 CURVE SMOOTH",
"151 499 OFFCURVE",
"83 414 OFFCURVE",
"83 277 CURVE SMOOTH",
"83 229 LINE SMOOTH",
"83 92 OFFCURVE",
"151 7 OFFCURVE",
"272 7 CURVE SMOOTH"
);
}
);
width = 565;
}
);
leftKerningGroup = d;
unicode = 0064;
},
{
glyphname = e;
layers = (
{
layerId = "4CAE8106-A471-4E77-8FE8-6CA20233BBD2";
name = Light;
paths = (
{
closed = 1;
nodes = (
"139 -12 OFFCURVE",
"60 77 OFFCURVE",
"60 253 CURVE SMOOTH",
"60 428 OFFCURVE",
"137 518 OFFCURVE",
"268 518 CURVE SMOOTH",
"329 518 OFFCURVE",
"380 494 OFFCURVE",
"416 450 CURVE SMOOTH",
"452 406 OFFCURVE",
"473 343 OFFCURVE",
"473 266 CURVE SMOOTH",
"473 256 LINE",
"83 256 LINE",
"83 229 LINE SMOOTH",
"83 92 OFFCURVE",
"151 7 OFFCURVE",
"272 7 CURVE SMOOTH",
"357 7 OFFCURVE",
"416 48 OFFCURVE",
"447 131 CURVE",
"465 124 LINE",
"434 40 OFFCURVE",
"369 -12 OFFCURVE",
"272 -12 CURVE SMOOTH"
);
},
{
closed = 1;
nodes = (
"149 499 OFFCURVE",
"83 414 OFFCURVE",
"83 277 CURVE SMOOTH",
"83 275 LINE",
"450 275 LINE",
"450 279 LINE SMOOTH",
"450 346 OFFCURVE",
"432 400 OFFCURVE",
"400 439 CURVE SMOOTH",
"368 478 OFFCURVE",
"323 499 OFFCURVE",
"268 499 CURVE SMOOTH"
);
}
);
width = 533;
}
);
leftKerningGroup = c;
rightKerningGroup = e;
unicode = 0065;
},
{
glyphname = f;
layers = (
{
layerId = "4CAE8106-A471-4E77-8FE8-6CA20233BBD2";
name = Light;
paths = (
{
closed = 1;
nodes = (
"123 487 LINE",
"30 487 LINE",
"30 506 LINE",
"123 506 LINE",
"123 711 LINE SMOOTH",
"123 730 OFFCURVE",
"133 740 OFFCURVE",
"152 740 CURVE SMOOTH",
"260 740 LINE",
"260 721 LINE",
"144 721 LINE",
"144 506 LINE",
"260 506 LINE",
"260 487 LINE",
"144 487 LINE",
"144 0 LINE",
"123 0 LINE"
);
}
);
width = 285;
}
);
leftKerningGroup = f;
rightKerningGroup = f;
unicode = 0066;
},
{
glyphname = g;
lastChange = "2018-11-05 19:12:30 +0000";
layers = (
{
layerId = "4CAE8106-A471-4E77-8FE8-6CA20233BBD2";
name = Light;
paths = (
{
closed = 1;
nodes = (
"460 506 LINE",
"439 506 LINE",
"439 428 LINE",
"436 428 LINE",
"415 472 OFFCURVE",
"361 518 OFFCURVE",
"272 518 CURVE SMOOTH",
"139 518 OFFCURVE",
"60 429 OFFCURVE",
"60 253 CURVE SMOOTH",
"60 77 OFFCURVE",
"139 -12 OFFCURVE",
"272 -12 CURVE SMOOTH",
"361 -12 OFFCURVE",
"415 34 OFFCURVE",
"436 78 CURVE",
"439 78 LINE",
"439 -12 LINE SMOOTH",
"439 -133 OFFCURVE",
"378 -193 OFFCURVE",
"262 -193 CURVE SMOOTH",
"181 -193 OFFCURVE",
"140 -170 OFFCURVE",
"102 -130 CURVE",
"88 -146 LINE",
"129 -188 OFFCURVE",
"179 -212 OFFCURVE",
"264 -212 CURVE SMOOTH",
"394 -212 OFFCURVE",
"460 -140 OFFCURVE",
"460 -10 CURVE SMOOTH"
);
},
{
closed = 1;
nodes = (
"151 7 OFFCURVE",
"83 92 OFFCURVE",
"83 229 CURVE SMOOTH",
"83 277 LINE SMOOTH",
"83 414 OFFCURVE",
"151 499 OFFCURVE",
"272 499 CURVE SMOOTH",
"360 499 OFFCURVE",
"439 444 OFFCURVE",
"439 363 CURVE SMOOTH",
"439 143 LINE SMOOTH",
"439 62 OFFCURVE",
"360 7 OFFCURVE",
"272 7 CURVE SMOOTH"
);
}
);
width = 565;
}
);
leftKerningGroup = g;
rightKerningGroup = g;
unicode = 0067;
},
{
glyphname = h;
layers = (
{
layerId = "4CAE8106-A471-4E77-8FE8-6CA20233BBD2";
name = Light;
paths = (
{
closed = 1;
nodes = (
"105 740 LINE",
"126 740 LINE",
"126 430 LINE",
"129 430 LINE",
"146 475 OFFCURVE",
"196 518 OFFCURVE",
"287 518 CURVE SMOOTH",
"400 518 OFFCURVE",
"461 452 OFFCURVE",
"461 325 CURVE SMOOTH",
"461 0 LINE",
"440 0 LINE",
"440 321 LINE SMOOTH",
"440 445 OFFCURVE",
"385 499 OFFCURVE",
"285 499 CURVE SMOOTH",
"244 499 OFFCURVE",
"203 488 OFFCURVE",
"174 465 CURVE SMOOTH",
"145 442 OFFCURVE",
"126 407 OFFCURVE",
"126 362 CURVE SMOOTH",
"126 0 LINE",
"105 0 LINE"
);
}
);
width = 556;
}
);
leftKerningGroup = b;
rightKerningGroup = h;
unicode = 0068;
},
{
glyphname = i;
layers = (
{
layerId = "4CAE8106-A471-4E77-8FE8-6CA20233BBD2";
name = Light;
paths = (
{
closed = 1;
nodes = (
"98 673 OFFCURVE",
"92 683 OFFCURVE",
"92 694 CURVE SMOOTH",
"92 701 LINE SMOOTH",
"92 712 OFFCURVE",
"98 722 OFFCURVE",
"115 722 CURVE SMOOTH",
"132 722 OFFCURVE",
"138 712 OFFCURVE",
"138 701 CURVE SMOOTH",
"138 694 LINE SMOOTH",
"138 683 OFFCURVE",
"132 673 OFFCURVE",
"115 673 CURVE SMOOTH"
);
},
{
closed = 1;
nodes = (
"105 506 LINE",
"126 506 LINE",
"126 0 LINE",
"105 0 LINE"
);
}
);
width = 231;
}
);
leftKerningGroup = i;
rightKerningGroup = i;
unicode = 0069;
},
{
glyphname = j;
layers = (
{
layerId = "4CAE8106-A471-4E77-8FE8-6CA20233BBD2";
name = Light;
paths = (
{
closed = 1;
nodes = (
"105 506 LINE",
"126 506 LINE",
"126 -171 LINE SMOOTH",
"126 -190 OFFCURVE",
"116 -200 OFFCURVE",
"97 -200 CURVE SMOOTH",
"20 -200 LINE",
"20 -181 LINE",
"105 -181 LINE"
);
},
{
closed = 1;
nodes = (
"98 673 OFFCURVE",
"92 683 OFFCURVE",
"92 694 CURVE SMOOTH",
"92 701 LINE SMOOTH",
"92 712 OFFCURVE",
"98 722 OFFCURVE",
"115 722 CURVE SMOOTH",
"132 722 OFFCURVE",
"138 712 OFFCURVE",
"138 701 CURVE SMOOTH",
"138 694 LINE SMOOTH",
"138 683 OFFCURVE",
"132 673 OFFCURVE",
"115 673 CURVE SMOOTH"
);
}
);
width = 231;
}
);
leftKerningGroup = j;
rightKerningGroup = j;
unicode = 006A;
},
{
glyphname = k;
layers = (
{
layerId = "4CAE8106-A471-4E77-8FE8-6CA20233BBD2";
name = Light;
paths = (
{
closed = 1;
nodes = (
"105 740 LINE",
"126 740 LINE",
"126 220 LINE",
"129 220 LINE",
"209 299 LINE",
"416 506 LINE",
"444 506 LINE",
"229 292 LINE",
"471 0 LINE",
"445 0 LINE",
"214 277 LINE",
"126 190 LINE",
"126 0 LINE",
"105 0 LINE"
);
}
);
width = 490;
}
);
leftKerningGroup = b;
rightKerningGroup = k;
unicode = 006B;
},
{
glyphname = l;
lastChange = "2018-11-02 14:35:54 +0000";
layers = (
{
layerId = "4CAE8106-A471-4E77-8FE8-6CA20233BBD2";
name = Light;
paths = (
{
closed = 1;
nodes = (
"134 0 LINE SMOOTH",
"115 0 OFFCURVE",
"105 10 OFFCURVE",
"105 29 CURVE SMOOTH",
"105 740 LINE",
"126 740 LINE",
"126 19 LINE",
"211 19 LINE",
"211 0 LINE"
);
}
);
width = 251;
}
);
leftKerningGroup = l;
rightKerningGroup = l;
unicode = 006C;
},
{
glyphname = m;
layers = (
{
layerId = "4CAE8106-A471-4E77-8FE8-6CA20233BBD2";
name = Light;
paths = (
{
closed = 1;
nodes = (
"105 0 LINE",
"105 506 LINE",
"126 506 LINE",
"126 430 LINE",
"129 430 LINE",
"138 453 OFFCURVE",
"154 475 OFFCURVE",
"179 491 CURVE SMOOTH",
"204 507 OFFCURVE",
"238 518 OFFCURVE",
"282 518 CURVE SMOOTH",
"365 518 OFFCURVE",
"421 479 OFFCURVE",
"441 406 CURVE",
"445 406 LINE",
"464 471 OFFCURVE",
"516 518 OFFCURVE",
"611 518 CURVE SMOOTH",
"724 518 OFFCURVE",
"784 452 OFFCURVE",
"784 325 CURVE SMOOTH",
"784 0 LINE",
"763 0 LINE",
"763 322 LINE SMOOTH",
"763 445 OFFCURVE",
"709 499 OFFCURVE",
"609 499 CURVE SMOOTH",
"568 499 OFFCURVE",
"529 488 OFFCURVE",
"501 465 CURVE SMOOTH",
"473 441 OFFCURVE",
"455 407 OFFCURVE",
"455 360 CURVE SMOOTH",
"455 0 LINE",
"434 0 LINE",
"434 322 LINE SMOOTH",
"434 445 OFFCURVE",
"379 499 OFFCURVE",
"280 499 CURVE SMOOTH",
"240 499 OFFCURVE",
"201 488 OFFCURVE",
"173 465 CURVE SMOOTH",
"144 442 OFFCURVE",
"126 407 OFFCURVE",
"126 362 CURVE SMOOTH",
"126 0 LINE"
);
}
);
width = 879;
}
);
leftKerningGroup = m;
rightKerningGroup = h;
unicode = 006D;
},
{
glyphname = n;
layers = (
{
layerId = "4CAE8106-A471-4E77-8FE8-6CA20233BBD2";
name = Light;
paths = (
{
closed = 1;
nodes = (
"105 0 LINE",
"105 506 LINE",
"126 506 LINE",
"126 430 LINE",
"129 430 LINE",
"146 475 OFFCURVE",
"196 518 OFFCURVE",
"287 518 CURVE SMOOTH",
"400 518 OFFCURVE",
"461 452 OFFCURVE",
"461 325 CURVE SMOOTH",
"461 0 LINE",
"440 0 LINE",
"440 321 LINE SMOOTH",
"440 445 OFFCURVE",
"385 499 OFFCURVE",
"285 499 CURVE SMOOTH",
"244 499 OFFCURVE",
"203 488 OFFCURVE",
"174 465 CURVE SMOOTH",
"145 442 OFFCURVE",
"126 407 OFFCURVE",
"126 362 CURVE SMOOTH",
"126 0 LINE"
);
}
);
width = 556;
}
);
leftKerningGroup = m;
rightKerningGroup = h;
unicode = 006E;
},
{
glyphname = o;
lastChange = "2018-11-07 04:36:45 +0000";
layers = (
{
layerId = "4CAE8106-A471-4E77-8FE8-6CA20233BBD2";
name = Light;
paths = (
{
closed = 1;
nodes = (
"137 -12 OFFCURVE",
"60 77 OFFCURVE",
"60 253 CURVE SMOOTH",
"60 429 OFFCURVE",
"137 518 OFFCURVE",
"270 518 CURVE SMOOTH",
"403 518 OFFCURVE",
"480 429 OFFCURVE",
"480 253 CURVE SMOOTH",
"480 77 OFFCURVE",
"403 -12 OFFCURVE",
"270 -12 CURVE SMOOTH"
);
},
{
closed = 1;
nodes = (
"391 7 OFFCURVE",
"457 92 OFFCURVE",
"457 229 CURVE SMOOTH",
"457 277 LINE SMOOTH",
"457 414 OFFCURVE",
"391 499 OFFCURVE",
"270 499 CURVE SMOOTH",
"149 499 OFFCURVE",
"83 414 OFFCURVE",
"83 277 CURVE SMOOTH",
"83 229 LINE SMOOTH",
"83 92 OFFCURVE",
"149 7 OFFCURVE",
"270 7 CURVE SMOOTH"
);
}
);
width = 540;
}
);
leftKerningGroup = c;
rightKerningGroup = o;
unicode = 006F;
},
{
glyphname = p;
layers = (
{
layerId = "4CAE8106-A471-4E77-8FE8-6CA20233BBD2";
name = Light;
paths = (
{
closed = 1;
nodes = (
"105 506 LINE",
"126 506 LINE",
"126 428 LINE",
"129 428 LINE",
"140 449 OFFCURVE",
"158 473 OFFCURVE",
"186 490 CURVE SMOOTH",
"213 506 OFFCURVE",
"249 518 OFFCURVE",
"293 518 CURVE SMOOTH",
"426 518 OFFCURVE",
"505 430 OFFCURVE",
"505 253 CURVE SMOOTH",
"505 76 OFFCURVE",
"426 -12 OFFCURVE",
"293 -12 CURVE SMOOTH",
"249 -12 OFFCURVE",
"213 0 OFFCURVE",
"186 17 CURVE",
"158 33 OFFCURVE",
"140 55 OFFCURVE",
"129 78 CURVE",
"126 78 LINE",
"126 -200 LINE",
"105 -200 LINE"
);
},
{
closed = 1;
nodes = (
"414 7 OFFCURVE",
"482 92 OFFCURVE",
"482 229 CURVE SMOOTH",
"482 277 LINE SMOOTH",
"482 414 OFFCURVE",
"414 499 OFFCURVE",
"293 499 CURVE SMOOTH",
"249 499 OFFCURVE",
"208 485 OFFCURVE",
"177 461 CURVE SMOOTH",
"145 437 OFFCURVE",
"126 403 OFFCURVE",
"126 363 CURVE SMOOTH",
"126 143 LINE SMOOTH",
"126 103 OFFCURVE",
"145 69 OFFCURVE",
"177 45 CURVE SMOOTH",
"208 21 OFFCURVE",
"249 7 OFFCURVE",
"293 7 CURVE SMOOTH"
);
}
);
width = 565;
}
);
leftKerningGroup = p;
rightKerningGroup = b;
unicode = 0070;
},
{
glyphname = q;
layers = (
{
layerId = "4CAE8106-A471-4E77-8FE8-6CA20233BBD2";
name = Light;
paths = (
{
closed = 1;
nodes = (
"439 78 LINE",
"436 78 LINE",
"425 55 OFFCURVE",
"407 33 OFFCURVE",
"380 17 CURVE SMOOTH",
"352 0 OFFCURVE",
"316 -12 OFFCURVE",
"272 -12 CURVE SMOOTH",
"139 -12 OFFCURVE",
"60 76 OFFCURVE",
"60 253 CURVE SMOOTH",
"60 430 OFFCURVE",
"139 518 OFFCURVE",
"272 518 CURVE SMOOTH",
"316 518 OFFCURVE",
"352 506 OFFCURVE",
"380 490 CURVE",
"407 473 OFFCURVE",
"425 449 OFFCURVE",
"436 428 CURVE",
"439 428 LINE",
"439 506 LINE",
"460 506 LINE",
"460 -200 LINE",
"439 -200 LINE"
);
},
{
closed = 1;
nodes = (
"316 7 OFFCURVE",
"357 21 OFFCURVE",
"389 45 CURVE SMOOTH",
"420 69 OFFCURVE",
"439 103 OFFCURVE",
"439 143 CURVE SMOOTH",
"439 363 LINE SMOOTH",
"439 403 OFFCURVE",
"420 437 OFFCURVE",
"389 461 CURVE SMOOTH",
"357 485 OFFCURVE",
"316 499 OFFCURVE",
"272 499 CURVE SMOOTH",
"151 499 OFFCURVE",
"83 414 OFFCURVE",
"83 277 CURVE SMOOTH",
"83 229 LINE SMOOTH",
"83 92 OFFCURVE",
"151 7 OFFCURVE",
"272 7 CURVE SMOOTH"
);
}
);
width = 565;
}
);
leftKerningGroup = d;
rightKerningGroup = j;
unicode = 0071;
},
{
glyphname = r;
layers = (
{
layerId = "4CAE8106-A471-4E77-8FE8-6CA20233BBD2";
name = Light;
paths = (
{
closed = 1;
nodes = (
"105 0 LINE",
"105 506 LINE",
"126 506 LINE",
"126 419 LINE",
"129 419 LINE",
"141 443 OFFCURVE",
"157 464 OFFCURVE",
"182 480 CURVE SMOOTH",
"206 496 OFFCURVE",
"240 506 OFFCURVE",
"287 506 CURVE SMOOTH",
"328 506 LINE",
"328 487 LINE",
"284 487 LINE SMOOTH",
"243 487 OFFCURVE",
"203 476 OFFCURVE",
"174 453 CURVE SMOOTH",
"145 430 OFFCURVE",
"126 396 OFFCURVE",
"126 349 CURVE SMOOTH",
"126 0 LINE"
);
}
);
width = 341;
}
);
leftKerningGroup = m;
rightKerningGroup = r;
unicode = 0072;
},
{
glyphname = s;
layers = (
{
layerId = "4CAE8106-A471-4E77-8FE8-6CA20233BBD2";
name = Light;
paths = (
{
closed = 1;
nodes = (
"155 -12 OFFCURVE",
"96 14 OFFCURVE",
"49 81 CURVE",
"67 93 LINE",
"112 30 OFFCURVE",
"161 7 OFFCURVE",
"236 7 CURVE SMOOTH",
"332 7 OFFCURVE",
"382 48 OFFCURVE",
"382 124 CURVE SMOOTH",
"382 200 OFFCURVE",
"338 232 OFFCURVE",
"254 245 CURVE SMOOTH",
"210 252 LINE SMOOTH",
"121 265 OFFCURVE",
"66 301 OFFCURVE",
"66 389 CURVE SMOOTH",
"66 432 OFFCURVE",
"84 464 OFFCURVE",
"113 486 CURVE SMOOTH",
"141 508 OFFCURVE",
"181 518 OFFCURVE",
"226 518 CURVE SMOOTH",
"270 518 OFFCURVE",
"303 510 OFFCURVE",
"330 496 CURVE SMOOTH",
"357 482 OFFCURVE",
"377 464 OFFCURVE",
"393 445 CURVE",
"377 431 LINE",
"361 448 OFFCURVE",
"344 466 OFFCURVE",
"321 479 CURVE",
"297 491 OFFCURVE",
"267 499 OFFCURVE",
"227 499 CURVE SMOOTH",
"143 499 OFFCURVE",
"87 462 OFFCURVE",
"87 390 CURVE SMOOTH",
"87 314 OFFCURVE",
"127 287 OFFCURVE",
"214 272 CURVE SMOOTH",
"258 265 LINE SMOOTH",
"302 258 OFFCURVE",
"339 246 OFFCURVE",
"364 224 CURVE SMOOTH",
"388 202 OFFCURVE",
"403 169 OFFCURVE",
"403 125 CURVE SMOOTH",
"403 37 OFFCURVE",
"340 -12 OFFCURVE",
"236 -12 CURVE SMOOTH"
);
}
);
width = 462;
}
);
leftKerningGroup = s;
rightKerningGroup = s;
unicode = 0073;
},
{
glyphname = t;
layers = (
{
layerId = "4CAE8106-A471-4E77-8FE8-6CA20233BBD2";
name = Light;
paths = (
{
closed = 1;
nodes = (
"154 0 LINE SMOOTH",
"135 0 OFFCURVE",
"125 10 OFFCURVE",
"125 29 CURVE SMOOTH",
"125 487 LINE",
"30 487 LINE",
"30 506 LINE",
"102 506 LINE SMOOTH",
"121 506 OFFCURVE",
"125 512 OFFCURVE",
"125 531 CURVE SMOOTH",
"125 650 LINE",
"146 650 LINE",
"146 506 LINE",
"267 506 LINE",
"267 487 LINE",
"146 487 LINE",
"146 19 LINE",
"259 19 LINE",
"259 0 LINE"
);
}
);
width = 310;
}
);
leftKerningGroup = t;
rightKerningGroup = t;
unicode = 0074;
},
{
glyphname = u;
layers = (
{
layerId = "4CAE8106-A471-4E77-8FE8-6CA20233BBD2";
name = Light;
paths = (
{
closed = 1;
nodes = (
"430 76 LINE",
"427 76 LINE",
"408 31 OFFCURVE",
"360 -12 OFFCURVE",
"269 -12 CURVE SMOOTH",
"156 -12 OFFCURVE",
"95 54 OFFCURVE",
"95 181 CURVE SMOOTH",
"95 506 LINE",
"116 506 LINE",
"116 185 LINE SMOOTH",
"116 61 OFFCURVE",
"171 7 OFFCURVE",
"271 7 CURVE SMOOTH",
"312 7 OFFCURVE",
"353 18 OFFCURVE",
"382 41 CURVE SMOOTH",
"411 64 OFFCURVE",
"430 97 OFFCURVE",
"430 144 CURVE SMOOTH",
"430 506 LINE",
"451 506 LINE",
"451 0 LINE",
"430 0 LINE"
);
}
);
width = 556;
}
);
leftKerningGroup = u;
rightKerningGroup = u;
unicode = 0075;
},
{
glyphname = v;
layers = (
{
layerId = "4CAE8106-A471-4E77-8FE8-6CA20233BBD2";
name = Light;
paths = (
{
closed = 1;
nodes = (
"25 506 LINE",
"47 506 LINE",
"225 24 LINE",
"228 24 LINE",
"406 506 LINE",
"427 506 LINE",
"239 0 LINE",
"213 0 LINE"
);
}
);
width = 452;
}
);
leftKerningGroup = v;
rightKerningGroup = v;
unicode = 0076;
},
{
glyphname = w;
layers = (
{
layerId = "4CAE8106-A471-4E77-8FE8-6CA20233BBD2";
name = Light;
paths = (
{
closed = 1;
nodes = (
"35 506 LINE",
"57 506 LINE",
"201 27 LINE",
"204 27 LINE",
"352 506 LINE",
"374 506 LINE",
"522 27 LINE",
"525 27 LINE",
"669 506 LINE",
"690 506 LINE",
"536 0 LINE",
"510 0 LINE",
"364 472 LINE",
"361 472 LINE",
"215 0 LINE",
"189 0 LINE"
);
}
);
width = 725;
}
);
leftKerningGroup = w;
rightKerningGroup = w;
unicode = 0077;
},
{
glyphname = x;
layers = (
{
layerId = "4CAE8106-A471-4E77-8FE8-6CA20233BBD2";
name = Light;
paths = (
{
closed = 1;
nodes = (
"34 0 LINE",
"222 255 LINE",
"39 506 LINE",
"63 506 LINE",
"234 271 LINE",
"236 271 LINE",
"407 506 LINE",
"431 506 LINE",
"248 255 LINE",
"436 0 LINE",
"412 0 LINE",
"236 239 LINE",
"234 239 LINE",
"58 0 LINE"
);
}
);
width = 470;
}
);
leftKerningGroup = x;
rightKerningGroup = x;
unicode = 0078;
},
{
glyphname = y;
layers = (
{
layerId = "4CAE8106-A471-4E77-8FE8-6CA20233BBD2";
name = Light;
paths = (
{
closed = 1;
nodes = (
"406 506 LINE",
"427 506 LINE",
"172 -181 LINE SMOOTH",
"167 -194 OFFCURVE",
"157 -200 OFFCURVE",
"141 -200 CURVE SMOOTH",
"57 -200 LINE",
"57 -181 LINE",
"150 -181 LINE",
"216 -7 LINE",
"25 506 LINE",
"47 506 LINE",
"225 24 LINE",
"228 24 LINE"
);
}
);
width = 452;
}
);
leftKerningGroup = y;
rightKerningGroup = y;
unicode = 0079;
},
{
glyphname = z;
layers = (
{
layerId = "4CAE8106-A471-4E77-8FE8-6CA20233BBD2";
name = Light;
paths = (
{
closed = 1;
nodes = (
"27 0 LINE",
"27 21 LINE",
"364 487 LINE",
"37 487 LINE",
"37 506 LINE",
"386 506 LINE",
"386 485 LINE",
"49 19 LINE",
"396 19 LINE",
"396 0 LINE"
);
}
);
width = 417;
}
);
leftKerningGroup = z;
rightKerningGroup = z;
unicode = 007A;
},
{
glyphname = A;
layers = (
{
layerId = "4CAE8106-A471-4E77-8FE8-6CA20233BBD2";
name = Light;
paths = (
{
closed = 1;
nodes = (
"545 0 LINE",
"460 234 LINE",
"140 234 LINE",
"55 0 LINE",
"32 0 LINE",
"285 698 LINE",
"315 698 LINE",
"568 0 LINE"
);
},
{
closed = 1;
nodes = (
"301 675 LINE",
"298 675 LINE",
"147 253 LINE",
"453 253 LINE"
);
}
);
width = 600;
}
);
leftKerningGroup = A;
rightKerningGroup = A;
unicode = 0041;
},
{
glyphname = B;
layers = (
{
layerId = "4CAE8106-A471-4E77-8FE8-6CA20233BBD2";
name = Light;
paths = (
{
closed = 1;
nodes = (
"108 698 LINE",
"360 698 LINE SMOOTH",
"460 698 OFFCURVE",
"518 640 OFFCURVE",
"518 528 CURVE SMOOTH",
"518 440 OFFCURVE",
"483 391 OFFCURVE",
"420 371 CURVE",
"420 369 LINE",
"508 353 OFFCURVE",
"550 288 OFFCURVE",
"550 189 CURVE SMOOTH",
"550 73 OFFCURVE",
"491 0 OFFCURVE",
"376 0 CURVE SMOOTH",
"108 0 LINE"
);
},
{
closed = 1;
nodes = (
"130 20 LINE",
"376 20 LINE SMOOTH",
"428 20 OFFCURVE",
"465 38 OFFCURVE",
"490 66 CURVE SMOOTH",
"514 93 OFFCURVE",
"526 129 OFFCURVE",
"526 168 CURVE SMOOTH",
"526 210 LINE SMOOTH",
"526 247 OFFCURVE",
"514 285 OFFCURVE",
"490 313 CURVE",
"465 340 OFFCURVE",
"428 358 OFFCURVE",
"376 358 CURVE SMOOTH",
"130 358 LINE"
);
},
{
closed = 1;
nodes = (
"130 378 LINE",
"360 378 LINE SMOOTH",
"405 378 OFFCURVE",
"440 393 OFFCURVE",
"462 417 CURVE SMOOTH",
"484 441 OFFCURVE",
"494 474 OFFCURVE",
"494 507 CURVE SMOOTH",
"494 549 LINE SMOOTH",
"494 582 OFFCURVE",
"484 615 OFFCURVE",
"462 639 CURVE SMOOTH",
"440 663 OFFCURVE",
"405 678 OFFCURVE",
"360 678 CURVE SMOOTH",
"130 678 LINE"
);
}
);
width = 615;
}
);
unicode = 0042;
},
{
glyphname = C;
layers = (
{
layerId = "4CAE8106-A471-4E77-8FE8-6CA20233BBD2";
name = Light;
paths = (
{
closed = 1;
nodes = (
"162 -12 OFFCURVE",
"70 108 OFFCURVE",
"70 349 CURVE SMOOTH",
"70 590 OFFCURVE",
"162 710 OFFCURVE",
"329 710 CURVE SMOOTH",
"432 710 OFFCURVE",
"506 652 OFFCURVE",
"545 567 CURVE",
"526 558 LINE",
"490 641 OFFCURVE",
"421 690 OFFCURVE",
"329 690 CURVE SMOOTH",
"182 690 OFFCURVE",
"94 586 OFFCURVE",
"94 370 CURVE SMOOTH",
"94 328 LINE SMOOTH",
"94 112 OFFCURVE",
"182 8 OFFCURVE",
"329 8 CURVE SMOOTH",
"429 8 OFFCURVE",
"496 60 OFFCURVE",
"531 148 CURVE",
"550 140 LINE",
"514 48 OFFCURVE",
"437 -12 OFFCURVE",
"329 -12 CURVE SMOOTH"
);
}
);
width = 610;
}
);
leftKerningGroup = C;
rightKerningGroup = C;
unicode = 0043;
},
{
glyphname = D;
layers = (
{
layerId = "4CAE8106-A471-4E77-8FE8-6CA20233BBD2";
name = Light;
paths = (
{
closed = 1;
nodes = (
"108 698 LINE",
"312 698 LINE SMOOTH",
"499 698 OFFCURVE",
"588 581 OFFCURVE",
"588 349 CURVE SMOOTH",
"588 117 OFFCURVE",
"499 0 OFFCURVE",
"312 0 CURVE SMOOTH",
"108 0 LINE"
);
},
{
closed = 1;
nodes = (
"313 20 LINE SMOOTH",
"400 20 OFFCURVE",
"463 50 OFFCURVE",
"504 102 CURVE SMOOTH",
"544 154 OFFCURVE",
"564 228 OFFCURVE",
"564 319 CURVE SMOOTH",
"564 379 LINE SMOOTH",
"564 470 OFFCURVE",
"544 544 OFFCURVE",
"504 596 CURVE SMOOTH",
"463 648 OFFCURVE",
"400 678 OFFCURVE",
"313 678 CURVE SMOOTH",
"130 678 LINE",
"130 20 LINE"
);
}
);
width = 658;
}
);
rightKerningGroup = D;
unicode = 0044;
},
{
glyphname = E;
layers = (
{
layerId = "4CAE8106-A471-4E77-8FE8-6CA20233BBD2";
name = Light;
paths = (
{
closed = 1;
nodes = (
"108 0 LINE",
"108 698 LINE",
"489 698 LINE",
"489 678 LINE",
"130 678 LINE",
"130 364 LINE",
"477 364 LINE",
"477 344 LINE",
"130 344 LINE",
"130 20 LINE",
"489 20 LINE",
"489 0 LINE"
);
}
);
width = 561;
}
);
rightKerningGroup = E;
unicode = 0045;
},
{
glyphname = F;
layers = (
{
layerId = "4CAE8106-A471-4E77-8FE8-6CA20233BBD2";
name = Light;
paths = (
{
closed = 1;
nodes = (
"108 0 LINE",
"108 698 LINE",
"481 698 LINE",
"481 678 LINE",
"130 678 LINE",
"130 364 LINE",
"467 364 LINE",
"467 344 LINE",
"130 344 LINE",
"130 0 LINE"
);
}
);
width = 535;
}
);
rightKerningGroup = F;
unicode = 0046;
},
{
glyphname = G;
layers = (
{
layerId = "4CAE8106-A471-4E77-8FE8-6CA20233BBD2";
name = Light;
paths = (
{
closed = 1;
nodes = (
"565 114 LINE",
"562 114 LINE",
"523 34 OFFCURVE",
"452 -12 OFFCURVE",
"340 -12 CURVE SMOOTH",
"165 -12 OFFCURVE",
"70 108 OFFCURVE",
"70 349 CURVE SMOOTH",
"70 590 OFFCURVE",
"165 710 OFFCURVE",
"340 710 CURVE SMOOTH",
"448 710 OFFCURVE",
"530 654 OFFCURVE",
"569 567 CURVE",
"550 558 LINE",
"514 642 OFFCURVE",
"437 690 OFFCURVE",
"340 690 CURVE SMOOTH",
"187 690 OFFCURVE",
"94 582 OFFCURVE",
"94 370 CURVE SMOOTH",
"94 328 LINE SMOOTH",
"94 116 OFFCURVE",
"187 8 OFFCURVE",
"340 8 CURVE SMOOTH",
"400 8 OFFCURVE",
"456 25 OFFCURVE",
"497 58 CURVE SMOOTH",
"538 90 OFFCURVE",
"564 139 OFFCURVE",
"564 206 CURVE SMOOTH",
"564 312 LINE",
"388 312 LINE",
"388 332 LINE",
"586 332 LINE",
"586 0 LINE",
"565 0 LINE"
);
}
);
width = 666;
}
);
leftKerningGroup = C;
rightKerningGroup = G;
unicode = 0047;
},
{
glyphname = H;
layers = (
{
layerId = "4CAE8106-A471-4E77-8FE8-6CA20233BBD2";
name = Light;
paths = (
{
closed = 1;
nodes = (
"562 344 LINE",
"130 344 LINE",
"130 0 LINE",
"108 0 LINE",
"108 698 LINE",
"130 698 LINE",
"130 364 LINE",
"562 364 LINE",
"562 698 LINE",
"584 698 LINE",
"584 0 LINE",
"562 0 LINE"
);
}
);
width = 692;
}
);
unicode = 0048;
},
{
glyphname = I;
lastChange = "2018-11-02 04:32:49 +0000";
layers = (
{
layerId = "4CAE8106-A471-4E77-8FE8-6CA20233BBD2";
name = Light;
paths = (
{
closed = 1;
nodes = (
"108 698 LINE",
"130 698 LINE",
"130 0 LINE",
"108 0 LINE"
);
}
);
width = 238;
}
);
leftKerningGroup = I;
rightKerningGroup = I;
unicode = 0049;
},
{
glyphname = J;
lastChange = "2018-11-02 03:32:40 +0000";
layers = (
{
layerId = "4CAE8106-A471-4E77-8FE8-6CA20233BBD2";
name = Light;
paths = (
{
closed = 1;
nodes = (
"342 183 LINE SMOOTH",
"342 70 OFFCURVE",
"292 8 OFFCURVE",
"192 8 CURVE SMOOTH",
"115 8 OFFCURVE",
"60 55 OFFCURVE",
"41 119 CURVE",
"22 113 LINE",
"41 38 OFFCURVE",
"108 -12 OFFCURVE",
"192 -12 CURVE SMOOTH",
"300 -12 OFFCURVE",
"364 54 OFFCURVE",
"364 183 CURVE SMOOTH",
"364 698 LINE",
"342 698 LINE"
);
}
);
width = 464;
}
);
leftKerningGroup = J;
rightKerningGroup = J;
unicode = 004A;
},
{
glyphname = K;
layers = (
{
layerId = "4CAE8106-A471-4E77-8FE8-6CA20233BBD2";
name = Light;
paths = (
{
closed = 1;
nodes = (
"265 387 LINE",
"130 239 LINE",
"130 0 LINE",
"108 0 LINE",
"108 698 LINE",
"130 698 LINE",
"130 271 LINE",
"132 271 LINE",
"262 413 LINE",
"521 698 LINE",
"549 698 LINE",
"280 403 LINE",
"552 0 LINE",
"526 0 LINE"
);
}
);
width = 572;
}
);
rightKerningGroup = K;
unicode = 004B;
},
{
glyphname = L;
layers = (
{
layerId = "4CAE8106-A471-4E77-8FE8-6CA20233BBD2";
name = Light;
paths = (
{
closed = 1;
nodes = (
"108 0 LINE",
"108 698 LINE",
"130 698 LINE",
"130 20 LINE",
"455 20 LINE",
"455 0 LINE"
);
}
);
width = 475;
}
);
rightKerningGroup = L;
unicode = 004C;
},
{
glyphname = M;
layers = (
{
layerId = "4CAE8106-A471-4E77-8FE8-6CA20233BBD2";
name = Light;
paths = (
{
closed = 1;
nodes = (
"667 673 LINE",
"664 673 LINE",
"398 236 LINE",
"132 673 LINE",
"129 673 LINE",
"129 0 LINE",
"108 0 LINE",
"108 698 LINE",
"141 698 LINE",
"397 278 LINE",
"400 278 LINE",
"655 698 LINE",
"688 698 LINE",
"688 0 LINE",
"667 0 LINE"
);
}
);
width = 796;
}
);
unicode = 004D;
},
{
glyphname = N;
layers = (
{
layerId = "4CAE8106-A471-4E77-8FE8-6CA20233BBD2";
name = Light;
paths = (
{
closed = 1;
nodes = (
"132 671 LINE",
"129 671 LINE",
"129 0 LINE",
"108 0 LINE",
"108 698 LINE",
"140 698 LINE",
"560 27 LINE",
"563 27 LINE",
"563 698 LINE",
"584 698 LINE",
"584 0 LINE",
"552 0 LINE"
);
}
);
width = 692;
}
);
unicode = 004E;
},
{
glyphname = O;
layers = (
{
layerId = "4CAE8106-A471-4E77-8FE8-6CA20233BBD2";
name = Light;
paths = (
{
closed = 1;
nodes = (
"165 -12 OFFCURVE",
"70 108 OFFCURVE",
"70 349 CURVE SMOOTH",
"70 590 OFFCURVE",
"165 710 OFFCURVE",
"340 710 CURVE SMOOTH",
"515 710 OFFCURVE",
"610 590 OFFCURVE",
"610 349 CURVE SMOOTH",
"610 108 OFFCURVE",
"515 -12 OFFCURVE",
"340 -12 CURVE SMOOTH"
);
},
{
closed = 1;
nodes = (
"493 8 OFFCURVE",
"586 116 OFFCURVE",
"586 328 CURVE SMOOTH",
"586 370 LINE SMOOTH",
"586 582 OFFCURVE",
"493 690 OFFCURVE",
"340 690 CURVE SMOOTH",
"187 690 OFFCURVE",
"94 582 OFFCURVE",
"94 370 CURVE SMOOTH",
"94 328 LINE SMOOTH",
"94 116 OFFCURVE",
"187 8 OFFCURVE",
"340 8 CURVE SMOOTH"
);
}
);
width = 680;
}
);
leftKerningGroup = C;
rightKerningGroup = O;
unicode = 004F;
},
{
glyphname = P;
layers = (
{
layerId = "4CAE8106-A471-4E77-8FE8-6CA20233BBD2";
name = Light;
paths = (
{
closed = 1;
nodes = (
"108 0 LINE",
"108 698 LINE",
"376 698 LINE SMOOTH",
"491 698 OFFCURVE",
"550 625 OFFCURVE",
"550 510 CURVE SMOOTH",
"550 395 OFFCURVE",
"491 322 OFFCURVE",
"376 322 CURVE SMOOTH",
"130 322 LINE",
"130 0 LINE"
);
},
{
closed = 1;
nodes = (
"130 342 LINE",
"376 342 LINE SMOOTH",
"428 342 OFFCURVE",
"465 360 OFFCURVE",
"490 387 CURVE SMOOTH",
"514 414 OFFCURVE",
"526 450 OFFCURVE",
"526 489 CURVE SMOOTH",
"526 531 LINE SMOOTH",
"526 568 OFFCURVE",
"514 606 OFFCURVE",
"490 633 CURVE SMOOTH",
"465 660 OFFCURVE",
"428 678 OFFCURVE",
"376 678 CURVE SMOOTH",
"130 678 LINE"
);
}
);
width = 594;
}
);
rightKerningGroup = P;
unicode = 0050;
},
{
glyphname = Q;
layers = (
{
layerId = "4CAE8106-A471-4E77-8FE8-6CA20233BBD2";
name = Light;
paths = (
{
closed = 1;
nodes = (
"456 -146 LINE",
"359 -146 LINE SMOOTH",
"340 -146 OFFCURVE",
"330 -136 OFFCURVE",
"330 -117 CURVE SMOOTH",
"330 -12 LINE",
"162 -7 OFFCURVE",
"70 113 OFFCURVE",
"70 349 CURVE SMOOTH",
"70 590 OFFCURVE",
"165 710 OFFCURVE",
"340 710 CURVE SMOOTH",
"515 710 OFFCURVE",
"610 590 OFFCURVE",
"610 349 CURVE SMOOTH",
"610 113 OFFCURVE",
"519 -5 OFFCURVE",
"352 -12 CURVE",
"352 -126 LINE",
"456 -126 LINE"
);
},
{
closed = 1;
nodes = (
"493 8 OFFCURVE",
"586 116 OFFCURVE",
"586 328 CURVE SMOOTH",
"586 370 LINE SMOOTH",
"586 582 OFFCURVE",
"493 690 OFFCURVE",
"340 690 CURVE SMOOTH",
"187 690 OFFCURVE",
"94 582 OFFCURVE",
"94 370 CURVE SMOOTH",
"94 328 LINE SMOOTH",
"94 116 OFFCURVE",
"187 8 OFFCURVE",
"340 8 CURVE SMOOTH"
);
}
);
width = 680;
}
);
leftKerningGroup = C;
rightKerningGroup = O;
unicode = 0051;
},
{
glyphname = R;
layers = (
{
layerId = "4CAE8106-A471-4E77-8FE8-6CA20233BBD2";
name = Light;
paths = (
{
closed = 1;
nodes = (
"130 0 LINE",
"108 0 LINE",
"108 698 LINE",
"376 698 LINE SMOOTH",
"491 698 OFFCURVE",
"550 625 OFFCURVE",
"550 510 CURVE SMOOTH",
"550 395 OFFCURVE",
"491 322 OFFCURVE",
"374 322 CURVE",
"566 0 LINE",
"541 0 LINE",
"349 322 LINE",
"130 322 LINE"
);
},
{
closed = 1;
nodes = (
"376 342 LINE SMOOTH",
"428 342 OFFCURVE",
"465 360 OFFCURVE",
"490 387 CURVE SMOOTH",
"514 414 OFFCURVE",
"526 450 OFFCURVE",
"526 489 CURVE SMOOTH",
"526 531 LINE SMOOTH",
"526 568 OFFCURVE",
"514 606 OFFCURVE",
"490 633 CURVE SMOOTH",
"465 660 OFFCURVE",
"428 678 OFFCURVE",
"376 678 CURVE SMOOTH",
"130 678 LINE",
"130 342 LINE"
);
}
);
width = 630;
}
);
rightKerningGroup = R;
unicode = 0052;
},
{
glyphname = S;
layers = (
{
layerId = "4CAE8106-A471-4E77-8FE8-6CA20233BBD2";
name = Light;
paths = (
{
closed = 1;
nodes = (
"217 -12 OFFCURVE",
"173 0 OFFCURVE",
"135 20 CURVE SMOOTH",
"97 40 OFFCURVE",
"67 69 OFFCURVE",
"42 102 CURVE",
"60 115 LINE",
"84 83 OFFCURVE",
"111 57 OFFCURVE",
"146 38 CURVE SMOOTH",
"181 18 OFFCURVE",
"223 8 OFFCURVE",
"276 8 CURVE SMOOTH",
"397 8 OFFCURVE",
"467 65 OFFCURVE",
"467 176 CURVE SMOOTH",
"467 235 OFFCURVE",
"447 272 OFFCURVE",
"418 297 CURVE SMOOTH",
"389 321 OFFCURVE",
"347 333 OFFCURVE",
"306 341 CURVE SMOOTH",
"236 354 LINE SMOOTH",
"165 367 OFFCURVE",
"122 391 OFFCURVE",
"95 423 CURVE SMOOTH",
"67 455 OFFCURVE",
"58 493 OFFCURVE",
"58 534 CURVE SMOOTH",
"58 653 OFFCURVE",
"142 710 OFFCURVE",
"271 710 CURVE SMOOTH",
"375 710 OFFCURVE",
"438 671 OFFCURVE",
"477 615 CURVE",
"459 602 LINE",
"419 661 OFFCURVE",
"360 690 OFFCURVE",
"269 690 CURVE SMOOTH",
"150 690 OFFCURVE",
"80 639 OFFCURVE",
"80 534 CURVE SMOOTH",
"80 479 OFFCURVE",
"99 444 OFFCURVE",
"129 420 CURVE SMOOTH",
"159 396 OFFCURVE",
"198 383 OFFCURVE",
"242 375 CURVE SMOOTH",
"312 362 LINE SMOOTH",
"384 349 OFFCURVE",
"427 323 OFFCURVE",
"454 291 CURVE SMOOTH",
"481 258 OFFCURVE",
"489 219 OFFCURVE",
"489 178 CURVE SMOOTH",
"489 51 OFFCURVE",
"407 -12 OFFCURVE",
"276 -12 CURVE SMOOTH"
);
}
);
width = 547;
}
);
leftKerningGroup = S;
rightKerningGroup = S;
unicode = 0053;
},
{
glyphname = T;
layers = (
{
layerId = "4CAE8106-A471-4E77-8FE8-6CA20233BBD2";
name = Light;
paths = (
{
closed = 1;
nodes = (
"291 678 LINE",
"291 0 LINE",
"269 0 LINE",
"269 678 LINE",
"17 678 LINE",
"17 698 LINE",
"543 698 LINE",
"543 678 LINE"
);
}
);
width = 560;
}
);
leftKerningGroup = T;
rightKerningGroup = T;
unicode = 0054;
},
{
glyphname = U;
layers = (
{
layerId = "4CAE8106-A471-4E77-8FE8-6CA20233BBD2";
name = Light;
paths = (
{
closed = 1;
nodes = (
"122 698 LINE",
"122 268 LINE SMOOTH",
"122 173 OFFCURVE",
"134 108 OFFCURVE",
"166 67 CURVE SMOOTH",
"197 26 OFFCURVE",
"247 8 OFFCURVE",
"326 8 CURVE SMOOTH",
"403 8 OFFCURVE",
"455 26 OFFCURVE",
"487 67 CURVE SMOOTH",
"518 108 OFFCURVE",
"530 173 OFFCURVE",
"530 268 CURVE SMOOTH",
"530 698 LINE",
"552 698 LINE",
"552 270 LINE SMOOTH",
"552 166 OFFCURVE",
"538 96 OFFCURVE",
"502 52 CURVE SMOOTH",
"466 7 OFFCURVE",
"410 -12 OFFCURVE",
"326 -12 CURVE SMOOTH",
"242 -12 OFFCURVE",
"186 7 OFFCURVE",
"150 52 CURVE SMOOTH",
"114 96 OFFCURVE",
"100 166 OFFCURVE",
"100 270 CURVE SMOOTH",
"100 698 LINE"
);
}
);
width = 652;
}
);
leftKerningGroup = U;
rightKerningGroup = U;
unicode = 0055;
},
{
glyphname = V;
layers = (
{
layerId = "4CAE8106-A471-4E77-8FE8-6CA20233BBD2";
name = Light;
paths = (
{
closed = 1;
nodes = (
"270 0 LINE",
"30 698 LINE",
"54 698 LINE",
"284 25 LINE",
"287 25 LINE",
"517 698 LINE",
"540 698 LINE",
"300 0 LINE"
);
}
);
width = 570;
}
);
leftKerningGroup = V;
rightKerningGroup = V;
unicode = 0056;
},
{
glyphname = W;
layers = (
{
layerId = "4CAE8106-A471-4E77-8FE8-6CA20233BBD2";
name = Light;
paths = (
{
closed = 1;
nodes = (
"216 0 LINE",
"30 698 LINE",
"54 698 LINE",
"230 31 LINE",
"233 31 LINE",
"420 698 LINE",
"452 698 LINE",
"639 31 LINE",
"642 31 LINE",
"819 698 LINE",
"842 698 LINE",
"656 0 LINE",
"626 0 LINE",
"437 674 LINE",
"434 674 LINE",
"246 0 LINE"
);
}
);
width = 872;
}
);
leftKerningGroup = W;
rightKerningGroup = W;
unicode = 0057;
},
{
glyphname = X;
layers = (
{
layerId = "4CAE8106-A471-4E77-8FE8-6CA20233BBD2";
name = Light;
paths = (
{
closed = 1;
nodes = (
"530 0 LINE",
"504 0 LINE",
"281 335 LINE",
"279 335 LINE",
"54 0 LINE",
"28 0 LINE",
"266 354 LINE",
"37 698 LINE",
"63 698 LINE",
"278 376 LINE",
"280 376 LINE",
"495 698 LINE",
"521 698 LINE",
"293 357 LINE"
);
}
);
width = 558;
}
);
leftKerningGroup = X;
rightKerningGroup = X;
unicode = 0058;
},
{
glyphname = Y;
layers = (
{
layerId = "4CAE8106-A471-4E77-8FE8-6CA20233BBD2";
name = Light;
paths = (
{
closed = 1;
nodes = (
"262 0 LINE",
"262 294 LINE",
"21 698 LINE",
"46 698 LINE",
"272 320 LINE",
"275 320 LINE",
"501 698 LINE",
"525 698 LINE",
"284 294 LINE",
"284 0 LINE"
);
}
);
width = 546;
}
);
leftKerningGroup = Y;
rightKerningGroup = Y;
unicode = 0059;
},
{
glyphname = Z;
layers = (
{
layerId = "4CAE8106-A471-4E77-8FE8-6CA20233BBD2";
name = Light;
paths = (
{
closed = 1;
nodes = (
"527 0 LINE",
"39 0 LINE",
"39 22 LINE",
"482 678 LINE",
"62 678 LINE",
"62 698 LINE",
"506 698 LINE",
"506 676 LINE",
"63 20 LINE",
"527 20 LINE"
);
}
);
width = 555;
}
);
leftKerningGroup = Z;
rightKerningGroup = Z;
unicode = 005A;
},
{
glyphname = zero;
layers = (
{
layerId = "4CAE8106-A471-4E77-8FE8-6CA20233BBD2";
name = Light;
paths = (
{
closed = 1;
nodes = (
"227 -12 OFFCURVE",
"170 15 OFFCURVE",
"131 73 CURVE SMOOTH",
"91 131 OFFCURVE",
"71 221 OFFCURVE",
"71 349 CURVE SMOOTH",
"71 477 OFFCURVE",
"91 568 OFFCURVE",
"131 626 CURVE SMOOTH",
"170 684 OFFCURVE",
"227 710 OFFCURVE",
"300 710 CURVE SMOOTH",
"373 710 OFFCURVE",
"430 684 OFFCURVE",
"469 626 CURVE SMOOTH",
"508 568 OFFCURVE",
"529 477 OFFCURVE",
"529 349 CURVE SMOOTH",
"529 221 OFFCURVE",
"508 131 OFFCURVE",
"469 73 CURVE SMOOTH",
"430 15 OFFCURVE",
"373 -12 OFFCURVE",
"300 -12 CURVE SMOOTH"
);
},
{
closed = 1;
nodes = (
"433 8 OFFCURVE",
"505 110 OFFCURVE",
"505 317 CURVE SMOOTH",
"505 381 LINE SMOOTH",
"505 588 OFFCURVE",
"433 690 OFFCURVE",
"300 690 CURVE SMOOTH",
"167 690 OFFCURVE",
"95 588 OFFCURVE",
"95 381 CURVE SMOOTH",
"95 317 LINE SMOOTH",
"95 110 OFFCURVE",
"167 8 OFFCURVE",
"300 8 CURVE SMOOTH"
);
}
);
width = 600;
}
);
unicode = 0030;
},
{
glyphname = one;
lastChange = "2018-11-04 17:14:05 +0000";
layers = (
{
layerId = "4CAE8106-A471-4E77-8FE8-6CA20233BBD2";
name = Light;
paths = (
{
closed = 1;
nodes = (
"107 612 LINE",
"107 588 LINE",
"257 675 LINE",
"257 0 LINE",
"279 0 LINE",
"279 698 LINE",
"255 698 LINE"
);
}
);
width = 450;
}
);
unicode = 0031;
},
{
glyphname = two;
layers = (
{
layerId = "4CAE8106-A471-4E77-8FE8-6CA20233BBD2";
name = Light;
paths = (
{
closed = 1;
nodes = (
"521 0 LINE",
"87 0 LINE",
"87 22 LINE",
"356 294 LINE SMOOTH",
"424 362 OFFCURVE",
"462 427 OFFCURVE",
"462 502 CURVE SMOOTH",
"462 532 LINE SMOOTH",
"462 577 OFFCURVE",
"448 617 OFFCURVE",
"420 645 CURVE SMOOTH",
"392 673 OFFCURVE",
"350 690 OFFCURVE",
"294 690 CURVE SMOOTH",
"190 690 OFFCURVE",
"134 636 OFFCURVE",
"107 551 CURVE",
"87 555 LINE",
"112 646 OFFCURVE",
"179 710 OFFCURVE",
"294 710 CURVE SMOOTH",
"419 710 OFFCURVE",
"486 637 OFFCURVE",
"486 516 CURVE SMOOTH",
"486 427 OFFCURVE",
"446 355 OFFCURVE",
"370 279 CURVE SMOOTH",
"112 20 LINE",
"521 20 LINE"
);
}
);
width = 600;
}
);
unicode = 0032;
},
{
glyphname = three;
layers = (
{
layerId = "4CAE8106-A471-4E77-8FE8-6CA20233BBD2";
name = Light;
paths = (
{
closed = 1;
nodes = (
"280 376 LINE SMOOTH",
"331 376 OFFCURVE",
"374 391 OFFCURVE",
"404 417 CURVE SMOOTH",
"434 443 OFFCURVE",
"451 479 OFFCURVE",
"451 522 CURVE SMOOTH",
"451 546 LINE SMOOTH",
"451 589 OFFCURVE",
"434 625 OFFCURVE",
"406 650 CURVE SMOOTH",
"377 675 OFFCURVE",
"335 690 OFFCURVE",
"287 690 CURVE SMOOTH",
"194 690 OFFCURVE",
"144 651 OFFCURVE",
"113 591 CURVE",
"95 599 LINE",
"123 664 OFFCURVE",
"187 710 OFFCURVE",
"287 710 CURVE SMOOTH",
"402 710 OFFCURVE",
"475 643 OFFCURVE",
"475 536 CURVE SMOOTH",
"475 487 OFFCURVE",
"460 449 OFFCURVE",
"436 421 CURVE SMOOTH",
"411 393 OFFCURVE",
"376 376 OFFCURVE",
"335 368 CURVE",
"335 365 LINE",
"430 353 OFFCURVE",
"490 291 OFFCURVE",
"490 187 CURVE SMOOTH",
"490 63 OFFCURVE",
"411 -12 OFFCURVE",
"283 -12 CURVE SMOOTH",
"186 -12 OFFCURVE",
"117 22 OFFCURVE",
"70 95 CURVE",
"88 106 LINE",
"131 38 OFFCURVE",
"192 8 OFFCURVE",
"283 8 CURVE SMOOTH",
"336 8 OFFCURVE",
"383 24 OFFCURVE",
"415 53 CURVE SMOOTH",
"447 81 OFFCURVE",
"466 122 OFFCURVE",
"466 170 CURVE SMOOTH",
"466 198 LINE SMOOTH",
"466 294 OFFCURVE",
"395 356 OFFCURVE",
"282 356 CURVE SMOOTH",
"186 356 LINE",
"186 376 LINE"
);
}
);
width = 600;
}
);
unicode = 0033;
},
{
glyphname = four;
layers = (
{
layerId = "4CAE8106-A471-4E77-8FE8-6CA20233BBD2";
name = Light;
paths = (
{
closed = 1;
nodes = (
"412 0 LINE",
"412 160 LINE",
"47 160 LINE",
"47 181 LINE",
"407 698 LINE",
"432 698 LINE",
"432 179 LINE",
"550 179 LINE",
"550 160 LINE",
"432 160 LINE",
"432 0 LINE"
);
},
{
closed = 1;
nodes = (
"69 179 LINE",
"412 179 LINE",
"412 670 LINE",
"410 670 LINE"
);
}
);
width = 600;
}
);
unicode = 0034;
},
{
glyphname = five;
layers = (
{
layerId = "4CAE8106-A471-4E77-8FE8-6CA20233BBD2";
name = Light;
paths = (
{
closed = 1;
nodes = (
"481 678 LINE",
"158 678 LINE",
"134 344 LINE",
"137 343 LINE",
"177 395 OFFCURVE",
"228 413 OFFCURVE",
"304 413 CURVE SMOOTH",
"432 413 OFFCURVE",
"505 335 OFFCURVE",
"505 203 CURVE SMOOTH",
"505 136 OFFCURVE",
"485 82 OFFCURVE",
"449 46 CURVE SMOOTH",
"413 9 OFFCURVE",
"361 -12 OFFCURVE",
"297 -12 CURVE SMOOTH",
"200 -12 OFFCURVE",
"131 22 OFFCURVE",
"84 95 CURVE",
"102 106 LINE",
"145 38 OFFCURVE",
"206 8 OFFCURVE",
"297 8 CURVE SMOOTH",
"356 8 OFFCURVE",
"401 27 OFFCURVE",
"433 59 CURVE SMOOTH",
"464 91 OFFCURVE",
"481 136 OFFCURVE",
"481 188 CURVE SMOOTH",
"481 216 LINE SMOOTH",
"481 321 OFFCURVE",
"420 393 OFFCURVE",
"304 393 CURVE SMOOTH",
"261 393 OFFCURVE",
"230 388 OFFCURVE",
"204 376 CURVE SMOOTH",
"178 364 OFFCURVE",
"157 347 OFFCURVE",
"137 323 CURVE",
"114 326 LINE",
"140 698 LINE",
"481 698 LINE"
);
}
);
width = 600;
}
);
unicode = 0035;
},
{
glyphname = six;
layers = (
{
layerId = "4CAE8106-A471-4E77-8FE8-6CA20233BBD2";
name = Light;
paths = (
{
closed = 1;
nodes = (
"224 -12 OFFCURVE",
"171 14 OFFCURVE",
"137 57 CURVE SMOOTH",
"103 100 OFFCURVE",
"87 159 OFFCURVE",
"87 226 CURVE SMOOTH",
"87 339 OFFCURVE",
"117 434 OFFCURVE",
"166 512 CURVE SMOOTH",
"214 590 OFFCURVE",
"283 650 OFFCURVE",
"360 698 CURVE",
"392 698 LINE",
"229 597 OFFCURVE",
"141 478 OFFCURVE",
"113 311 CURVE",
"116 310 LINE",
"151 382 OFFCURVE",
"216 417 OFFCURVE",
"299 417 CURVE SMOOTH",
"363 417 OFFCURVE",
"417 397 OFFCURVE",
"454 361 CURVE SMOOTH",
"490 324 OFFCURVE",
"511 270 OFFCURVE",
"511 205 CURVE SMOOTH",
"511 140 OFFCURVE",
"490 86 OFFCURVE",
"454 48 CURVE SMOOTH",
"417 10 OFFCURVE",
"364 -12 OFFCURVE",
"300 -12 CURVE SMOOTH"
);
},
{
closed = 1;
nodes = (
"358 8 OFFCURVE",
"405 27 OFFCURVE",
"437 59 CURVE SMOOTH",
"469 91 OFFCURVE",
"487 136 OFFCURVE",
"487 187 CURVE SMOOTH",
"487 218 LINE SMOOTH",
"487 269 OFFCURVE",
"469 313 OFFCURVE",
"437 345 CURVE SMOOTH",
"405 377 OFFCURVE",
"358 397 OFFCURVE",
"299 397 CURVE SMOOTH",
"239 397 OFFCURVE",
"192 377 OFFCURVE",
"160 345 CURVE SMOOTH",
"128 313 OFFCURVE",
"111 269 OFFCURVE",
"111 218 CURVE SMOOTH",
"111 190 LINE SMOOTH",
"111 138 OFFCURVE",
"129 92 OFFCURVE",
"162 60 CURVE SMOOTH",
"194 28 OFFCURVE",
"240 8 OFFCURVE",
"299 8 CURVE SMOOTH"
);
}
);
width = 600;
}
);
unicode = 0036;
},
{
glyphname = seven;
lastChange = "2018-11-02 04:39:51 +0000";
layers = (
{
layerId = "4CAE8106-A471-4E77-8FE8-6CA20233BBD2";
name = Light;
paths = (
{
closed = 1;
nodes = (
"77 678 LINE",
"489 678 LINE",
"187 0 LINE",
"211 0 LINE",
"512 678 LINE",
"512 698 LINE",
"77 698 LINE"
);
}
);
width = 600;
}
);
unicode = 0037;
},
{
glyphname = eight;
layers = (
{
layerId = "4CAE8106-A471-4E77-8FE8-6CA20233BBD2";
name = Light;
paths = (
{
closed = 1;
nodes = (
"229 -12 OFFCURVE",
"173 7 OFFCURVE",
"134 41 CURVE SMOOTH",
"94 75 OFFCURVE",
"72 121 OFFCURVE",
"72 180 CURVE SMOOTH",
"72 280 OFFCURVE",
"130 348 OFFCURVE",
"226 364 CURVE",
"226 368 LINE",
"146 384 OFFCURVE",
"96 444 OFFCURVE",
"96 535 CURVE SMOOTH",
"96 643 OFFCURVE",
"175 710 OFFCURVE",
"300 710 CURVE SMOOTH",
"425 710 OFFCURVE",
"504 643 OFFCURVE",
"504 535 CURVE SMOOTH",
"504 444 OFFCURVE",
"454 384 OFFCURVE",
"374 368 CURVE",
"374 364 LINE",
"470 348 OFFCURVE",
"528 280 OFFCURVE",
"528 180 CURVE SMOOTH",
"528 121 OFFCURVE",
"506 75 OFFCURVE",
"467 41 CURVE SMOOTH",
"427 7 OFFCURVE",
"369 -12 OFFCURVE",
"300 -12 CURVE SMOOTH"
);
},
{
closed = 1;
nodes = (
"361 8 OFFCURVE",
"413 25 OFFCURVE",
"449 53 CURVE SMOOTH",
"484 81 OFFCURVE",
"504 121 OFFCURVE",
"504 169 CURVE SMOOTH",
"504 195 LINE SMOOTH",
"504 243 OFFCURVE",
"484 283 OFFCURVE",
"449 311 CURVE SMOOTH",
"413 339 OFFCURVE",
"361 356 OFFCURVE",
"300 356 CURVE SMOOTH",
"237 356 OFFCURVE",
"187 339 OFFCURVE",
"152 311 CURVE SMOOTH",
"116 283 OFFCURVE",
"96 243 OFFCURVE",
"96 195 CURVE SMOOTH",
"96 169 LINE SMOOTH",
"96 121 OFFCURVE",
"116 81 OFFCURVE",
"152 53 CURVE SMOOTH",
"187 25 OFFCURVE",
"237 8 OFFCURVE",
"300 8 CURVE SMOOTH"
);
},
{
closed = 1;
nodes = (
"409 376 OFFCURVE",
"480 433 OFFCURVE",
"480 521 CURVE SMOOTH",
"480 545 LINE SMOOTH",
"480 633 OFFCURVE",
"409 690 OFFCURVE",
"300 690 CURVE SMOOTH",
"191 690 OFFCURVE",
"120 633 OFFCURVE",
"120 545 CURVE SMOOTH",
"120 521 LINE SMOOTH",
"120 433 OFFCURVE",
"191 376 OFFCURVE",
"300 376 CURVE SMOOTH"
);
}
);
width = 600;
}
);
unicode = 0038;
},
{
glyphname = nine;
layers = (
{
layerId = "4CAE8106-A471-4E77-8FE8-6CA20233BBD2";
name = Light;
paths = (
{
closed = 1;
nodes = (
"516 359 OFFCURVE",
"486 265 OFFCURVE",
"437 187 CURVE SMOOTH",
"388 109 OFFCURVE",
"320 48 OFFCURVE",
"243 0 CURVE",
"211 0 LINE",
"374 101 OFFCURVE",
"462 220 OFFCURVE",
"490 387 CURVE",
"487 388 LINE",
"452 316 OFFCURVE",
"387 281 OFFCURVE",
"304 281 CURVE SMOOTH",
"240 281 OFFCURVE",
"186 301 OFFCURVE",
"150 338 CURVE SMOOTH",
"113 374 OFFCURVE",
"92 428 OFFCURVE",
"92 493 CURVE SMOOTH",
"92 558 OFFCURVE",
"113 613 OFFCURVE",
"150 651 CURVE SMOOTH",
"186 689 OFFCURVE",
"239 710 OFFCURVE",
"303 710 CURVE SMOOTH",
"379 710 OFFCURVE",
"433 684 OFFCURVE",
"467 641 CURVE SMOOTH",
"501 598 OFFCURVE",
"516 539 OFFCURVE",
"516 472 CURVE SMOOTH"
);
},
{
closed = 1;
nodes = (
"364 301 OFFCURVE",
"411 321 OFFCURVE",
"443 353 CURVE SMOOTH",
"475 385 OFFCURVE",
"492 429 OFFCURVE",
"492 480 CURVE SMOOTH",
"492 508 LINE SMOOTH",
"492 560 OFFCURVE",
"474 606 OFFCURVE",
"442 638 CURVE SMOOTH",
"409 670 OFFCURVE",
"361 690 OFFCURVE",
"304 690 CURVE SMOOTH",
"245 690 OFFCURVE",
"198 671 OFFCURVE",
"166 639 CURVE SMOOTH",
"134 607 OFFCURVE",
"116 562 OFFCURVE",
"116 511 CURVE SMOOTH",
"116 480 LINE SMOOTH",
"116 429 OFFCURVE",
"134 385 OFFCURVE",
"166 353 CURVE SMOOTH",
"198 321 OFFCURVE",
"245 301 OFFCURVE",
"304 301 CURVE SMOOTH"
);
}
);
width = 600;
}
);
unicode = 0039;
},
{
glyphname = ampersand;
layers = (
{
layerId = "4CAE8106-A471-4E77-8FE8-6CA20233BBD2";
name = Light;
paths = (
{
closed = 1;
nodes = (
"497 116 LINE",
"454 39 OFFCURVE",
"376 -12 OFFCURVE",
"271 -12 CURVE SMOOTH",
"210 -12 OFFCURVE",
"160 6 OFFCURVE",
"125 37 CURVE SMOOTH",
"89 68 OFFCURVE",
"70 113 OFFCURVE",
"70 166 CURVE SMOOTH",
"70 222 OFFCURVE",
"89 262 OFFCURVE",
"120 294 CURVE SMOOTH",
"151 326 OFFCURVE",
"192 348 OFFCURVE",
"239 371 CURVE",
"207 406 OFFCURVE",
"183 435 OFFCURVE",
"166 464 CURVE SMOOTH",
"149 492 OFFCURVE",
"140 521 OFFCURVE",
"140 554 CURVE SMOOTH",
"140 647 OFFCURVE",
"205 710 OFFCURVE",
"309 710 CURVE SMOOTH",
"358 710 OFFCURVE",
"398 694 OFFCURVE",
"426 669 CURVE SMOOTH",
"454 644 OFFCURVE",
"469 609 OFFCURVE",
"469 570 CURVE SMOOTH",
"469 522 OFFCURVE",
"450 485 OFFCURVE",
"416 453 CURVE SMOOTH",
"382 421 OFFCURVE",
"332 395 OFFCURVE",
"273 367 CURVE",
"493 149 LINE",
"516 204 OFFCURVE",
"525 275 OFFCURVE",
"525 351 CURVE",
"634 351 LINE",
"634 331 LINE",
"544 331 LINE",
"541 256 OFFCURVE",
"532 191 OFFCURVE",
"507 135 CURVE",
"640 0 LINE",
"612 0 LINE"
);
},
{
closed = 1;
nodes = (
"262 691 OFFCURVE",
"226 677 OFFCURVE",
"202 654 CURVE SMOOTH",
"177 631 OFFCURVE",
"163 600 OFFCURVE",
"163 564 CURVE SMOOTH",
"163 546 LINE SMOOTH",
"163 489 OFFCURVE",
"206 437 OFFCURVE",
"259 380 CURVE",
"314 405 OFFCURVE",
"361 431 OFFCURVE",
"394 460 CURVE SMOOTH",
"426 489 OFFCURVE",
"446 521 OFFCURVE",
"446 560 CURVE SMOOTH",
"446 574 LINE SMOOTH",
"446 611 OFFCURVE",
"430 640 OFFCURVE",
"405 660 CURVE SMOOTH",
"380 680 OFFCURVE",
"345 691 OFFCURVE",
"309 691 CURVE SMOOTH"
);
},
{
closed = 1;
nodes = (
"93 156 LINE SMOOTH",
"93 111 OFFCURVE",
"112 75 OFFCURVE",
"144 49 CURVE SMOOTH",
"175 23 OFFCURVE",
"219 8 OFFCURVE",
"271 8 CURVE SMOOTH",
"372 8 OFFCURVE",
"442 52 OFFCURVE",
"483 129 CURVE",
"253 358 LINE",
"209 337 OFFCURVE",
"169 315 OFFCURVE",
"141 287 CURVE SMOOTH",
"112 259 OFFCURVE",
"93 224 OFFCURVE",
"93 176 CURVE SMOOTH"
);
}
);
width = 677;
}
);
leftKerningGroup = ampersand;
rightKerningGroup = ampersand;
unicode = 0026;
},
{
glyphname = at;
layers = (
{
layerId = "4CAE8106-A471-4E77-8FE8-6CA20233BBD2";
name = Light;
paths = (
{
closed = 1;
nodes = (
"676 -121 LINE",
"440 -121 LINE SMOOTH",
"337 -121 OFFCURVE",
"245 -83 OFFCURVE",
"178 -11 CURVE SMOOTH",
"111 60 OFFCURVE",
"70 165 OFFCURVE",
"70 300 CURVE SMOOTH",
"70 427 OFFCURVE",
"110 529 OFFCURVE",
"177 600 CURVE SMOOTH",
"244 671 OFFCURVE",
"337 710 OFFCURVE",
"442 710 CURVE SMOOTH",
"542 710 OFFCURVE",
"634 676 OFFCURVE",
"702 612 CURVE SMOOTH",
"769 548 OFFCURVE",
"810 453 OFFCURVE",
"810 330 CURVE SMOOTH",
"810 258 OFFCURVE",
"800 192 OFFCURVE",
"777 145 CURVE SMOOTH",
"754 98 OFFCURVE",
"719 69 OFFCURVE",
"668 69 CURVE SMOOTH",
"616 69 OFFCURVE",
"580 101 OFFCURVE",
"575 148 CURVE",
"572 148 LINE",
"563 129 OFFCURVE",
"547 109 OFFCURVE",
"524 94 CURVE SMOOTH",
"501 79 OFFCURVE",
"472 69 OFFCURVE",
"436 69 CURVE SMOOTH",
"328 69 OFFCURVE",
"264 142 OFFCURVE",
"264 287 CURVE SMOOTH",
"264 435 OFFCURVE",
"328 508 OFFCURVE",
"436 508 CURVE SMOOTH",
"509 508 OFFCURVE",
"552 470 OFFCURVE",
"571 433 CURVE",
"574 433 LINE",
"574 496 LINE",
"594 496 LINE",
"594 163 LINE SMOOTH",
"594 119 OFFCURVE",
"621 87 OFFCURVE",
"668 87 CURVE SMOOTH",
"740 87 OFFCURVE",
"788 166 OFFCURVE",
"788 305 CURVE SMOOTH",
"788 352 LINE SMOOTH",
"788 455 OFFCURVE",
"751 539 OFFCURVE",
"689 599 CURVE SMOOTH",
"627 658 OFFCURVE",
"539 692 OFFCURVE",
"442 692 CURVE SMOOTH",
"342 692 OFFCURVE",
"255 654 OFFCURVE",
"192 589 CURVE SMOOTH",
"129 524 OFFCURVE",
"92 433 OFFCURVE",
"92 326 CURVE SMOOTH",
"92 274 LINE SMOOTH",
"92 162 OFFCURVE",
"129 69 OFFCURVE",
"191 2 CURVE SMOOTH",
"253 -65 OFFCURVE",
"340 -103 OFFCURVE",
"440 -103 CURVE SMOOTH",
"676 -103 LINE"
);
},
{
closed = 1;
nodes = (
"472 87 OFFCURVE",
"507 100 OFFCURVE",
"532 122 CURVE SMOOTH",
"557 144 OFFCURVE",
"574 175 OFFCURVE",
"574 212 CURVE SMOOTH",
"574 362 LINE SMOOTH",
"574 401 OFFCURVE",
"557 432 OFFCURVE",
"532 455 CURVE SMOOTH",
"507 478 OFFCURVE",
"472 490 OFFCURVE",
"436 490 CURVE SMOOTH",
"339 490 OFFCURVE",
"286 421 OFFCURVE",
"286 306 CURVE SMOOTH",
"286 268 LINE SMOOTH",
"286 156 OFFCURVE",
"339 87 OFFCURVE",
"436 87 CURVE SMOOTH"
);
}
);
width = 880;
}
);
leftKerningGroup = at;
rightKerningGroup = at;
unicode = 0040;
},
{
glyphname = hyphen;
layers = (
{
layerId = "4CAE8106-A471-4E77-8FE8-6CA20233BBD2";
name = Light;
paths = (
{
closed = 1;
nodes = (
"83 295 LINE",
"83 315 LINE",
"312 315 LINE",
"312 295 LINE"
);
}
);
width = 395;
}
);
leftKerningGroup = hyphen;
rightKerningGroup = hyphen;
unicode = 002D;
},
{
glyphname = uni00AD;
layers = (
{
layerId = "4CAE8106-A471-4E77-8FE8-6CA20233BBD2";
name = Light;
paths = (
{
closed = 1;
nodes = (
"83 295 LINE",
"83 315 LINE",
"312 315 LINE",
"312 295 LINE"
);
}
);
width = 395;
}
);
leftKerningGroup = hyphen;
rightKerningGroup = hyphen;
unicode = 00AD;
},
{
glyphname = endash;
layers = (
{
layerId = "4CAE8106-A471-4E77-8FE8-6CA20233BBD2";
name = Light;
paths = (
{
closed = 1;
nodes = (
"36 296 LINE",
"36 314 LINE",
"552 314 LINE",
"552 296 LINE"
);
}
);
width = 588;
}
);
leftKerningGroup = hyphen;
rightKerningGroup = hyphen;
unicode = 2013;
},
{
glyphname = emdash;
layers = (
{
layerId = "4CAE8106-A471-4E77-8FE8-6CA20233BBD2";
name = Light;
paths = (
{
closed = 1;
nodes = (
"36 296 LINE",
"36 314 LINE",
"744 314 LINE",
"744 296 LINE"
);
}
);
width = 780;
}
);
leftKerningGroup = hyphen;
rightKerningGroup = hyphen;
unicode = 2014;
},
{
glyphname = underscore;
layers = (
{
layerId = "4CAE8106-A471-4E77-8FE8-6CA20233BBD2";
name = Light;
paths = (
{
closed = 1;
nodes = (
"30 -141 LINE",
"30 -123 LINE",
"539 -123 LINE",
"539 -141 LINE"
);
}
);
width = 569;
}
);
leftKerningGroup = underscore;
rightKerningGroup = underscore;
unicode = 005F;
},
{
glyphname = period;
layers = (
{
layerId = "4CAE8106-A471-4E77-8FE8-6CA20233BBD2";
name = Light;
paths = (
{
closed = 1;
nodes = (
"102 -5 OFFCURVE",
"93 3 OFFCURVE",
"93 20 CURVE SMOOTH",
"93 28 LINE SMOOTH",
"93 45 OFFCURVE",
"102 53 OFFCURVE",
"120 53 CURVE SMOOTH",
"138 53 OFFCURVE",
"147 45 OFFCURVE",
"147 28 CURVE SMOOTH",
"147 20 LINE SMOOTH",
"147 3 OFFCURVE",
"138 -5 OFFCURVE",
"120 -5 CURVE SMOOTH"
);
}
);
width = 240;
}
);
leftKerningGroup = period;
rightKerningGroup = period;
unicode = 002E;
},
{
glyphname = ellipsis;
layers = (
{
layerId = "4CAE8106-A471-4E77-8FE8-6CA20233BBD2";
name = Light;
paths = (
{
closed = 1;
nodes = (
"102 -5 OFFCURVE",
"93 3 OFFCURVE",
"93 20 CURVE SMOOTH",
"93 28 LINE SMOOTH",
"93 45 OFFCURVE",
"102 53 OFFCURVE",
"120 53 CURVE SMOOTH",
"138 53 OFFCURVE",
"147 45 OFFCURVE",
"147 28 CURVE SMOOTH",
"147 20 LINE SMOOTH",
"147 3 OFFCURVE",
"138 -5 OFFCURVE",
"120 -5 CURVE SMOOTH"
);
},
{
closed = 1;
nodes = (
"342 -5 OFFCURVE",
"333 3 OFFCURVE",
"333 20 CURVE SMOOTH",
"333 28 LINE SMOOTH",
"333 45 OFFCURVE",
"342 53 OFFCURVE",
"360 53 CURVE SMOOTH",
"378 53 OFFCURVE",
"387 45 OFFCURVE",
"387 28 CURVE SMOOTH",
"387 20 LINE SMOOTH",
"387 3 OFFCURVE",
"378 -5 OFFCURVE",
"360 -5 CURVE SMOOTH"
);
},
{
closed = 1;
nodes = (
"582 -5 OFFCURVE",
"573 3 OFFCURVE",
"573 20 CURVE SMOOTH",
"573 28 LINE SMOOTH",
"573 45 OFFCURVE",
"582 53 OFFCURVE",
"600 53 CURVE SMOOTH",
"618 53 OFFCURVE",
"627 45 OFFCURVE",
"627 28 CURVE SMOOTH",
"627 20 LINE SMOOTH",
"627 3 OFFCURVE",
"618 -5 OFFCURVE",
"600 -5 CURVE SMOOTH"
);
}
);
width = 720;
}
);
leftKerningGroup = period;
rightKerningGroup = period;
unicode = 2026;
},
{
glyphname = colon;
layers = (
{
layerId = "4CAE8106-A471-4E77-8FE8-6CA20233BBD2";
name = Light;
paths = (
{
closed = 1;
nodes = (
"111 -5 OFFCURVE",
"102 3 OFFCURVE",
"102 20 CURVE SMOOTH",
"102 28 LINE SMOOTH",
"102 45 OFFCURVE",
"111 53 OFFCURVE",
"129 53 CURVE SMOOTH",
"147 53 OFFCURVE",
"156 45 OFFCURVE",
"156 28 CURVE SMOOTH",
"156 20 LINE SMOOTH",
"156 3 OFFCURVE",
"147 -5 OFFCURVE",
"129 -5 CURVE SMOOTH"
);
},
{
closed = 1;
nodes = (
"111 436 OFFCURVE",
"102 444 OFFCURVE",
"102 461 CURVE SMOOTH",
"102 469 LINE SMOOTH",
"102 486 OFFCURVE",
"111 494 OFFCURVE",
"129 494 CURVE SMOOTH",
"147 494 OFFCURVE",
"156 486 OFFCURVE",
"156 469 CURVE SMOOTH",
"156 461 LINE SMOOTH",
"156 444 OFFCURVE",
"147 436 OFFCURVE",
"129 436 CURVE SMOOTH"
);
}
);
width = 258;
}
);
leftKerningGroup = colon;
unicode = 003A;
},
{
glyphname = comma;
layers = (
{
layerId = "4CAE8106-A471-4E77-8FE8-6CA20233BBD2";
name = Light;
paths = (
{
closed = 1;
nodes = (
"140 53 OFFCURVE",
"147 42 OFFCURVE",
"147 27 CURVE SMOOTH",
"147 15 LINE SMOOTH",
"147 -13 OFFCURVE",
"139 -43 OFFCURVE",
"125 -71 CURVE SMOOTH",
"111 -100 OFFCURVE",
"91 -127 OFFCURVE",
"70 -147 CURVE",
"51 -147 LINE",
"102 -96 OFFCURVE",
"121 -42 OFFCURVE",
"125 -5 CURVE",
"101 -5 OFFCURVE",
"93 6 OFFCURVE",
"93 18 CURVE SMOOTH",
"93 27 LINE SMOOTH",
"93 42 OFFCURVE",
"101 53 OFFCURVE",
"121 53 CURVE SMOOTH"
);
}
);
width = 240;
}
);
leftKerningGroup = period;
rightKerningGroup = period;
unicode = 002C;
},
{
glyphname = semicolon;
layers = (
{
layerId = "4CAE8106-A471-4E77-8FE8-6CA20233BBD2";
name = Light;
paths = (
{
closed = 1;
nodes = (
"149 53 OFFCURVE",
"156 42 OFFCURVE",
"156 27 CURVE SMOOTH",
"156 15 LINE SMOOTH",
"156 -13 OFFCURVE",
"148 -43 OFFCURVE",
"134 -71 CURVE SMOOTH",
"120 -100 OFFCURVE",
"100 -127 OFFCURVE",
"79 -147 CURVE",
"60 -147 LINE",
"111 -96 OFFCURVE",
"130 -42 OFFCURVE",
"134 -5 CURVE",
"110 -5 OFFCURVE",
"102 6 OFFCURVE",
"102 18 CURVE SMOOTH",
"102 27 LINE SMOOTH",
"102 42 OFFCURVE",
"110 53 OFFCURVE",
"130 53 CURVE SMOOTH"
);
},
{
closed = 1;
nodes = (
"110 436 OFFCURVE",
"101 444 OFFCURVE",
"101 461 CURVE SMOOTH",
"101 469 LINE SMOOTH",
"101 486 OFFCURVE",
"110 494 OFFCURVE",
"128 494 CURVE SMOOTH",
"146 494 OFFCURVE",
"155 486 OFFCURVE",
"155 469 CURVE SMOOTH",
"155 461 LINE SMOOTH",
"155 444 OFFCURVE",
"146 436 OFFCURVE",
"128 436 CURVE SMOOTH"
);
}
);
width = 258;
}
);
leftKerningGroup = colon;
unicode = 003B;
},
{
glyphname = quotesingle;
layers = (
{
layerId = "4CAE8106-A471-4E77-8FE8-6CA20233BBD2";
name = Light;
paths = (
{
closed = 1;
nodes = (
"100 490 LINE",
"100 740 LINE",
"120 740 LINE",
"120 490 LINE"
);
}
);
width = 220;
}
);
leftKerningGroup = quotesingle;
rightKerningGroup = quotesingle;
unicode = 0027;
},
{
glyphname = quotedbl;
layers = (
{
layerId = "4CAE8106-A471-4E77-8FE8-6CA20233BBD2";
name = Light;
paths = (
{
closed = 1;
nodes = (
"100 490 LINE",
"100 740 LINE",
"120 740 LINE",
"120 490 LINE"
);
},
{
closed = 1;
nodes = (
"253 490 LINE",
"253 740 LINE",
"273 740 LINE",
"273 490 LINE"
);
}
);
width = 373;
}
);
leftKerningGroup = quotesingle;
rightKerningGroup = quotesingle;
unicode = 0022;
},
{
glyphname = quoteleft;
layers = (
{
layerId = "4CAE8106-A471-4E77-8FE8-6CA20233BBD2";
name = Light;
paths = (
{
closed = 1;
nodes = (
"96 540 OFFCURVE",
"89 551 OFFCURVE",
"89 566 CURVE SMOOTH",
"89 578 LINE SMOOTH",
"89 606 OFFCURVE",
"98 636 OFFCURVE",
"112 665 CURVE SMOOTH",
"126 693 OFFCURVE",
"145 720 OFFCURVE",
"166 740 CURVE",
"185 740 LINE",
"134 689 OFFCURVE",
"115 635 OFFCURVE",
"111 598 CURVE",
"135 598 OFFCURVE",
"143 587 OFFCURVE",
"143 575 CURVE SMOOTH",
"143 566 LINE SMOOTH",
"143 551 OFFCURVE",
"135 540 OFFCURVE",
"115 540 CURVE SMOOTH"
);
}
);
width = 240;
}
);
leftKerningGroup = quoteleft;
rightKerningGroup = quoteleft;
unicode = 2018;
},
{
glyphname = quoteright;
layers = (
{
layerId = "4CAE8106-A471-4E77-8FE8-6CA20233BBD2";
name = Light;
paths = (
{
closed = 1;
nodes = (
"148 750 OFFCURVE",
"155 739 OFFCURVE",
"155 724 CURVE SMOOTH",
"155 712 LINE SMOOTH",
"155 684 OFFCURVE",
"147 654 OFFCURVE",
"133 626 CURVE SMOOTH",
"119 597 OFFCURVE",
"99 570 OFFCURVE",
"78 550 CURVE",
"59 550 LINE",
"110 601 OFFCURVE",
"129 655 OFFCURVE",
"133 692 CURVE",
"109 692 OFFCURVE",
"101 703 OFFCURVE",
"101 715 CURVE SMOOTH",
"101 724 LINE SMOOTH",
"101 739 OFFCURVE",
"109 750 OFFCURVE",
"129 750 CURVE SMOOTH"
);
}
);
width = 240;
}
);
leftKerningGroup = quoteright;
rightKerningGroup = quoteright;
unicode = 2019;
},
{
glyphname = quotedblleft;
layers = (
{
layerId = "4CAE8106-A471-4E77-8FE8-6CA20233BBD2";
name = Light;
paths = (
{
closed = 1;
nodes = (
"96 540 OFFCURVE",
"89 551 OFFCURVE",
"89 566 CURVE SMOOTH",
"89 578 LINE SMOOTH",
"89 606 OFFCURVE",
"98 636 OFFCURVE",
"112 665 CURVE SMOOTH",
"126 693 OFFCURVE",
"145 720 OFFCURVE",
"166 740 CURVE",
"185 740 LINE",
"134 689 OFFCURVE",
"115 635 OFFCURVE",
"111 598 CURVE",
"135 598 OFFCURVE",
"143 587 OFFCURVE",
"143 575 CURVE SMOOTH",
"143 566 LINE SMOOTH",
"143 551 OFFCURVE",
"135 540 OFFCURVE",
"115 540 CURVE SMOOTH"
);
},
{
closed = 1;
nodes = (
"256 540 OFFCURVE",
"249 551 OFFCURVE",
"249 566 CURVE SMOOTH",
"249 578 LINE SMOOTH",
"249 606 OFFCURVE",
"258 636 OFFCURVE",
"272 665 CURVE SMOOTH",
"286 693 OFFCURVE",
"305 720 OFFCURVE",
"326 740 CURVE",
"345 740 LINE",
"294 689 OFFCURVE",
"275 635 OFFCURVE",
"271 598 CURVE",
"295 598 OFFCURVE",
"303 587 OFFCURVE",
"303 575 CURVE SMOOTH",
"303 566 LINE SMOOTH",
"303 551 OFFCURVE",
"295 540 OFFCURVE",
"275 540 CURVE SMOOTH"
);
}
);
width = 400;
}
);
leftKerningGroup = quoteleft;
rightKerningGroup = quoteleft;
unicode = 201C;
},
{
glyphname = quotedblright;
layers = (
{
layerId = "4CAE8106-A471-4E77-8FE8-6CA20233BBD2";
name = Light;
paths = (
{
closed = 1;
nodes = (
"148 750 OFFCURVE",
"155 739 OFFCURVE",
"155 724 CURVE SMOOTH",
"155 712 LINE SMOOTH",
"155 684 OFFCURVE",
"147 654 OFFCURVE",
"133 626 CURVE SMOOTH",
"119 597 OFFCURVE",
"99 570 OFFCURVE",
"78 550 CURVE",
"59 550 LINE",
"110 601 OFFCURVE",
"129 655 OFFCURVE",
"133 692 CURVE",
"109 692 OFFCURVE",
"101 703 OFFCURVE",
"101 715 CURVE SMOOTH",
"101 724 LINE SMOOTH",
"101 739 OFFCURVE",
"109 750 OFFCURVE",
"129 750 CURVE SMOOTH"
);
},
{
closed = 1;
nodes = (
"308 750 OFFCURVE",
"315 739 OFFCURVE",
"315 724 CURVE SMOOTH",
"315 712 LINE SMOOTH",
"315 684 OFFCURVE",
"307 654 OFFCURVE",
"293 626 CURVE SMOOTH",
"279 597 OFFCURVE",
"259 570 OFFCURVE",
"238 550 CURVE",
"219 550 LINE",
"270 601 OFFCURVE",
"289 655 OFFCURVE",
"293 692 CURVE",
"269 692 OFFCURVE",
"261 703 OFFCURVE",
"261 715 CURVE SMOOTH",
"261 724 LINE SMOOTH",
"261 739 OFFCURVE",
"269 750 OFFCURVE",
"289 750 CURVE SMOOTH"
);
}
);
width = 400;
}
);
leftKerningGroup = quoteright;
rightKerningGroup = quoteright;
unicode = 201D;
},
{
glyphname = quotesinglbase;
layers = (
{
layerId = "4CAE8106-A471-4E77-8FE8-6CA20233BBD2";
name = Light;
paths = (
{
closed = 1;
nodes = (
"141 66 OFFCURVE",
"148 55 OFFCURVE",
"148 40 CURVE SMOOTH",
"148 28 LINE SMOOTH",
"148 0 OFFCURVE",
"140 -30 OFFCURVE",
"126 -58 CURVE SMOOTH",
"112 -87 OFFCURVE",
"92 -114 OFFCURVE",
"71 -134 CURVE",
"52 -134 LINE",
"103 -83 OFFCURVE",
"122 -29 OFFCURVE",
"126 8 CURVE",
"102 8 OFFCURVE",
"94 19 OFFCURVE",
"94 31 CURVE SMOOTH",
"94 40 LINE SMOOTH",
"94 55 OFFCURVE",
"102 66 OFFCURVE",
"122 66 CURVE SMOOTH"
);
}
);
width = 240;
}
);
leftKerningGroup = period;
rightKerningGroup = period;
unicode = 201A;
},
{
glyphname = quotedblbase;
layers = (
{
layerId = "4CAE8106-A471-4E77-8FE8-6CA20233BBD2";
name = Light;
paths = (
{
closed = 1;
nodes = (
"141 66 OFFCURVE",
"148 55 OFFCURVE",
"148 40 CURVE SMOOTH",
"148 28 LINE SMOOTH",
"148 0 OFFCURVE",
"140 -30 OFFCURVE",
"126 -58 CURVE SMOOTH",
"112 -87 OFFCURVE",
"92 -114 OFFCURVE",
"71 -134 CURVE",
"52 -134 LINE",
"103 -83 OFFCURVE",
"122 -29 OFFCURVE",
"126 8 CURVE",
"102 8 OFFCURVE",
"94 19 OFFCURVE",
"94 31 CURVE SMOOTH",
"94 40 LINE SMOOTH",
"94 55 OFFCURVE",
"102 66 OFFCURVE",
"122 66 CURVE SMOOTH"
);
},
{
closed = 1;
nodes = (
"301 66 OFFCURVE",
"308 55 OFFCURVE",
"308 40 CURVE SMOOTH",
"308 28 LINE SMOOTH",
"308 0 OFFCURVE",
"300 -30 OFFCURVE",
"286 -58 CURVE SMOOTH",
"272 -87 OFFCURVE",
"252 -114 OFFCURVE",
"231 -134 CURVE",
"212 -134 LINE",
"263 -83 OFFCURVE",
"282 -29 OFFCURVE",
"286 8 CURVE",
"262 8 OFFCURVE",
"254 19 OFFCURVE",
"254 31 CURVE SMOOTH",
"254 40 LINE SMOOTH",
"254 55 OFFCURVE",
"262 66 OFFCURVE",
"282 66 CURVE SMOOTH"
);
}
);
width = 400;
}
);
leftKerningGroup = period;
rightKerningGroup = period;
unicode = 201E;
},
{
glyphname = guilsinglleft;
layers = (
{
layerId = "4CAE8106-A471-4E77-8FE8-6CA20233BBD2";
name = Light;
paths = (
{
closed = 1;
nodes = (
"232 106 LINE",
"34 284 LINE",
"34 304 LINE",
"232 482 LINE",
"241 467 LINE",
"57 294 LINE",
"241 121 LINE"
);
}
);
width = 292;
}
);
leftKerningGroup = guilsinglleft;
rightKerningGroup = guilsinglleft;
unicode = 2039;
},
{
glyphname = guilsinglright;
layers = (
{
layerId = "4CAE8106-A471-4E77-8FE8-6CA20233BBD2";
name = Light;
paths = (
{
closed = 1;
nodes = (
"51 121 LINE",
"235 294 LINE",
"51 467 LINE",
"60 482 LINE",
"258 304 LINE",
"258 284 LINE",
"60 106 LINE"
);
}
);
width = 292;
}
);
leftKerningGroup = guilsinglright;
rightKerningGroup = guilsinglright;
unicode = 203A;
},
{
glyphname = guillemotleft;
layers = (
{
layerId = "4CAE8106-A471-4E77-8FE8-6CA20233BBD2";
name = Light;
paths = (
{
closed = 1;
nodes = (
"232 106 LINE",
"34 284 LINE",
"34 304 LINE",
"232 482 LINE",
"241 467 LINE",
"57 294 LINE",
"241 121 LINE"
);
},
{
closed = 1;
nodes = (
"412 106 LINE",
"214 284 LINE",
"214 304 LINE",
"412 482 LINE",
"421 467 LINE",
"237 294 LINE",
"421 121 LINE"
);
}
);
width = 472;
}
);
leftKerningGroup = guilsinglleft;
rightKerningGroup = guilsinglleft;
unicode = 00AB;
},
{
glyphname = guillemotright;
layers = (
{
layerId = "4CAE8106-A471-4E77-8FE8-6CA20233BBD2";
name = Light;
paths = (
{
closed = 1;
nodes = (
"51 121 LINE",
"235 294 LINE",
"51 467 LINE",
"60 482 LINE",
"258 304 LINE",
"258 284 LINE",
"60 106 LINE"
);
},
{
closed = 1;
nodes = (
"231 121 LINE",
"415 294 LINE",
"231 467 LINE",
"240 482 LINE",
"438 304 LINE",
"438 284 LINE",
"240 106 LINE"
);
}
);
width = 472;
}
);
leftKerningGroup = guilsinglright;
rightKerningGroup = guilsinglright;
unicode = 00BB;
},
{
glyphname = exclamdown;
layers = (
{
layerId = "4CAE8106-A471-4E77-8FE8-6CA20233BBD2";
name = Light;
paths = (
{
closed = 1;
nodes = (
"132 330 LINE",
"137 91 LINE",
"137 -192 LINE",
"115 -192 LINE",
"115 91 LINE",
"120 330 LINE"
);
},
{
closed = 1;
nodes = (
"144 511 OFFCURVE",
"153 503 OFFCURVE",
"153 486 CURVE SMOOTH",
"153 478 LINE SMOOTH",
"153 461 OFFCURVE",
"144 453 OFFCURVE",
"126 453 CURVE SMOOTH",
"108 453 OFFCURVE",
"99 461 OFFCURVE",
"99 478 CURVE SMOOTH",
"99 486 LINE SMOOTH",
"99 503 OFFCURVE",
"108 511 OFFCURVE",
"126 511 CURVE SMOOTH"
);
}
);
width = 252;
}
);
rightKerningGroup = exclamdown;
unicode = 00A1;
},
{
glyphname = exclam;
layers = (
{
layerId = "4CAE8106-A471-4E77-8FE8-6CA20233BBD2";
name = Light;
paths = (
{
closed = 1;
nodes = (
"120 176 LINE",
"115 415 LINE",
"115 698 LINE",
"137 698 LINE",
"137 415 LINE",
"132 176 LINE"
);
},
{
closed = 1;
nodes = (
"108 -5 OFFCURVE",
"99 3 OFFCURVE",
"99 20 CURVE SMOOTH",
"99 28 LINE SMOOTH",
"99 45 OFFCURVE",
"108 53 OFFCURVE",
"126 53 CURVE SMOOTH",
"144 53 OFFCURVE",
"153 45 OFFCURVE",
"153 28 CURVE SMOOTH",
"153 20 LINE SMOOTH",
"153 3 OFFCURVE",
"144 -5 OFFCURVE",
"126 -5 CURVE SMOOTH"
);
}
);
width = 252;
}
);
leftKerningGroup = exclam;
unicode = 0021;
},
{
glyphname = questiondown;
layers = (
{
layerId = "4CAE8106-A471-4E77-8FE8-6CA20233BBD2";
name = Light;
paths = (
{
closed = 1;
nodes = (
"104 -204 OFFCURVE",
"35 -133 OFFCURVE",
"35 -25 CURVE SMOOTH",
"35 92 OFFCURVE",
"107 164 OFFCURVE",
"236 176 CURVE",
"236 330 LINE",
"258 330 LINE",
"258 157 LINE",
"130 154 OFFCURVE",
"58 87 OFFCURVE",
"58 -10 CURVE SMOOTH",
"58 -36 LINE SMOOTH",
"58 -124 OFFCURVE",
"117 -185 OFFCURVE",
"220 -185 CURVE SMOOTH",
"320 -185 OFFCURVE",
"374 -136 OFFCURVE",
"399 -48 CURVE",
"419 -53 LINE",
"392 -149 OFFCURVE",
"328 -204 OFFCURVE",
"220 -204 CURVE SMOOTH"
);
},
{
closed = 1;
nodes = (
"229 453 OFFCURVE",
"220 461 OFFCURVE",
"220 478 CURVE SMOOTH",
"220 486 LINE SMOOTH",
"220 503 OFFCURVE",
"229 511 OFFCURVE",
"247 511 CURVE SMOOTH",
"265 511 OFFCURVE",
"274 503 OFFCURVE",
"274 486 CURVE SMOOTH",
"274 478 LINE SMOOTH",
"274 461 OFFCURVE",
"265 453 OFFCURVE",
"247 453 CURVE SMOOTH"
);
}
);
width = 456;
}
);
leftKerningGroup = questiondown;
rightKerningGroup = questiondown;
unicode = 00BF;
},
{
glyphname = question;
layers = (
{
layerId = "4CAE8106-A471-4E77-8FE8-6CA20233BBD2";
name = Light;
paths = (
{
closed = 1;
nodes = (
"198 176 LINE",
"198 349 LINE",
"326 352 OFFCURVE",
"398 419 OFFCURVE",
"398 516 CURVE SMOOTH",
"398 542 LINE SMOOTH",
"398 630 OFFCURVE",
"339 691 OFFCURVE",
"236 691 CURVE SMOOTH",
"136 691 OFFCURVE",
"82 642 OFFCURVE",
"57 554 CURVE",
"37 559 LINE",
"64 655 OFFCURVE",
"128 710 OFFCURVE",
"236 710 CURVE SMOOTH",
"352 710 OFFCURVE",
"421 639 OFFCURVE",
"421 531 CURVE SMOOTH",
"421 414 OFFCURVE",
"349 342 OFFCURVE",
"220 330 CURVE",
"220 176 LINE"
);
},
{
closed = 1;
nodes = (
"191 -5 OFFCURVE",
"182 3 OFFCURVE",
"182 20 CURVE SMOOTH",
"182 28 LINE SMOOTH",
"182 45 OFFCURVE",
"191 53 OFFCURVE",
"209 53 CURVE SMOOTH",
"227 53 OFFCURVE",
"236 45 OFFCURVE",
"236 28 CURVE SMOOTH",
"236 20 LINE SMOOTH",
"236 3 OFFCURVE",
"227 -5 OFFCURVE",
"209 -5 CURVE SMOOTH"
);
}
);
width = 456;
}
);
leftKerningGroup = question;
rightKerningGroup = question;
unicode = 003F;
},
{
glyphname = parenleft;
layers = (
{
layerId = "4CAE8106-A471-4E77-8FE8-6CA20233BBD2";
name = Light;
paths = (
{
closed = 1;
nodes = (
"105 412 OFFCURVE",
"129 504 OFFCURVE",
"163 580 CURVE SMOOTH",
"197 656 OFFCURVE",
"242 717 OFFCURVE",
"289 760 CURVE",
"314 760 LINE",
"265 716 OFFCURVE",
"218 655 OFFCURVE",
"183 581 CURVE SMOOTH",
"148 507 OFFCURVE",
"126 420 OFFCURVE",
"126 328 CURVE SMOOTH",
"126 294 LINE SMOOTH",
"126 202 OFFCURVE",
"148 116 OFFCURVE",
"183 42 CURVE SMOOTH",
"218 -32 OFFCURVE",
"265 -94 OFFCURVE",
"314 -138 CURVE",
"289 -138 LINE",
"242 -95 OFFCURVE",
"197 -34 OFFCURVE",
"163 42 CURVE SMOOTH",
"129 118 OFFCURVE",
"105 208 OFFCURVE",
"105 311 CURVE SMOOTH"
);
}
);
width = 332;
}
);
rightKerningGroup = parenleft;
unicode = 0028;
},
{
glyphname = parenright;
layers = (
{
layerId = "4CAE8106-A471-4E77-8FE8-6CA20233BBD2";
name = Light;
paths = (
{
closed = 1;
nodes = (
"227 208 OFFCURVE",
"204 118 OFFCURVE",
"170 42 CURVE SMOOTH",
"136 -34 OFFCURVE",
"88 -95 OFFCURVE",
"43 -138 CURVE",
"18 -138 LINE",
"67 -94 OFFCURVE",
"114 -32 OFFCURVE",
"149 42 CURVE SMOOTH",
"184 116 OFFCURVE",
"206 202 OFFCURVE",
"206 294 CURVE SMOOTH",
"206 328 LINE SMOOTH",
"206 420 OFFCURVE",
"184 507 OFFCURVE",
"149 581 CURVE SMOOTH",
"114 655 OFFCURVE",
"67 716 OFFCURVE",
"18 760 CURVE",
"43 760 LINE",
"88 717 OFFCURVE",
"136 656 OFFCURVE",
"170 580 CURVE SMOOTH",
"204 504 OFFCURVE",
"227 412 OFFCURVE",
"227 311 CURVE SMOOTH"
);
}
);
width = 332;
}
);
leftKerningGroup = parenright;
unicode = 0029;
},
{
glyphname = bracketleft;
layers = (
{
layerId = "4CAE8106-A471-4E77-8FE8-6CA20233BBD2";
name = Light;
paths = (
{
closed = 1;
nodes = (
"108 -138 LINE",
"108 760 LINE",
"232 760 LINE",
"232 742 LINE",
"128 742 LINE",
"128 -120 LINE",
"232 -120 LINE",
"232 -138 LINE"
);
}
);
width = 301;
}
);
rightKerningGroup = bracketleft;
unicode = 005B;
},
{
glyphname = bracketright;
layers = (
{
layerId = "4CAE8106-A471-4E77-8FE8-6CA20233BBD2";
name = Light;
paths = (
{
closed = 1;
nodes = (
"193 760 LINE",
"193 -138 LINE",
"69 -138 LINE",
"69 -120 LINE",
"173 -120 LINE",
"173 742 LINE",
"69 742 LINE",
"69 760 LINE"
);
}
);
width = 301;
}
);
leftKerningGroup = bracketright;
unicode = 005D;
},
{
glyphname = braceleft;
layers = (
{
layerId = "4CAE8106-A471-4E77-8FE8-6CA20233BBD2";
name = Light;
paths = (
{
closed = 1;
nodes = (
"147 -138 LINE SMOOTH",
"130 -138 OFFCURVE",
"122 -129 OFFCURVE",
"122 -112 CURVE SMOOTH",
"122 201 LINE SMOOTH",
"122 261 OFFCURVE",
"85 287 OFFCURVE",
"25 287 CURVE",
"25 335 LINE",
"85 335 OFFCURVE",
"122 361 OFFCURVE",
"122 421 CURVE SMOOTH",
"122 734 LINE SMOOTH",
"122 751 OFFCURVE",
"130 760 OFFCURVE",
"147 760 CURVE SMOOTH",
"247 760 LINE",
"247 742 LINE",
"142 742 LINE",
"142 421 LINE SMOOTH",
"142 358 OFFCURVE",
"103 319 OFFCURVE",
"43 319 CURVE",
"43 303 LINE",
"103 303 OFFCURVE",
"142 264 OFFCURVE",
"142 201 CURVE SMOOTH",
"142 -120 LINE",
"247 -120 LINE",
"247 -138 LINE"
);
}
);
width = 315;
}
);
rightKerningGroup = bracketleft;
unicode = 007B;
},
{
glyphname = braceright;
layers = (
{
layerId = "4CAE8106-A471-4E77-8FE8-6CA20233BBD2";
name = Light;
paths = (
{
closed = 1;
nodes = (
"168 760 LINE SMOOTH",
"185 760 OFFCURVE",
"193 751 OFFCURVE",
"193 734 CURVE SMOOTH",
"193 421 LINE SMOOTH",
"193 361 OFFCURVE",
"230 335 OFFCURVE",
"290 335 CURVE",
"290 287 LINE",
"230 287 OFFCURVE",
"193 261 OFFCURVE",
"193 201 CURVE SMOOTH",
"193 -112 LINE SMOOTH",
"193 -129 OFFCURVE",
"185 -138 OFFCURVE",
"168 -138 CURVE SMOOTH",
"68 -138 LINE",
"68 -120 LINE",
"173 -120 LINE",
"173 201 LINE SMOOTH",
"173 264 OFFCURVE",
"212 303 OFFCURVE",
"272 303 CURVE",
"272 319 LINE",
"212 319 OFFCURVE",
"173 358 OFFCURVE",
"173 421 CURVE SMOOTH",
"173 742 LINE",
"68 742 LINE",
"68 760 LINE"
);
}
);
width = 315;
}
);
leftKerningGroup = bracketright;
unicode = 007D;
},
{
glyphname = slash;
layers = (
{
layerId = "4CAE8106-A471-4E77-8FE8-6CA20233BBD2";
name = Light;
paths = (
{
closed = 1;
nodes = (
"13 -151 LINE",
"251 740 LINE",
"271 740 LINE",
"33 -151 LINE"
);
}
);
width = 313;
}
);
leftKerningGroup = slash;
rightKerningGroup = slash;
unicode = 002F;
},
{
glyphname = backslash;
layers = (
{
layerId = "4CAE8106-A471-4E77-8FE8-6CA20233BBD2";
name = Light;
paths = (
{
closed = 1;
nodes = (
"274 -151 LINE",
"41 740 LINE",
"61 740 LINE",
"294 -151 LINE"
);
}
);
width = 313;
}
);
unicode = 005C;
},
{
glyphname = fraction;
layers = (
{
layerId = "4CAE8106-A471-4E77-8FE8-6CA20233BBD2";
name = Light;
paths = (
{
closed = 1;
nodes = (
"-160 0 LINE",
"287 698 LINE",
"309 698 LINE",
"-138 0 LINE"
);
}
);
width = 147;
}
);
unicode = 2044;
},
{
glyphname = percent;
layers = (
{
layerId = "4CAE8106-A471-4E77-8FE8-6CA20233BBD2";
name = Light;
paths = (
{
closed = 1;
nodes = (
"187 0 LINE",
"671 698 LINE",
"694 698 LINE",
"210 0 LINE"
);
},
{
closed = 1;
nodes = (
"178 326 OFFCURVE",
"144 339 OFFCURVE",
"118 371 CURVE SMOOTH",
"92 402 OFFCURVE",
"75 450 OFFCURVE",
"75 518 CURVE SMOOTH",
"75 586 OFFCURVE",
"92 634 OFFCURVE",
"118 666 CURVE SMOOTH",
"144 697 OFFCURVE",
"178 710 OFFCURVE",
"217 710 CURVE SMOOTH",
"256 710 OFFCURVE",
"291 697 OFFCURVE",
"317 666 CURVE SMOOTH",
"343 634 OFFCURVE",
"359 586 OFFCURVE",
"359 518 CURVE SMOOTH",
"359 450 OFFCURVE",
"343 402 OFFCURVE",
"317 371 CURVE SMOOTH",
"291 339 OFFCURVE",
"256 326 OFFCURVE",
"217 326 CURVE SMOOTH"
);
},
{
closed = 1;
nodes = (
"248 343 OFFCURVE",
"279 355 OFFCURVE",
"301 380 CURVE SMOOTH",
"323 405 OFFCURVE",
"337 445 OFFCURVE",
"337 502 CURVE SMOOTH",
"337 534 LINE SMOOTH",
"337 591 OFFCURVE",
"323 631 OFFCURVE",
"301 656 CURVE SMOOTH",
"279 681 OFFCURVE",
"248 693 OFFCURVE",
"217 693 CURVE SMOOTH",
"186 693 OFFCURVE",
"156 681 OFFCURVE",
"134 656 CURVE SMOOTH",
"112 631 OFFCURVE",
"97 591 OFFCURVE",
"97 534 CURVE SMOOTH",
"97 502 LINE SMOOTH",
"97 445 OFFCURVE",
"112 405 OFFCURVE",
"134 380 CURVE SMOOTH",
"156 355 OFFCURVE",
"186 343 OFFCURVE",
"217 343 CURVE SMOOTH"
);
},
{
closed = 1;
nodes = (
"626 -12 OFFCURVE",
"592 1 OFFCURVE",
"566 33 CURVE SMOOTH",
"540 64 OFFCURVE",
"523 112 OFFCURVE",
"523 180 CURVE SMOOTH",
"523 248 OFFCURVE",
"540 296 OFFCURVE",
"566 328 CURVE SMOOTH",
"592 359 OFFCURVE",
"626 372 OFFCURVE",
"665 372 CURVE SMOOTH",
"704 372 OFFCURVE",
"739 359 OFFCURVE",
"765 328 CURVE SMOOTH",
"791 296 OFFCURVE",
"807 248 OFFCURVE",
"807 180 CURVE SMOOTH",
"807 112 OFFCURVE",
"791 64 OFFCURVE",
"765 33 CURVE SMOOTH",
"739 1 OFFCURVE",
"704 -12 OFFCURVE",
"665 -12 CURVE SMOOTH"
);
},
{
closed = 1;
nodes = (
"696 5 OFFCURVE",
"727 17 OFFCURVE",
"749 42 CURVE SMOOTH",
"771 67 OFFCURVE",
"785 107 OFFCURVE",
"785 164 CURVE SMOOTH",
"785 196 LINE SMOOTH",
"785 253 OFFCURVE",
"771 293 OFFCURVE",
"749 318 CURVE SMOOTH",
"727 343 OFFCURVE",
"696 355 OFFCURVE",
"665 355 CURVE SMOOTH",
"634 355 OFFCURVE",
"604 343 OFFCURVE",
"582 318 CURVE SMOOTH",
"560 293 OFFCURVE",
"545 253 OFFCURVE",
"545 196 CURVE SMOOTH",
"545 164 LINE SMOOTH",
"545 107 OFFCURVE",
"560 67 OFFCURVE",
"582 42 CURVE SMOOTH",
"604 17 OFFCURVE",
"634 5 OFFCURVE",
"665 5 CURVE SMOOTH"
);
}
);
width = 882;
}
);
rightKerningGroup = percent;
unicode = 0025;
},
{
glyphname = perthousand;
layers = (
{
layerId = "4CAE8106-A471-4E77-8FE8-6CA20233BBD2";
name = Light;
paths = (
{
closed = 1;
nodes = (
"187 0 LINE",
"671 698 LINE",
"694 698 LINE",
"210 0 LINE"
);
},
{
closed = 1;
nodes = (
"178 326 OFFCURVE",
"144 339 OFFCURVE",
"118 371 CURVE SMOOTH",
"92 402 OFFCURVE",
"75 450 OFFCURVE",
"75 518 CURVE SMOOTH",
"75 586 OFFCURVE",
"92 634 OFFCURVE",
"118 666 CURVE SMOOTH",
"144 697 OFFCURVE",
"178 710 OFFCURVE",
"217 710 CURVE SMOOTH",
"256 710 OFFCURVE",
"291 697 OFFCURVE",
"317 666 CURVE SMOOTH",
"343 634 OFFCURVE",
"359 586 OFFCURVE",
"359 518 CURVE SMOOTH",
"359 450 OFFCURVE",
"343 402 OFFCURVE",
"317 371 CURVE SMOOTH",
"291 339 OFFCURVE",
"256 326 OFFCURVE",
"217 326 CURVE SMOOTH"
);
},
{
closed = 1;
nodes = (
"248 343 OFFCURVE",
"279 355 OFFCURVE",
"301 380 CURVE SMOOTH",
"323 405 OFFCURVE",
"337 445 OFFCURVE",
"337 502 CURVE SMOOTH",
"337 534 LINE SMOOTH",
"337 591 OFFCURVE",
"323 631 OFFCURVE",
"301 656 CURVE SMOOTH",
"279 681 OFFCURVE",
"248 693 OFFCURVE",
"217 693 CURVE SMOOTH",
"186 693 OFFCURVE",
"156 681 OFFCURVE",
"134 656 CURVE SMOOTH",
"112 631 OFFCURVE",
"97 591 OFFCURVE",
"97 534 CURVE SMOOTH",
"97 502 LINE SMOOTH",
"97 445 OFFCURVE",
"112 405 OFFCURVE",
"134 380 CURVE SMOOTH",
"156 355 OFFCURVE",
"186 343 OFFCURVE",
"217 343 CURVE SMOOTH"
);
},
{
closed = 1;
nodes = (
"626 -12 OFFCURVE",
"592 1 OFFCURVE",
"566 33 CURVE SMOOTH",
"540 64 OFFCURVE",
"523 112 OFFCURVE",
"523 180 CURVE SMOOTH",
"523 248 OFFCURVE",
"540 296 OFFCURVE",
"566 328 CURVE SMOOTH",
"592 359 OFFCURVE",
"626 372 OFFCURVE",
"665 372 CURVE SMOOTH",
"704 372 OFFCURVE",
"739 359 OFFCURVE",
"765 328 CURVE SMOOTH",
"791 296 OFFCURVE",
"807 248 OFFCURVE",
"807 180 CURVE SMOOTH",
"807 112 OFFCURVE",
"791 64 OFFCURVE",
"765 33 CURVE SMOOTH",
"739 1 OFFCURVE",
"704 -12 OFFCURVE",
"665 -12 CURVE SMOOTH"
);
},
{
closed = 1;
nodes = (
"696 5 OFFCURVE",
"727 17 OFFCURVE",
"749 42 CURVE SMOOTH",
"771 67 OFFCURVE",
"785 107 OFFCURVE",
"785 164 CURVE SMOOTH",
"785 196 LINE SMOOTH",
"785 253 OFFCURVE",
"771 293 OFFCURVE",
"749 318 CURVE SMOOTH",
"727 343 OFFCURVE",
"696 355 OFFCURVE",
"665 355 CURVE SMOOTH",
"634 355 OFFCURVE",
"604 343 OFFCURVE",
"582 318 CURVE SMOOTH",
"560 293 OFFCURVE",
"545 253 OFFCURVE",
"545 196 CURVE SMOOTH",
"545 164 LINE SMOOTH",
"545 107 OFFCURVE",
"560 67 OFFCURVE",
"582 42 CURVE SMOOTH",
"604 17 OFFCURVE",
"634 5 OFFCURVE",
"665 5 CURVE SMOOTH"
);
},
{
closed = 1;
nodes = (
"984 -12 OFFCURVE",
"950 1 OFFCURVE",
"924 33 CURVE SMOOTH",
"898 64 OFFCURVE",
"881 112 OFFCURVE",
"881 180 CURVE SMOOTH",
"881 248 OFFCURVE",
"898 296 OFFCURVE",
"924 328 CURVE SMOOTH",
"950 359 OFFCURVE",
"984 372 OFFCURVE",
"1023 372 CURVE SMOOTH",
"1062 372 OFFCURVE",
"1097 359 OFFCURVE",
"1123 328 CURVE SMOOTH",
"1149 296 OFFCURVE",
"1165 248 OFFCURVE",
"1165 180 CURVE SMOOTH",
"1165 112 OFFCURVE",
"1149 64 OFFCURVE",
"1123 33 CURVE SMOOTH",
"1097 1 OFFCURVE",
"1062 -12 OFFCURVE",
"1023 -12 CURVE SMOOTH"
);
},
{
closed = 1;
nodes = (
"1054 5 OFFCURVE",
"1085 17 OFFCURVE",
"1107 42 CURVE SMOOTH",
"1129 67 OFFCURVE",
"1143 107 OFFCURVE",
"1143 164 CURVE SMOOTH",
"1143 196 LINE SMOOTH",
"1143 253 OFFCURVE",
"1129 293 OFFCURVE",
"1107 318 CURVE SMOOTH",
"1085 343 OFFCURVE",
"1054 355 OFFCURVE",
"1023 355 CURVE SMOOTH",
"992 355 OFFCURVE",
"962 343 OFFCURVE",
"940 318 CURVE SMOOTH",
"918 293 OFFCURVE",
"903 253 OFFCURVE",
"903 196 CURVE SMOOTH",
"903 164 LINE SMOOTH",
"903 107 OFFCURVE",
"918 67 OFFCURVE",
"940 42 CURVE SMOOTH",
"962 17 OFFCURVE",
"992 5 OFFCURVE",
"1023 5 CURVE SMOOTH"
);
}
);
width = 1240;
}
);
rightKerningGroup = perthousand;
unicode = 2030;
},
{
glyphname = bar;
layers = (
{
layerId = "4CAE8106-A471-4E77-8FE8-6CA20233BBD2";
name = Light;
paths = (
{
closed = 1;
nodes = (
"108 -138 LINE",
"108 760 LINE",
"128 760 LINE",
"128 -138 LINE"
);
}
);
width = 236;
}
);
unicode = 007C;
},
{
glyphname = brokenbar;
layers = (
{
layerId = "4CAE8106-A471-4E77-8FE8-6CA20233BBD2";
name = Light;
paths = (
{
closed = 1;
nodes = (
"108 401 LINE",
"108 760 LINE",
"128 760 LINE",
"128 401 LINE"
);
},
{
closed = 1;
nodes = (
"108 -138 LINE",
"108 221 LINE",
"128 221 LINE",
"128 -138 LINE"
);
}
);
width = 236;
}
);
unicode = 00A6;
},
{
glyphname = section;
layers = (
{
layerId = "4CAE8106-A471-4E77-8FE8-6CA20233BBD2";
name = Light;
paths = (
{
closed = 1;
nodes = (
"457 338 OFFCURVE",
"411 374 OFFCURVE",
"326 401 CURVE SMOOTH",
"260 422 LINE SMOOTH",
"244 427 OFFCURVE",
"230 433 OFFCURVE",
"214 440 CURVE",
"149 412 OFFCURVE",
"107 369 OFFCURVE",
"107 297 CURVE SMOOTH",
"107 218 OFFCURVE",
"151 182 OFFCURVE",
"238 155 CURVE SMOOTH",
"304 134 LINE SMOOTH",
"320 129 OFFCURVE",
"334 123 OFFCURVE",
"350 116 CURVE",
"415 144 OFFCURVE",
"457 187 OFFCURVE",
"457 259 CURVE SMOOTH"
);
},
{
closed = 1;
nodes = (
"442 -61 OFFCURVE",
"423 -97 OFFCURVE",
"392 -120 CURVE SMOOTH",
"360 -143 OFFCURVE",
"317 -154 OFFCURVE",
"269 -154 CURVE SMOOTH",
"194 -154 OFFCURVE",
"148 -130 OFFCURVE",
"115 -98 CURVE",
"128 -83 LINE",
"159 -112 OFFCURVE",
"202 -135 OFFCURVE",
"270 -135 CURVE SMOOTH",
"365 -135 OFFCURVE",
"421 -93 OFFCURVE",
"421 -13 CURVE SMOOTH",
"421 24 OFFCURVE",
"407 52 OFFCURVE",
"384 72 CURVE SMOOTH",
"360 92 OFFCURVE",
"329 104 OFFCURVE",
"297 115 CURVE SMOOTH",
"230 137 LINE SMOOTH",
"186 152 OFFCURVE",
"149 169 OFFCURVE",
"125 194 CURVE",
"100 218 OFFCURVE",
"86 251 OFFCURVE",
"86 296 CURVE SMOOTH",
"86 372 OFFCURVE",
"128 419 OFFCURVE",
"196 446 CURVE",
"196 449 LINE",
"149 477 OFFCURVE",
"122 517 OFFCURVE",
"122 569 CURVE SMOOTH",
"122 617 OFFCURVE",
"141 653 OFFCURVE",
"173 676 CURVE SMOOTH",
"204 699 OFFCURVE",
"247 710 OFFCURVE",
"295 710 CURVE SMOOTH",
"370 710 OFFCURVE",
"416 686 OFFCURVE",
"449 654 CURVE",
"436 639 LINE",
"405 668 OFFCURVE",
"362 691 OFFCURVE",
"294 691 CURVE SMOOTH",
"199 691 OFFCURVE",
"143 649 OFFCURVE",
"143 569 CURVE SMOOTH",
"143 530 OFFCURVE",
"157 504 OFFCURVE",
"181 484 CURVE SMOOTH",
"204 464 OFFCURVE",
"235 452 OFFCURVE",
"267 441 CURVE SMOOTH",
"334 419 LINE SMOOTH",
"378 404 OFFCURVE",
"415 387 OFFCURVE",
"440 363 CURVE",
"464 338 OFFCURVE",
"478 305 OFFCURVE",
"478 260 CURVE SMOOTH",
"478 184 OFFCURVE",
"436 137 OFFCURVE",
"368 110 CURVE",
"368 107 LINE",
"415 79 OFFCURVE",
"442 39 OFFCURVE",
"442 -13 CURVE SMOOTH"
);
}
);
width = 564;
}
);
unicode = 00A7;
},
{
glyphname = paragraph;
layers = (
{
layerId = "4CAE8106-A471-4E77-8FE8-6CA20233BBD2";
name = Light;
paths = (
{
closed = 1;
nodes = (
"250 330 LINE",
"195 330 OFFCURVE",
"146 347 OFFCURVE",
"110 379 CURVE SMOOTH",
"74 410 OFFCURVE",
"51 455 OFFCURVE",
"51 514 CURVE SMOOTH",
"51 573 OFFCURVE",
"74 618 OFFCURVE",
"110 650 CURVE SMOOTH",
"146 681 OFFCURVE",
"195 698 OFFCURVE",
"250 698 CURVE SMOOTH",
"493 698 LINE",
"493 680 LINE",
"424 680 LINE",
"424 -149 LINE",
"403 -149 LINE",
"403 680 LINE",
"271 680 LINE",
"271 -149 LINE",
"250 -149 LINE"
);
}
);
width = 591;
}
);
unicode = 00B6;
},
{
glyphname = copyright;
layers = (
{
layerId = "4CAE8106-A471-4E77-8FE8-6CA20233BBD2";
name = Light;
paths = (
{
closed = 1;
nodes = (
"259 -12 OFFCURVE",
"179 23 OFFCURVE",
"123 87 CURVE SMOOTH",
"66 150 OFFCURVE",
"33 240 OFFCURVE",
"33 349 CURVE SMOOTH",
"33 458 OFFCURVE",
"66 548 OFFCURVE",
"123 612 CURVE SMOOTH",
"179 675 OFFCURVE",
"259 710 OFFCURVE",
"354 710 CURVE SMOOTH",
"449 710 OFFCURVE",
"529 675 OFFCURVE",
"586 612 CURVE SMOOTH",
"642 548 OFFCURVE",
"675 458 OFFCURVE",
"675 349 CURVE SMOOTH",
"675 240 OFFCURVE",
"642 150 OFFCURVE",
"586 87 CURVE SMOOTH",
"529 23 OFFCURVE",
"449 -12 OFFCURVE",
"354 -12 CURVE SMOOTH"
);
},
{
closed = 1;
nodes = (
"443 6 OFFCURVE",
"518 41 OFFCURVE",
"571 98 CURVE SMOOTH",
"623 155 OFFCURVE",
"653 235 OFFCURVE",
"653 327 CURVE SMOOTH",
"653 371 LINE SMOOTH",
"653 463 OFFCURVE",
"623 543 OFFCURVE",
"571 600 CURVE SMOOTH",
"518 657 OFFCURVE",
"443 692 OFFCURVE",
"354 692 CURVE SMOOTH",
"263 692 OFFCURVE",
"189 657 OFFCURVE",
"137 600 CURVE SMOOTH",
"85 543 OFFCURVE",
"55 463 OFFCURVE",
"55 371 CURVE SMOOTH",
"55 327 LINE SMOOTH",
"55 235 OFFCURVE",
"85 155 OFFCURVE",
"138 98 CURVE SMOOTH",
"190 41 OFFCURVE",
"265 6 OFFCURVE",
"354 6 CURVE SMOOTH"
);
},
{
closed = 1;
nodes = (
"260 149 OFFCURVE",
"202 217 OFFCURVE",
"202 346 CURVE SMOOTH",
"202 475 OFFCURVE",
"261 543 OFFCURVE",
"353 543 CURVE SMOOTH",
"418 543 OFFCURVE",
"460 509 OFFCURVE",
"476 462 CURVE",
"460 457 LINE",
"443 500 OFFCURVE",
"408 526 OFFCURVE",
"353 526 CURVE SMOOTH",
"273 526 OFFCURVE",
"222 469 OFFCURVE",
"222 356 CURVE SMOOTH",
"222 336 LINE SMOOTH",
"222 219 OFFCURVE",
"273 166 OFFCURVE",
"352 166 CURVE SMOOTH",
"408 166 OFFCURVE",
"446 193 OFFCURVE",
"465 236 CURVE",
"480 229 LINE",
"461 184 OFFCURVE",
"415 149 OFFCURVE",
"351 149 CURVE SMOOTH"
);
}
);
width = 708;
}
);
leftKerningGroup = copyright;
unicode = 00A9;
},
{
glyphname = registered;
layers = (
{
layerId = "4CAE8106-A471-4E77-8FE8-6CA20233BBD2";
name = Light;
paths = (
{
closed = 1;
nodes = (
"176 298 OFFCURVE",
"126 319 OFFCURVE",
"91 355 CURVE SMOOTH",
"56 391 OFFCURVE",
"35 443 OFFCURVE",
"35 504 CURVE SMOOTH",
"35 565 OFFCURVE",
"56 617 OFFCURVE",
"91 653 CURVE SMOOTH",
"126 689 OFFCURVE",
"176 710 OFFCURVE",
"233 710 CURVE SMOOTH",
"290 710 OFFCURVE",
"340 689 OFFCURVE",
"375 653 CURVE SMOOTH",
"410 617 OFFCURVE",
"431 565 OFFCURVE",
"431 504 CURVE SMOOTH",
"431 443 OFFCURVE",
"410 391 OFFCURVE",
"375 355 CURVE SMOOTH",
"340 319 OFFCURVE",
"290 298 OFFCURVE",
"233 298 CURVE SMOOTH"
);
},
{
closed = 1;
nodes = (
"285 314 OFFCURVE",
"329 333 OFFCURVE",
"361 365 CURVE SMOOTH",
"393 397 OFFCURVE",
"412 442 OFFCURVE",
"412 494 CURVE SMOOTH",
"412 514 LINE SMOOTH",
"412 566 OFFCURVE",
"393 611 OFFCURVE",
"361 643 CURVE SMOOTH",
"329 675 OFFCURVE",
"285 694 OFFCURVE",
"233 694 CURVE SMOOTH",
"181 694 OFFCURVE",
"137 675 OFFCURVE",
"105 643 CURVE SMOOTH",
"73 611 OFFCURVE",
"54 566 OFFCURVE",
"54 514 CURVE SMOOTH",
"54 494 LINE SMOOTH",
"54 442 OFFCURVE",
"73 397 OFFCURVE",
"105 365 CURVE SMOOTH",
"137 333 OFFCURVE",
"181 314 OFFCURVE",
"233 314 CURVE SMOOTH"
);
},
{
closed = 1;
nodes = (
"184 397 LINE",
"168 397 LINE",
"168 609 LINE",
"249 609 LINE SMOOTH",
"288 609 OFFCURVE",
"312 591 OFFCURVE",
"312 547 CURVE SMOOTH",
"312 511 OFFCURVE",
"292 490 OFFCURVE",
"264 489 CURVE",
"318 397 LINE",
"299 397 LINE",
"247 488 LINE",
"184 488 LINE"
);
},
{
closed = 1;
nodes = (
"248 503 LINE SMOOTH",
"281 503 OFFCURVE",
"294 514 OFFCURVE",
"294 545 CURVE SMOOTH",
"294 552 LINE SMOOTH",
"294 583 OFFCURVE",
"281 594 OFFCURVE",
"248 594 CURVE SMOOTH",
"184 594 LINE",
"184 503 LINE"
);
}
);
width = 466;
}
);
leftKerningGroup = registered;
rightKerningGroup = registered;
unicode = 00AE;
},
{
glyphname = trademark;
layers = (
{
layerId = "4CAE8106-A471-4E77-8FE8-6CA20233BBD2";
name = Light;
paths = (
{
closed = 1;
nodes = (
"129 430 LINE",
"129 682 LINE",
"23 682 LINE",
"23 698 LINE",
"254 698 LINE",
"254 682 LINE",
"148 682 LINE",
"148 430 LINE"
);
},
{
closed = 1;
nodes = (
"325 430 LINE",
"325 698 LINE",
"348 698 LINE",
"436 529 LINE",
"438 529 LINE",
"527 698 LINE",
"549 698 LINE",
"549 430 LINE",
"532 430 LINE",
"532 670 LINE",
"530 670 LINE",
"437 494 LINE",
"344 670 LINE",
"342 670 LINE",
"342 430 LINE"
);
}
);
width = 638;
}
);
leftKerningGroup = trademark;
rightKerningGroup = trademark;
unicode = 2122;
},
{
glyphname = ordfeminine;
lastChange = "2018-11-02 02:44:12 +0000";
layers = (
{
layerId = "4CAE8106-A471-4E77-8FE8-6CA20233BBD2";
name = Light;
paths = (
{
closed = 1;
nodes = (
"104 710 OFFCURVE",
"69 684 OFFCURVE",
"50 643 CURVE",
"65 635 LINE",
"84 676 OFFCURVE",
"120 693 OFFCURVE",
"164 693 CURVE SMOOTH",
"227 693 OFFCURVE",
"263 664 OFFCURVE",
"263 604 CURVE SMOOTH",
"263 548 LINE",
"167 548 LINE SMOOTH",
"72 548 OFFCURVE",
"40 511 OFFCURVE",
"40 455 CURVE SMOOTH",
"40 402 OFFCURVE",
"77 367 OFFCURVE",
"149 367 CURVE SMOOTH",
"213 367 OFFCURVE",
"246 394 OFFCURVE",
"261 422 CURVE",
"263 422 LINE",
"263 374 LINE",
"282 374 LINE",
"282 607 LINE SMOOTH",
"282 672 OFFCURVE",
"239 710 OFFCURVE",
"164 710 CURVE SMOOTH"
);
},
{
closed = 1;
nodes = (
"263 440 OFFCURVE",
"250 419 OFFCURVE",
"229 405 CURVE SMOOTH",
"208 391 OFFCURVE",
"180 384 OFFCURVE",
"149 384 CURVE SMOOTH",
"96 384 OFFCURVE",
"61 406 OFFCURVE",
"61 449 CURVE SMOOTH",
"61 462 LINE SMOOTH",
"61 505 OFFCURVE",
"89 531 OFFCURVE",
"166 531 CURVE SMOOTH",
"263 531 LINE",
"263 468 LINE SMOOTH"
);
}
);
width = 333;
}
);
unicode = 00AA;
},
{
glyphname = ordmasculine;
layers = (
{
layerId = "4CAE8106-A471-4E77-8FE8-6CA20233BBD2";
name = Light;
paths = (
{
closed = 1;
nodes = (
"95 367 OFFCURVE",
"46 432 OFFCURVE",
"46 540 CURVE SMOOTH",
"46 644 OFFCURVE",
"96 710 OFFCURVE",
"183 710 CURVE SMOOTH",
"270 710 OFFCURVE",
"320 644 OFFCURVE",
"320 540 CURVE SMOOTH",
"320 432 OFFCURVE",
"270 367 OFFCURVE",
"183 367 CURVE SMOOTH"
);
},
{
closed = 1;
nodes = (
"220 384 OFFCURVE",
"250 400 OFFCURVE",
"270 425 CURVE SMOOTH",
"289 450 OFFCURVE",
"299 485 OFFCURVE",
"299 522 CURVE SMOOTH",
"299 556 LINE SMOOTH",
"299 592 OFFCURVE",
"289 627 OFFCURVE",
"270 652 CURVE SMOOTH",
"250 677 OFFCURVE",
"220 693 OFFCURVE",
"183 693 CURVE SMOOTH",
"144 693 OFFCURVE",
"116 677 OFFCURVE",
"97 652 CURVE SMOOTH",
"77 627 OFFCURVE",
"67 592 OFFCURVE",
"67 556 CURVE SMOOTH",
"67 522 LINE SMOOTH",
"67 485 OFFCURVE",
"77 450 OFFCURVE",
"97 425 CURVE SMOOTH",
"116 400 OFFCURVE",
"144 384 OFFCURVE",
"183 384 CURVE SMOOTH"
);
}
);
width = 366;
}
);
unicode = 00BA;
},
{
glyphname = degree;
layers = (
{
layerId = "4CAE8106-A471-4E77-8FE8-6CA20233BBD2";
name = Light;
paths = (
{
closed = 1;
nodes = (
"186 374 OFFCURVE",
"146 393 OFFCURVE",
"117 423 CURVE SMOOTH",
"88 453 OFFCURVE",
"71 494 OFFCURVE",
"71 542 CURVE SMOOTH",
"71 590 OFFCURVE",
"88 632 OFFCURVE",
"117 662 CURVE SMOOTH",
"146 692 OFFCURVE",
"186 710 OFFCURVE",
"233 710 CURVE SMOOTH",
"278 710 OFFCURVE",
"320 692 OFFCURVE",
"349 662 CURVE SMOOTH",
"377 632 OFFCURVE",
"395 590 OFFCURVE",
"395 542 CURVE SMOOTH",
"395 494 OFFCURVE",
"377 453 OFFCURVE",
"349 423 CURVE SMOOTH",
"320 393 OFFCURVE",
"278 374 OFFCURVE",
"233 374 CURVE SMOOTH"
);
},
{
closed = 1;
nodes = (
"276 393 OFFCURVE",
"311 410 OFFCURVE",
"336 437 CURVE SMOOTH",
"360 464 OFFCURVE",
"374 502 OFFCURVE",
"374 542 CURVE SMOOTH",
"374 582 OFFCURVE",
"360 620 OFFCURVE",
"336 647 CURVE SMOOTH",
"311 674 OFFCURVE",
"276 691 OFFCURVE",
"233 691 CURVE SMOOTH",
"190 691 OFFCURVE",
"155 674 OFFCURVE",
"131 647 CURVE SMOOTH",
"106 620 OFFCURVE",
"92 583 OFFCURVE",
"92 542 CURVE SMOOTH",
"92 501 OFFCURVE",
"106 464 OFFCURVE",
"131 437 CURVE",
"155 409 OFFCURVE",
"190 393 OFFCURVE",
"233 393 CURVE SMOOTH"
);
}
);
width = 466;
}
);
unicode = 00B0;
},
{
glyphname = asterisk;
layers = (
{
layerId = "4CAE8106-A471-4E77-8FE8-6CA20233BBD2";
name = Light;
paths = (
{
closed = 1;
nodes = (
"88 436 LINE",
"73 447 LINE",
"168 575 LINE",
"17 621 LINE",
"23 640 LINE",
"173 590 LINE",
"171 747 LINE",
"191 747 LINE",
"189 590 LINE",
"339 640 LINE",
"345 621 LINE",
"194 575 LINE",
"289 447 LINE",
"274 436 LINE",
"181 565 LINE"
);
}
);
width = 362;
}
);
leftKerningGroup = quotesingle;
rightKerningGroup = quotesingle;
unicode = 002A;
},
{
glyphname = dagger;
layers = (
{
layerId = "4CAE8106-A471-4E77-8FE8-6CA20233BBD2";
name = Light;
paths = (
{
closed = 1;
nodes = (
"270 -200 LINE",
"270 487 LINE",
"58 487 LINE",
"58 506 LINE",
"270 506 LINE",
"270 740 LINE",
"291 740 LINE",
"291 506 LINE",
"503 506 LINE",
"503 487 LINE",
"291 487 LINE",
"291 -200 LINE"
);
}
);
width = 561;
}
);
unicode = 2020;
},
{
glyphname = daggerdbl;
layers = (
{
layerId = "4CAE8106-A471-4E77-8FE8-6CA20233BBD2";
name = Light;
paths = (
{
closed = 1;
nodes = (
"270 -200 LINE",
"270 34 LINE",
"58 34 LINE",
"58 53 LINE",
"270 53 LINE",
"270 487 LINE",
"58 487 LINE",
"58 506 LINE",
"270 506 LINE",
"270 740 LINE",
"291 740 LINE",
"291 506 LINE",
"503 506 LINE",
"503 487 LINE",
"291 487 LINE",
"291 53 LINE",
"503 53 LINE",
"503 34 LINE",
"291 34 LINE",
"291 -200 LINE"
);
}
);
width = 561;
}
);
unicode = 2021;
},
{
glyphname = numbersign;
layers = (
{
layerId = "4CAE8106-A471-4E77-8FE8-6CA20233BBD2";
name = Light;
paths = (
{
closed = 1;
nodes = (
"427 220 LINE",
"241 220 LINE",
"203 0 LINE",
"182 0 LINE",
"220 220 LINE",
"70 220 LINE",
"70 239 LINE",
"224 239 LINE",
"261 459 LINE",
"109 459 LINE",
"109 478 LINE",
"264 478 LINE",
"302 698 LINE",
"323 698 LINE",
"285 478 LINE",
"471 478 LINE",
"509 698 LINE",
"530 698 LINE",
"492 478 LINE",
"642 478 LINE",
"642 459 LINE",
"488 459 LINE",
"451 239 LINE",
"603 239 LINE",
"603 220 LINE",
"448 220 LINE",
"410 0 LINE",
"389 0 LINE"
);
},
{
closed = 1;
nodes = (
"430 239 LINE",
"468 459 LINE",
"282 459 LINE",
"244 239 LINE"
);
}
);
width = 712;
}
);
unicode = 0023;
},
{
glyphname = asciicircum;
layers = (
{
layerId = "4CAE8106-A471-4E77-8FE8-6CA20233BBD2";
name = Light;
paths = (
{
closed = 1;
nodes = (
"514 322 LINE",
"301 676 LINE",
"299 676 LINE",
"86 322 LINE",
"68 332 LINE",
"289 698 LINE",
"311 698 LINE",
"532 332 LINE"
);
}
);
width = 600;
}
);
unicode = 005E;
},
{
glyphname = asciitilde;
layers = (
{
layerId = "4CAE8106-A471-4E77-8FE8-6CA20233BBD2";
name = Light;
paths = (
{
closed = 1;
nodes = (
"405 256 OFFCURVE",
"388 258 OFFCURVE",
"368 265 CURVE SMOOTH",
"348 272 OFFCURVE",
"325 280 OFFCURVE",
"294 295 CURVE SMOOTH",
"265 308 OFFCURVE",
"245 318 OFFCURVE",
"227 324 CURVE SMOOTH",
"209 330 OFFCURVE",
"192 332 OFFCURVE",
"175 332 CURVE SMOOTH",
"136 332 OFFCURVE",
"110 321 OFFCURVE",
"78 290 CURVE",
"65 304 LINE",
"100 337 OFFCURVE",
"132 352 OFFCURVE",
"176 352 CURVE SMOOTH",
"195 352 OFFCURVE",
"212 350 OFFCURVE",
"232 343 CURVE SMOOTH",
"252 336 OFFCURVE",
"275 326 OFFCURVE",
"306 313 CURVE SMOOTH",
"335 300 OFFCURVE",
"356 291 OFFCURVE",
"374 285 CURVE SMOOTH",
"392 279 OFFCURVE",
"406 276 OFFCURVE",
"425 276 CURVE SMOOTH",
"464 276 OFFCURVE",
"490 287 OFFCURVE",
"522 318 CURVE",
"535 304 LINE",
"500 271 OFFCURVE",
"468 256 OFFCURVE",
"424 256 CURVE SMOOTH"
);
}
);
width = 600;
}
);
unicode = 007E;
},
{
glyphname = plus;
layers = (
{
layerId = "4CAE8106-A471-4E77-8FE8-6CA20233BBD2";
name = Light;
paths = (
{
closed = 1;
nodes = (
"290 62 LINE",
"290 296 LINE",
"62 296 LINE",
"62 315 LINE",
"290 315 LINE",
"290 549 LINE",
"311 549 LINE",
"311 315 LINE",
"539 315 LINE",
"539 296 LINE",
"311 296 LINE",
"311 62 LINE"
);
}
);
width = 600;
}
);
unicode = 002B;
},
{
glyphname = minus;
layers = (
{
layerId = "4CAE8106-A471-4E77-8FE8-6CA20233BBD2";
name = Light;
paths = (
{
closed = 1;
nodes = (
"62 296 LINE",
"62 315 LINE",
"538 315 LINE",
"538 296 LINE"
);
}
);
width = 600;
}
);
unicode = 2212;
},
{
glyphname = plusminus;
layers = (
{
layerId = "4CAE8106-A471-4E77-8FE8-6CA20233BBD2";
name = Light;
paths = (
{
closed = 1;
nodes = (
"290 115 LINE",
"290 349 LINE",
"62 349 LINE",
"62 368 LINE",
"290 368 LINE",
"290 602 LINE",
"311 602 LINE",
"311 368 LINE",
"539 368 LINE",
"539 349 LINE",
"311 349 LINE",
"311 115 LINE"
);
},
{
closed = 1;
nodes = (
"62 0 LINE",
"62 19 LINE",
"538 19 LINE",
"538 0 LINE"
);
}
);
width = 600;
}
);
unicode = 00B1;
},
{
glyphname = multiply;
layers = (
{
layerId = "4CAE8106-A471-4E77-8FE8-6CA20233BBD2";
name = Light;
paths = (
{
closed = 1;
nodes = (
"300 292 LINE",
"119 110 LINE",
"105 123 LINE",
"287 305 LINE",
"105 487 LINE",
"119 500 LINE",
"300 318 LINE",
"481 500 LINE",
"495 487 LINE",
"313 305 LINE",
"495 123 LINE",
"481 110 LINE"
);
}
);
width = 600;
}
);
unicode = 00D7;
},
{
glyphname = divide;
layers = (
{
layerId = "4CAE8106-A471-4E77-8FE8-6CA20233BBD2";
name = Light;
paths = (
{
closed = 1;
nodes = (
"62 296 LINE",
"62 315 LINE",
"538 315 LINE",
"538 296 LINE"
);
},
{
closed = 1;
nodes = (
"277 81 OFFCURVE",
"266 90 OFFCURVE",
"266 108 CURVE SMOOTH",
"266 116 LINE SMOOTH",
"266 134 OFFCURVE",
"277 143 OFFCURVE",
"300 143 CURVE SMOOTH",
"323 143 OFFCURVE",
"334 134 OFFCURVE",
"334 116 CURVE SMOOTH",
"334 108 LINE SMOOTH",
"334 90 OFFCURVE",
"323 81 OFFCURVE",
"300 81 CURVE SMOOTH"
);
},
{
closed = 1;
nodes = (
"277 468 OFFCURVE",
"266 477 OFFCURVE",
"266 495 CURVE SMOOTH",
"266 503 LINE SMOOTH",
"266 521 OFFCURVE",
"277 530 OFFCURVE",
"300 530 CURVE SMOOTH",
"323 530 OFFCURVE",
"334 521 OFFCURVE",
"334 503 CURVE SMOOTH",
"334 495 LINE SMOOTH",
"334 477 OFFCURVE",
"323 468 OFFCURVE",
"300 468 CURVE SMOOTH"
);
}
);
width = 600;
}
);
unicode = 00F7;
},
{
glyphname = equal;
layers = (
{
layerId = "4CAE8106-A471-4E77-8FE8-6CA20233BBD2";
name = Light;
paths = (
{
closed = 1;
nodes = (
"62 385 LINE",
"62 404 LINE",
"538 404 LINE",
"538 385 LINE"
);
},
{
closed = 1;
nodes = (
"62 207 LINE",
"62 226 LINE",
"538 226 LINE",
"538 207 LINE"
);
}
);
width = 600;
}
);
unicode = 003D;
},
{
glyphname = approxequal;
layers = (
{
layerId = "4CAE8106-A471-4E77-8FE8-6CA20233BBD2";
name = Light;
paths = (
{
closed = 1;
nodes = (
"405 339 OFFCURVE",
"388 341 OFFCURVE",
"368 348 CURVE SMOOTH",
"348 355 OFFCURVE",
"325 363 OFFCURVE",
"294 378 CURVE SMOOTH",
"265 391 OFFCURVE",
"245 401 OFFCURVE",
"227 407 CURVE SMOOTH",
"209 413 OFFCURVE",
"192 415 OFFCURVE",
"175 415 CURVE SMOOTH",
"136 415 OFFCURVE",
"110 404 OFFCURVE",
"78 373 CURVE",
"65 387 LINE",
"100 420 OFFCURVE",
"132 435 OFFCURVE",
"176 435 CURVE SMOOTH",
"195 435 OFFCURVE",
"212 433 OFFCURVE",
"232 426 CURVE SMOOTH",
"252 419 OFFCURVE",
"275 409 OFFCURVE",
"306 396 CURVE SMOOTH",
"335 383 OFFCURVE",
"356 374 OFFCURVE",
"374 368 CURVE SMOOTH",
"392 362 OFFCURVE",
"406 359 OFFCURVE",
"425 359 CURVE SMOOTH",
"464 359 OFFCURVE",
"490 370 OFFCURVE",
"522 401 CURVE",
"535 387 LINE",
"500 354 OFFCURVE",
"468 339 OFFCURVE",
"424 339 CURVE SMOOTH"
);
},
{
closed = 1;
nodes = (
"405 174 OFFCURVE",
"388 176 OFFCURVE",
"368 183 CURVE SMOOTH",
"348 190 OFFCURVE",
"325 198 OFFCURVE",
"294 213 CURVE SMOOTH",
"265 226 OFFCURVE",
"245 236 OFFCURVE",
"227 242 CURVE SMOOTH",
"209 248 OFFCURVE",
"192 250 OFFCURVE",
"175 250 CURVE SMOOTH",
"136 250 OFFCURVE",
"110 239 OFFCURVE",
"78 208 CURVE",
"65 222 LINE",
"100 255 OFFCURVE",
"132 270 OFFCURVE",
"176 270 CURVE SMOOTH",
"195 270 OFFCURVE",
"212 268 OFFCURVE",
"232 261 CURVE SMOOTH",
"252 254 OFFCURVE",
"275 244 OFFCURVE",
"306 231 CURVE SMOOTH",
"335 218 OFFCURVE",
"356 209 OFFCURVE",
"374 203 CURVE SMOOTH",
"392 197 OFFCURVE",
"406 194 OFFCURVE",
"425 194 CURVE SMOOTH",
"464 194 OFFCURVE",
"490 205 OFFCURVE",
"522 236 CURVE",
"535 222 LINE",
"500 189 OFFCURVE",
"468 174 OFFCURVE",
"424 174 CURVE SMOOTH"
);
}
);
width = 600;
}
);
unicode = 2248;
},
{
glyphname = notequal;
layers = (
{
layerId = "4CAE8106-A471-4E77-8FE8-6CA20233BBD2";
name = Light;
paths = (
{
closed = 1;
nodes = (
"160 92 LINE",
"230 207 LINE",
"62 207 LINE",
"62 226 LINE",
"241 226 LINE",
"338 385 LINE",
"62 385 LINE",
"62 404 LINE",
"349 404 LINE",
"419 519 LINE",
"440 519 LINE",
"370 404 LINE",
"538 404 LINE",
"538 385 LINE",
"359 385 LINE",
"262 226 LINE",
"538 226 LINE",
"538 207 LINE",
"251 207 LINE",
"181 92 LINE"
);
}
);
width = 600;
}
);
unicode = 2260;
},
{
glyphname = less;
layers = (
{
layerId = "4CAE8106-A471-4E77-8FE8-6CA20233BBD2";
name = Light;
paths = (
{
closed = 1;
nodes = (
"85 296 LINE",
"85 314 LINE",
"515 572 LINE",
"515 549 LINE",
"108 306 LINE",
"108 304 LINE",
"515 61 LINE",
"515 38 LINE"
);
}
);
width = 600;
}
);
unicode = 003C;
},
{
glyphname = greater;
layers = (
{
layerId = "4CAE8106-A471-4E77-8FE8-6CA20233BBD2";
name = Light;
paths = (
{
closed = 1;
nodes = (
"85 61 LINE",
"492 304 LINE",
"492 306 LINE",
"85 549 LINE",
"85 572 LINE",
"515 314 LINE",
"515 296 LINE",
"85 38 LINE"
);
}
);
width = 600;
}
);
unicode = 003E;
},
{
glyphname = lessequal;
layers = (
{
layerId = "4CAE8106-A471-4E77-8FE8-6CA20233BBD2";
name = Light;
paths = (
{
closed = 1;
nodes = (
"85 0 LINE",
"85 19 LINE",
"515 19 LINE",
"515 0 LINE"
);
},
{
closed = 1;
nodes = (
"515 570 LINE",
"107 346 LINE",
"107 344 LINE",
"515 120 LINE",
"515 98 LINE",
"85 336 LINE",
"85 354 LINE",
"515 592 LINE"
);
}
);
width = 600;
}
);
unicode = 2264;
},
{
glyphname = greaterequal;
layers = (
{
layerId = "4CAE8106-A471-4E77-8FE8-6CA20233BBD2";
name = Light;
paths = (
{
closed = 1;
nodes = (
"85 120 LINE",
"493 344 LINE",
"493 346 LINE",
"85 570 LINE",
"85 592 LINE",
"515 354 LINE",
"515 336 LINE",
"85 98 LINE"
);
},
{
closed = 1;
nodes = (
"85 19 LINE",
"515 19 LINE",
"515 0 LINE",
"85 0 LINE"
);
}
);
width = 600;
}
);
unicode = 2265;
},
{
glyphname = periodcentered;
layers = (
{
layerId = "4CAE8106-A471-4E77-8FE8-6CA20233BBD2";
name = Light;
paths = (
{
closed = 1;
nodes = (
"131 277 OFFCURVE",
"122 285 OFFCURVE",
"122 302 CURVE SMOOTH",
"122 310 LINE SMOOTH",
"122 327 OFFCURVE",
"131 335 OFFCURVE",
"149 335 CURVE SMOOTH",
"167 335 OFFCURVE",
"176 327 OFFCURVE",
"176 310 CURVE SMOOTH",
"176 302 LINE SMOOTH",
"176 285 OFFCURVE",
"167 277 OFFCURVE",
"149 277 CURVE SMOOTH"
);
}
);
width = 298;
}
);
unicode = 00B7;
},
{
glyphname = bullet;
layers = (
{
layerId = "4CAE8106-A471-4E77-8FE8-6CA20233BBD2";
name = Light;
paths = (
{
closed = 1;
nodes = (
"105 218 OFFCURVE",
"82 250 OFFCURVE",
"82 293 CURVE SMOOTH",
"82 315 LINE SMOOTH",
"82 358 OFFCURVE",
"105 390 OFFCURVE",
"168 390 CURVE SMOOTH",
"231 390 OFFCURVE",
"254 358 OFFCURVE",
"254 315 CURVE SMOOTH",
"254 293 LINE SMOOTH",
"254 250 OFFCURVE",
"231 218 OFFCURVE",
"168 218 CURVE SMOOTH"
);
}
);
width = 336;
}
);
unicode = 2022;
},
{
glyphname = lozenge;
layers = (
{
layerId = "4CAE8106-A471-4E77-8FE8-6CA20233BBD2";
name = Light;
paths = (
{
closed = 1;
nodes = (
"289 0 LINE",
"58 349 LINE",
"289 698 LINE",
"311 698 LINE",
"543 349 LINE",
"311 0 LINE"
);
},
{
closed = 1;
nodes = (
"302 20 LINE",
"520 349 LINE",
"302 678 LINE",
"298 678 LINE",
"81 349 LINE",
"298 20 LINE"
);
}
);
width = 600;
}
);
unicode = 25CA;
},
{
glyphname = logicalnot;
layers = (
{
layerId = "4CAE8106-A471-4E77-8FE8-6CA20233BBD2";
name = Light;
paths = (
{
closed = 1;
nodes = (
"501 104 LINE",
"501 296 LINE",
"62 296 LINE",
"62 315 LINE",
"522 315 LINE",
"522 104 LINE"
);
}
);
width = 600;
}
);
unicode = 00AC;
},
{
glyphname = radical;
layers = (
{
layerId = "4CAE8106-A471-4E77-8FE8-6CA20233BBD2";
name = Light;
paths = (
{
closed = 1;
nodes = (
"289 0 LINE",
"149 487 LINE",
"28 487 LINE",
"28 506 LINE",
"165 506 LINE",
"302 27 LINE",
"305 27 LINE",
"514 698 LINE",
"535 698 LINE",
"316 0 LINE"
);
}
);
width = 600;
}
);
unicode = 221A;
},
{
glyphname = integral;
layers = (
{
layerId = "4CAE8106-A471-4E77-8FE8-6CA20233BBD2";
name = Light;
paths = (
{
closed = 1;
nodes = (
"50 -181 LINE",
"167 -181 LINE",
"167 711 LINE SMOOTH",
"167 730 OFFCURVE",
"177 740 OFFCURVE",
"196 740 CURVE SMOOTH",
"305 740 LINE",
"305 721 LINE",
"188 721 LINE",
"188 -171 LINE SMOOTH",
"188 -190 OFFCURVE",
"178 -200 OFFCURVE",
"158 -200 CURVE SMOOTH",
"50 -200 LINE"
);
}
);
width = 355;
}
);
unicode = 222B;
},
{
glyphname = infinity;
layers = (
{
layerId = "4CAE8106-A471-4E77-8FE8-6CA20233BBD2";
name = Light;
paths = (
{
closed = 1;
nodes = (
"83 126 OFFCURVE",
"28 192 OFFCURVE",
"28 305 CURVE SMOOTH",
"28 418 OFFCURVE",
"83 484 OFFCURVE",
"191 484 CURVE SMOOTH",
"231 484 OFFCURVE",
"269 469 OFFCURVE",
"301 442 CURVE SMOOTH",
"332 415 OFFCURVE",
"355 376 OFFCURVE",
"367 328 CURVE",
"370 328 LINE",
"382 376 OFFCURVE",
"405 415 OFFCURVE",
"435 442 CURVE SMOOTH",
"465 469 OFFCURVE",
"502 484 OFFCURVE",
"541 484 CURVE SMOOTH",
"649 484 OFFCURVE",
"704 418 OFFCURVE",
"704 305 CURVE SMOOTH",
"704 192 OFFCURVE",
"649 126 OFFCURVE",
"541 126 CURVE SMOOTH",
"501 126 OFFCURVE",
"462 141 OFFCURVE",
"431 168 CURVE SMOOTH",
"400 195 OFFCURVE",
"377 234 OFFCURVE",
"365 282 CURVE",
"362 282 LINE",
"350 234 OFFCURVE",
"328 195 OFFCURVE",
"298 168 CURVE SMOOTH",
"268 141 OFFCURVE",
"230 126 OFFCURVE",
"191 126 CURVE SMOOTH"
);
},
{
closed = 1;
nodes = (
"260 145 OFFCURVE",
"324 198 OFFCURVE",
"355 305 CURVE",
"324 418 OFFCURVE",
"260 465 OFFCURVE",
"189 465 CURVE SMOOTH",
"109 465 OFFCURVE",
"50 415 OFFCURVE",
"50 323 CURVE SMOOTH",
"50 287 LINE SMOOTH",
"50 195 OFFCURVE",
"109 145 OFFCURVE",
"189 145 CURVE SMOOTH"
);
},
{
closed = 1;
nodes = (
"623 145 OFFCURVE",
"682 195 OFFCURVE",
"682 287 CURVE SMOOTH",
"682 323 LINE SMOOTH",
"682 415 OFFCURVE",
"623 465 OFFCURVE",
"543 465 CURVE SMOOTH",
"472 465 OFFCURVE",
"408 412 OFFCURVE",
"377 305 CURVE",
"408 192 OFFCURVE",
"472 145 OFFCURVE",
"543 145 CURVE SMOOTH"
);
}
);
width = 732;
}
);
unicode = 221E;
},
{
glyphname = uni212E;
layers = (
{
layerId = "4CAE8106-A471-4E77-8FE8-6CA20233BBD2";
name = Light;
paths = (
{
closed = 1;
nodes = (
"96 193 LINE",
"112 141 OFFCURVE",
"144 94 OFFCURVE",
"188 62 CURVE SMOOTH",
"232 29 OFFCURVE",
"286 8 OFFCURVE",
"349 8 CURVE SMOOTH",
"476 8 OFFCURVE",
"551 65 OFFCURVE",
"600 153 CURVE",
"619 143 LINE",
"595 99 OFFCURVE",
"562 60 OFFCURVE",
"517 33 CURVE SMOOTH",
"472 5 OFFCURVE",
"417 -12 OFFCURVE",
"349 -12 CURVE SMOOTH",
"256 -12 OFFCURVE",
"179 27 OFFCURVE",
"126 91 CURVE SMOOTH",
"73 155 OFFCURVE",
"42 245 OFFCURVE",
"42 349 CURVE SMOOTH",
"42 453 OFFCURVE",
"72 543 OFFCURVE",
"125 607 CURVE SMOOTH",
"178 671 OFFCURVE",
"254 710 OFFCURVE",
"346 710 CURVE SMOOTH",
"438 710 OFFCURVE",
"514 671 OFFCURVE",
"567 607 CURVE SMOOTH",
"620 543 OFFCURVE",
"650 453 OFFCURVE",
"650 349 CURVE",
"96 349 LINE"
);
},
{
closed = 1;
nodes = (
"596 369 LINE",
"596 508 LINE",
"580 561 OFFCURVE",
"548 607 OFFCURVE",
"505 639 CURVE SMOOTH",
"462 671 OFFCURVE",
"407 690 OFFCURVE",
"346 690 CURVE SMOOTH",
"283 690 OFFCURVE",
"230 671 OFFCURVE",
"187 639 CURVE SMOOTH",
"144 607 OFFCURVE",
"112 561 OFFCURVE",
"96 508 CURVE",
"96 369 LINE"
);
}
);
width = 692;
}
);
unicode = 212E;
},
{
glyphname = uni2113;
layers = (
{
layerId = "4CAE8106-A471-4E77-8FE8-6CA20233BBD2";
name = Light;
paths = (
{
closed = 1;
nodes = (
"205 -12 OFFCURVE",
"173 5 OFFCURVE",
"153 36 CURVE SMOOTH",
"133 67 OFFCURVE",
"125 111 OFFCURVE",
"125 164 CURVE SMOOTH",
"125 200 LINE",
"100 180 OFFCURVE",
"76 163 OFFCURVE",
"53 150 CURVE",
"43 166 LINE",
"70 182 OFFCURVE",
"98 201 OFFCURVE",
"125 225 CURVE",
"125 572 LINE SMOOTH",
"125 692 OFFCURVE",
"163 752 OFFCURVE",
"238 752 CURVE SMOOTH",
"309 752 OFFCURVE",
"344 705 OFFCURVE",
"344 611 CURVE SMOOTH",
"344 539 OFFCURVE",
"322 465 OFFCURVE",
"286 397 CURVE SMOOTH",
"250 328 OFFCURVE",
"201 263 OFFCURVE",
"146 214 CURVE",
"146 164 LINE SMOOTH",
"146 60 OFFCURVE",
"176 7 OFFCURVE",
"253 7 CURVE SMOOTH",
"292 7 OFFCURVE",
"322 21 OFFCURVE",
"346 42 CURVE SMOOTH",
"370 62 OFFCURVE",
"389 91 OFFCURVE",
"406 122 CURVE",
"424 113 LINE",
"407 82 OFFCURVE",
"387 51 OFFCURVE",
"360 28 CURVE SMOOTH",
"332 4 OFFCURVE",
"298 -12 OFFCURVE",
"253 -12 CURVE SMOOTH"
);
},
{
closed = 1;
nodes = (
"210 733 OFFCURVE",
"187 722 OFFCURVE",
"171 698 CURVE SMOOTH",
"155 673 OFFCURVE",
"146 632 OFFCURVE",
"146 572 CURVE SMOOTH",
"146 239 LINE",
"195 288 OFFCURVE",
"240 348 OFFCURVE",
"272 412 CURVE SMOOTH",
"304 476 OFFCURVE",
"323 543 OFFCURVE",
"323 608 CURVE SMOOTH",
"323 620 LINE SMOOTH",
"323 699 OFFCURVE",
"290 733 OFFCURVE",
"238 733 CURVE SMOOTH"
);
}
);
width = 459;
}
);
unicode = 2113;
},
{
glyphname = uni2116;
layers = (
{
layerId = "4CAE8106-A471-4E77-8FE8-6CA20233BBD2";
name = Light;
paths = (
{
closed = 1;
nodes = (
"740 366 OFFCURVE",
"686 432 OFFCURVE",
"686 540 CURVE SMOOTH",
"686 644 OFFCURVE",
"741 710 OFFCURVE",
"833 710 CURVE SMOOTH",
"925 710 OFFCURVE",
"980 644 OFFCURVE",
"980 540 CURVE SMOOTH",
"980 432 OFFCURVE",
"925 366 OFFCURVE",
"833 366 CURVE SMOOTH"
);
},
{
closed = 1;
nodes = (
"108 0 LINE",
"108 698 LINE",
"140 698 LINE",
"560 27 LINE",
"563 27 LINE",
"563 698 LINE",
"584 698 LINE",
"584 0 LINE",
"552 0 LINE",
"132 671 LINE",
"129 671 LINE",
"129 0 LINE"
);
},
{
closed = 1;
nodes = (
"874 383 OFFCURVE",
"906 399 OFFCURVE",
"927 424 CURVE SMOOTH",
"948 449 OFFCURVE",
"959 483 OFFCURVE",
"959 522 CURVE SMOOTH",
"959 556 LINE SMOOTH",
"959 592 OFFCURVE",
"948 627 OFFCURVE",
"927 652 CURVE SMOOTH",
"906 677 OFFCURVE",
"874 693 OFFCURVE",
"833 693 CURVE SMOOTH",
"792 693 OFFCURVE",
"760 677 OFFCURVE",
"739 652 CURVE SMOOTH",
"718 627 OFFCURVE",
"707 592 OFFCURVE",
"707 556 CURVE SMOOTH",
"707 522 LINE SMOOTH",
"707 483 OFFCURVE",
"718 449 OFFCURVE",
"739 424 CURVE SMOOTH",
"760 399 OFFCURVE",
"792 383 OFFCURVE",
"833 383 CURVE SMOOTH"
);
},
{
closed = 1;
nodes = (
"696 285 LINE",
"696 304 LINE",
"971 304 LINE",
"971 285 LINE"
);
}
);
width = 1010;
}
);
unicode = 2116;
},
{
glyphname = partialdiff;
layers = (
{
layerId = "4CAE8106-A471-4E77-8FE8-6CA20233BBD2";
name = Light;
paths = (
{
closed = 1;
nodes = (
"496 165 OFFCURVE",
"475 100 OFFCURVE",
"438 56 CURVE SMOOTH",
"401 12 OFFCURVE",
"349 -12 OFFCURVE",
"286 -12 CURVE SMOOTH",
"223 -12 OFFCURVE",
"171 11 OFFCURVE",
"134 55 CURVE SMOOTH",
"97 99 OFFCURVE",
"76 163 OFFCURVE",
"76 246 CURVE SMOOTH",
"76 327 OFFCURVE",
"97 392 OFFCURVE",
"134 436 CURVE SMOOTH",
"171 480 OFFCURVE",
"223 504 OFFCURVE",
"286 504 CURVE SMOOTH",
"354 504 OFFCURVE",
"409 475 OFFCURVE",
"444 423 CURVE",
"447 425 LINE",
"424 484 OFFCURVE",
"386 537 OFFCURVE",
"336 582 CURVE SMOOTH",
"286 627 OFFCURVE",
"225 666 OFFCURVE",
"160 698 CURVE",
"199 698 LINE",
"238 677 OFFCURVE",
"284 649 OFFCURVE",
"328 613 CURVE SMOOTH",
"372 577 OFFCURVE",
"414 531 OFFCURVE",
"445 472 CURVE SMOOTH",
"476 412 OFFCURVE",
"496 339 OFFCURVE",
"496 248 CURVE SMOOTH"
);
},
{
closed = 1;
nodes = (
"341 7 OFFCURVE",
"388 28 OFFCURVE",
"421 65 CURVE SMOOTH",
"453 102 OFFCURVE",
"473 156 OFFCURVE",
"473 223 CURVE SMOOTH",
"473 269 LINE SMOOTH",
"473 336 OFFCURVE",
"453 390 OFFCURVE",
"421 427 CURVE SMOOTH",
"388 464 OFFCURVE",
"341 485 OFFCURVE",
"286 485 CURVE SMOOTH",
"231 485 OFFCURVE",
"184 464 OFFCURVE",
"152 427 CURVE SMOOTH",
"119 390 OFFCURVE",
"99 336 OFFCURVE",
"99 269 CURVE SMOOTH",
"99 223 LINE SMOOTH",
"99 156 OFFCURVE",
"119 102 OFFCURVE",
"152 65 CURVE SMOOTH",
"184 28 OFFCURVE",
"231 7 OFFCURVE",
"286 7 CURVE SMOOTH"
);
}
);
width = 576;
}
);
unicode = 2202;
},
{
glyphname = cent;
layers = (
{
layerId = "4CAE8106-A471-4E77-8FE8-6CA20233BBD2";
name = Light;
paths = (
{
closed = 1;
nodes = (
"253 -114 LINE",
"253 -11 LINE",
"130 -4 OFFCURVE",
"60 85 OFFCURVE",
"60 253 CURVE SMOOTH",
"60 421 OFFCURVE",
"130 510 OFFCURVE",
"253 517 CURVE",
"253 620 LINE",
"273 620 LINE",
"273 518 LINE",
"352 517 OFFCURVE",
"404 478 OFFCURVE",
"435 418 CURVE",
"417 409 LINE",
"385 468 OFFCURVE",
"342 499 OFFCURVE",
"273 499 CURVE",
"273 7 LINE",
"349 8 OFFCURVE",
"396 40 OFFCURVE",
"428 95 CURVE",
"444 84 LINE",
"411 27 OFFCURVE",
"358 -12 OFFCURVE",
"273 -12 CURVE",
"273 -114 LINE"
);
},
{
closed = 1;
nodes = (
"83 229 LINE SMOOTH",
"83 100 OFFCURVE",
"144 15 OFFCURVE",
"253 8 CURVE",
"253 498 LINE",
"144 491 OFFCURVE",
"83 406 OFFCURVE",
"83 277 CURVE SMOOTH"
);
}
);
width = 497;
}
);
unicode = 00A2;
},
{
glyphname = Euro;
layers = (
{
layerId = "4CAE8106-A471-4E77-8FE8-6CA20233BBD2";
name = Light;
paths = (
{
closed = 1;
nodes = (
"514 48 OFFCURVE",
"437 -12 OFFCURVE",
"329 -12 CURVE SMOOTH",
"162 -12 OFFCURVE",
"70 108 OFFCURVE",
"70 349 CURVE SMOOTH",
"70 590 OFFCURVE",
"162 710 OFFCURVE",
"329 710 CURVE SMOOTH",
"432 710 OFFCURVE",
"506 652 OFFCURVE",
"545 567 CURVE",
"526 558 LINE",
"490 641 OFFCURVE",
"421 690 OFFCURVE",
"329 690 CURVE SMOOTH",
"198 690 OFFCURVE",
"114 607 OFFCURVE",
"97 435 CURVE",
"360 435 LINE",
"360 416 LINE",
"95 416 LINE",
"94 409 OFFCURVE",
"94 401 OFFCURVE",
"94 394 CURVE SMOOTH",
"94 386 OFFCURVE",
"94 378 OFFCURVE",
"94 370 CURVE SMOOTH",
"94 328 LINE SMOOTH",
"94 311 OFFCURVE",
"95 294 OFFCURVE",
"96 282 CURVE",
"360 282 LINE",
"360 263 LINE",
"97 263 LINE",
"114 91 OFFCURVE",
"200 8 OFFCURVE",
"329 8 CURVE SMOOTH",
"429 8 OFFCURVE",
"496 60 OFFCURVE",
"531 148 CURVE",
"550 140 LINE"
);
}
);
width = 610;
}
);
unicode = 20AC;
},
{
glyphname = florin;
layers = (
{
layerId = "4CAE8106-A471-4E77-8FE8-6CA20233BBD2";
name = Light;
paths = (
{
closed = 1;
nodes = (
"-1 -115 LINE",
"177 -115 LINE",
"219 311 LINE",
"46 311 LINE",
"48 330 LINE",
"221 330 LINE",
"255 669 LINE SMOOTH",
"257 688 OFFCURVE",
"268 698 OFFCURVE",
"288 698 CURVE SMOOTH",
"464 698 LINE",
"462 679 LINE",
"277 679 LINE",
"242 330 LINE",
"452 330 LINE",
"450 311 LINE",
"240 311 LINE",
"199 -105 LINE SMOOTH",
"197 -124 OFFCURVE",
"186 -134 OFFCURVE",
"165 -134 CURVE SMOOTH",
"-3 -134 LINE"
);
}
);
width = 488;
}
);
unicode = 0192;
},
{
glyphname = sterling;
layers = (
{
layerId = "4CAE8106-A471-4E77-8FE8-6CA20233BBD2";
name = Light;
paths = (
{
closed = 1;
nodes = (
"83 0 LINE",
"83 25 LINE",
"139 68 OFFCURVE",
"179 133 OFFCURVE",
"179 220 CURVE SMOOTH",
"179 253 OFFCURVE",
"173 283 OFFCURVE",
"165 311 CURVE",
"70 311 LINE",
"70 331 LINE",
"158 331 LINE",
"153 345 OFFCURVE",
"148 359 OFFCURVE",
"143 373 CURVE SMOOTH",
"132 401 OFFCURVE",
"123 430 OFFCURVE",
"117 461 CURVE SMOOTH",
"114 476 OFFCURVE",
"112 493 OFFCURVE",
"112 510 CURVE SMOOTH",
"112 573 OFFCURVE",
"134 622 OFFCURVE",
"171 657 CURVE SMOOTH",
"208 692 OFFCURVE",
"259 710 OFFCURVE",
"319 710 CURVE SMOOTH",
"404 710 OFFCURVE",
"472 672 OFFCURVE",
"519 592 CURVE",
"500 582 LINE",
"456 658 OFFCURVE",
"396 690 OFFCURVE",
"320 690 CURVE SMOOTH",
"265 690 OFFCURVE",
"218 674 OFFCURVE",
"186 643 CURVE SMOOTH",
"153 611 OFFCURVE",
"134 566 OFFCURVE",
"134 510 CURVE SMOOTH",
"134 476 OFFCURVE",
"139 445 OFFCURVE",
"150 417 CURVE SMOOTH",
"161 388 OFFCURVE",
"171 360 OFFCURVE",
"181 331 CURVE",
"399 331 LINE",
"399 311 LINE",
"187 311 LINE",
"195 283 OFFCURVE",
"201 254 OFFCURVE",
"201 221 CURVE SMOOTH",
"201 141 OFFCURVE",
"168 69 OFFCURVE",
"107 22 CURVE",
"107 20 LINE",
"513 20 LINE",
"513 0 LINE"
);
}
);
width = 579;
}
);
unicode = 00A3;
},
{
glyphname = dollar;
layers = (
{
layerId = "4CAE8106-A471-4E77-8FE8-6CA20233BBD2";
name = Light;
paths = (
{
closed = 1;
nodes = (
"268 -82 LINE",
"268 0 LINE",
"212 1 OFFCURVE",
"168 14 OFFCURVE",
"132 34 CURVE SMOOTH",
"95 54 OFFCURVE",
"66 82 OFFCURVE",
"42 114 CURVE",
"60 127 LINE",
"84 96 OFFCURVE",
"111 70 OFFCURVE",
"144 51 CURVE SMOOTH",
"177 32 OFFCURVE",
"217 21 OFFCURVE",
"268 20 CURVE",
"268 351 LINE",
"237 357 LINE SMOOTH",
"166 370 OFFCURVE",
"122 394 OFFCURVE",
"95 424 CURVE SMOOTH",
"67 454 OFFCURVE",
"58 490 OFFCURVE",
"58 530 CURVE SMOOTH",
"58 643 OFFCURVE",
"141 698 OFFCURVE",
"268 698 CURVE",
"268 780 LINE",
"288 780 LINE",
"288 698 LINE",
"381 694 OFFCURVE",
"441 656 OFFCURVE",
"477 603 CURVE",
"459 590 LINE",
"422 645 OFFCURVE",
"368 674 OFFCURVE",
"288 678 CURVE",
"288 368 LINE",
"312 364 LINE SMOOTH",
"384 352 OFFCURVE",
"429 327 OFFCURVE",
"455 296 CURVE SMOOTH",
"481 264 OFFCURVE",
"489 225 OFFCURVE",
"489 185 CURVE SMOOTH",
"489 65 OFFCURVE",
"413 4 OFFCURVE",
"288 0 CURVE",
"288 -82 LINE"
);
},
{
closed = 1;
nodes = (
"467 241 OFFCURVE",
"447 278 OFFCURVE",
"418 302 CURVE SMOOTH",
"389 326 OFFCURVE",
"347 338 OFFCURVE",
"306 345 CURVE SMOOTH",
"288 348 LINE",
"288 20 LINE",
"404 24 OFFCURVE",
"467 80 OFFCURVE",
"467 184 CURVE SMOOTH"
);
},
{
closed = 1;
nodes = (
"80 478 OFFCURVE",
"99 444 OFFCURVE",
"129 421 CURVE SMOOTH",
"159 397 OFFCURVE",
"199 385 OFFCURVE",
"243 376 CURVE SMOOTH",
"268 371 LINE",
"268 678 LINE",
"149 678 OFFCURVE",
"80 630 OFFCURVE",
"80 530 CURVE SMOOTH"
);
}
);
width = 547;
}
);
unicode = 0024;
},
{
glyphname = yen;
layers = (
{
layerId = "4CAE8106-A471-4E77-8FE8-6CA20233BBD2";
name = Light;
paths = (
{
closed = 1;
nodes = (
"301 168 LINE",
"301 0 LINE",
"279 0 LINE",
"279 168 LINE",
"81 168 LINE",
"81 187 LINE",
"279 187 LINE",
"279 325 LINE",
"81 325 LINE",
"81 344 LINE",
"267 344 LINE",
"48 698 LINE",
"73 698 LINE",
"289 348 LINE",
"292 348 LINE",
"508 698 LINE",
"532 698 LINE",
"313 344 LINE",
"499 344 LINE",
"499 325 LINE",
"301 325 LINE",
"301 187 LINE",
"499 187 LINE",
"499 168 LINE"
);
}
);
width = 580;
}
);
unicode = 00A5;
},
{
glyphname = uni0E3F;
layers = (
{
layerId = "4CAE8106-A471-4E77-8FE8-6CA20233BBD2";
name = Light;
paths = (
{
closed = 1;
nodes = (
"306 -82 LINE",
"286 -82 LINE",
"286 21 LINE",
"108 21 LINE",
"108 677 LINE",
"286 677 LINE",
"286 780 LINE",
"306 780 LINE",
"306 677 LINE",
"350 677 LINE SMOOTH",
"453 677 OFFCURVE",
"508 617 OFFCURVE",
"508 516 CURVE SMOOTH",
"508 433 OFFCURVE",
"472 390 OFFCURVE",
"411 370 CURVE",
"411 368 LINE",
"499 355 OFFCURVE",
"540 290 OFFCURVE",
"540 199 CURVE SMOOTH",
"540 91 OFFCURVE",
"481 21 OFFCURVE",
"366 21 CURVE SMOOTH",
"306 21 LINE"
);
},
{
closed = 1;
nodes = (
"286 376 LINE",
"286 657 LINE",
"130 657 LINE",
"130 376 LINE"
);
},
{
closed = 1;
nodes = (
"306 376 LINE",
"350 376 LINE SMOOTH",
"395 376 OFFCURVE",
"430 391 OFFCURVE",
"452 413 CURVE SMOOTH",
"474 435 OFFCURVE",
"484 464 OFFCURVE",
"484 495 CURVE SMOOTH",
"484 538 LINE SMOOTH",
"484 570 OFFCURVE",
"474 600 OFFCURVE",
"452 622 CURVE SMOOTH",
"430 644 OFFCURVE",
"395 657 OFFCURVE",
"350 657 CURVE SMOOTH",
"306 657 LINE"
);
},
{
closed = 1;
nodes = (
"286 41 LINE",
"286 356 LINE",
"130 356 LINE",
"130 41 LINE"
);
},
{
closed = 1;
nodes = (
"306 41 LINE",
"366 41 LINE SMOOTH",
"418 41 OFFCURVE",
"455 58 OFFCURVE",
"480 83 CURVE SMOOTH",
"504 108 OFFCURVE",
"516 142 OFFCURVE",
"516 177 CURVE SMOOTH",
"516 220 LINE SMOOTH",
"516 255 OFFCURVE",
"504 289 OFFCURVE",
"480 314 CURVE SMOOTH",
"455 339 OFFCURVE",
"418 356 OFFCURVE",
"366 356 CURVE SMOOTH",
"306 356 LINE"
);
}
);
width = 605;
}
);
unicode = 0E3F;
},
{
glyphname = uni20A1;
layers = (
{
layerId = "4CAE8106-A471-4E77-8FE8-6CA20233BBD2";
name = Light;
paths = (
{
closed = 1;
nodes = (
"324 -2 LINE",
"280 -1 OFFCURVE",
"242 8 OFFCURVE",
"211 23 CURVE",
"198 -82 LINE",
"179 -82 LINE",
"193 33 LINE",
"113 82 OFFCURVE",
"70 185 OFFCURVE",
"70 349 CURVE SMOOTH",
"70 562 OFFCURVE",
"143 673 OFFCURVE",
"275 696 CURVE",
"285 780 LINE",
"304 780 LINE",
"294 698 LINE",
"305 699 OFFCURVE",
"317 700 OFFCURVE",
"329 700 CURVE SMOOTH",
"358 700 OFFCURVE",
"384 695 OFFCURVE",
"409 687 CURVE",
"420 780 LINE",
"439 780 LINE",
"427 680 LINE",
"480 656 OFFCURVE",
"520 613 OFFCURVE",
"545 557 CURVE",
"526 548 LINE",
"503 599 OFFCURVE",
"469 636 OFFCURVE",
"424 659 CURVE",
"345 19 LINE",
"437 24 OFFCURVE",
"499 75 OFFCURVE",
"531 158 CURVE",
"550 150 LINE",
"515 62 OFFCURVE",
"443 3 OFFCURVE",
"343 -2 CURVE",
"333 -82 LINE",
"314 -82 LINE"
);
},
{
closed = 1;
nodes = (
"316 680 OFFCURVE",
"303 679 OFFCURVE",
"291 678 CURVE",
"214 44 LINE",
"247 27 OFFCURVE",
"284 18 OFFCURVE",
"326 18 CURVE",
"406 667 LINE",
"381 676 OFFCURVE",
"356 680 OFFCURVE",
"329 680 CURVE SMOOTH"
);
},
{
closed = 1;
nodes = (
"94 328 LINE SMOOTH",
"94 189 OFFCURVE",
"131 102 OFFCURVE",
"196 55 CURVE",
"272 675 LINE",
"160 652 OFFCURVE",
"94 555 OFFCURVE",
"94 370 CURVE SMOOTH"
);
}
);
width = 610;
}
);
unicode = 20A1;
},
{
glyphname = uni20A4;
layers = (
{
layerId = "4CAE8106-A471-4E77-8FE8-6CA20233BBD2";
name = Light;
paths = (
{
closed = 1;
nodes = (
"513 0 LINE",
"83 0 LINE",
"83 25 LINE",
"139 68 OFFCURVE",
"179 134 OFFCURVE",
"179 221 CURVE SMOOTH",
"179 232 OFFCURVE",
"178 240 OFFCURVE",
"177 251 CURVE",
"68 251 LINE",
"68 270 LINE",
"175 270 LINE",
"170 295 OFFCURVE",
"164 319 OFFCURVE",
"155 341 CURVE SMOOTH",
"146 362 OFFCURVE",
"138 385 OFFCURVE",
"130 408 CURVE",
"68 408 LINE",
"68 427 LINE",
"124 427 LINE",
"117 454 OFFCURVE",
"112 479 OFFCURVE",
"112 510 CURVE SMOOTH",
"112 573 OFFCURVE",
"134 622 OFFCURVE",
"171 657 CURVE SMOOTH",
"208 692 OFFCURVE",
"259 710 OFFCURVE",
"319 710 CURVE SMOOTH",
"404 710 OFFCURVE",
"472 672 OFFCURVE",
"519 592 CURVE",
"500 582 LINE",
"456 658 OFFCURVE",
"396 690 OFFCURVE",
"320 690 CURVE SMOOTH",
"265 690 OFFCURVE",
"218 674 OFFCURVE",
"186 643 CURVE SMOOTH",
"153 611 OFFCURVE",
"134 566 OFFCURVE",
"134 510 CURVE SMOOTH",
"134 479 OFFCURVE",
"139 454 OFFCURVE",
"147 427 CURVE",
"419 427 LINE",
"419 408 LINE",
"153 408 LINE",
"161 385 OFFCURVE",
"169 363 OFFCURVE",
"178 341 CURVE SMOOTH",
"187 319 OFFCURVE",
"193 295 OFFCURVE",
"197 270 CURVE",
"419 270 LINE",
"419 251 LINE",
"200 251 LINE",
"200 246 OFFCURVE",
"200 242 OFFCURVE",
"201 237 CURVE",
"201 232 OFFCURVE",
"201 227 OFFCURVE",
"201 222 CURVE SMOOTH",
"201 142 OFFCURVE",
"168 69 OFFCURVE",
"107 22 CURVE",
"107 20 LINE",
"513 20 LINE"
);
}
);
width = 579;
}
);
unicode = 20A4;
},
{
glyphname = uni20A6;
layers = (
{
layerId = "4CAE8106-A471-4E77-8FE8-6CA20233BBD2";
name = Light;
paths = (
{
closed = 1;
nodes = (
"17 437 LINE",
"111 437 LINE",
"111 698 LINE",
"141 698 LINE",
"293 437 LINE",
"534 437 LINE",
"534 698 LINE",
"554 698 LINE",
"554 437 LINE",
"649 437 LINE",
"649 418 LINE",
"554 418 LINE",
"554 280 LINE",
"649 280 LINE",
"649 261 LINE",
"554 261 LINE",
"554 0 LINE",
"524 0 LINE",
"372 261 LINE",
"131 261 LINE",
"131 0 LINE",
"111 0 LINE",
"111 261 LINE",
"16 261 LINE",
"16 280 LINE",
"111 280 LINE",
"111 418 LINE",
"17 418 LINE"
);
},
{
closed = 1;
nodes = (
"361 280 LINE",
"280 418 LINE",
"131 418 LINE",
"131 280 LINE"
);
},
{
closed = 1;
nodes = (
"384 280 LINE",
"534 280 LINE",
"534 418 LINE",
"304 418 LINE"
);
},
{
closed = 1;
nodes = (
"131 437 LINE",
"269 437 LINE",
"134 670 LINE",
"131 670 LINE"
);
},
{
closed = 1;
nodes = (
"534 28 LINE",
"534 261 LINE",
"395 261 LINE",
"531 28 LINE"
);
}
);
width = 665;
}
);
unicode = 20A6;
},
{
glyphname = uni20A8;
layers = (
{
layerId = "4CAE8106-A471-4E77-8FE8-6CA20233BBD2";
name = Light;
paths = (
{
closed = 1;
nodes = (
"679 72 OFFCURVE",
"666 42 OFFCURVE",
"643 22 CURVE SMOOTH",
"619 1 OFFCURVE",
"587 -12 OFFCURVE",
"551 -12 CURVE SMOOTH",
"475 -12 OFFCURVE",
"427 15 OFFCURVE",
"392 79 CURVE SMOOTH",
"252 334 LINE",
"243 333 OFFCURVE",
"233 332 OFFCURVE",
"222 332 CURVE SMOOTH",
"130 332 LINE",
"130 0 LINE",
"108 0 LINE",
"108 698 LINE",
"222 698 LINE SMOOTH",
"343 698 OFFCURVE",
"395 630 OFFCURVE",
"395 515 CURVE SMOOTH",
"395 419 OFFCURVE",
"359 356 OFFCURVE",
"275 337 CURVE",
"409 93 LINE SMOOTH",
"440 37 OFFCURVE",
"482 8 OFFCURVE",
"551 8 CURVE SMOOTH",
"580 8 OFFCURVE",
"607 19 OFFCURVE",
"627 36 CURVE SMOOTH",
"646 53 OFFCURVE",
"657 77 OFFCURVE",
"657 105 CURVE SMOOTH",
"657 126 OFFCURVE",
"654 143 OFFCURVE",
"644 159 CURVE SMOOTH",
"634 174 OFFCURVE",
"617 189 OFFCURVE",
"592 208 CURVE SMOOTH",
"552 238 LINE SMOOTH",
"492 283 OFFCURVE",
"464 318 OFFCURVE",
"464 375 CURVE SMOOTH",
"464 399 OFFCURVE",
"473 423 OFFCURVE",
"490 442 CURVE SMOOTH",
"507 461 OFFCURVE",
"535 473 OFFCURVE",
"572 473 CURVE SMOOTH",
"611 473 OFFCURVE",
"644 461 OFFCURVE",
"670 437 CURVE",
"656 421 LINE",
"633 442 OFFCURVE",
"608 453 OFFCURVE",
"573 453 CURVE SMOOTH",
"514 453 OFFCURVE",
"486 419 OFFCURVE",
"486 375 CURVE SMOOTH",
"486 326 OFFCURVE",
"510 294 OFFCURVE",
"565 254 CURVE SMOOTH",
"605 224 LINE SMOOTH",
"658 184 OFFCURVE",
"679 156 OFFCURVE",
"679 105 CURVE SMOOTH"
);
},
{
closed = 1;
nodes = (
"130 352 LINE",
"222 352 LINE SMOOTH",
"318 352 OFFCURVE",
"371 401 OFFCURVE",
"371 493 CURVE SMOOTH",
"371 537 LINE SMOOTH",
"371 629 OFFCURVE",
"318 678 OFFCURVE",
"222 678 CURVE SMOOTH",
"130 678 LINE"
);
}
);
width = 719;
}
);
unicode = 20A8;
},
{
glyphname = uni20A9;
layers = (
{
layerId = "4CAE8106-A471-4E77-8FE8-6CA20233BBD2";
name = Light;
paths = (
{
closed = 1;
nodes = (
"41 275 LINE",
"157 275 LINE",
"120 413 LINE",
"41 413 LINE",
"41 432 LINE",
"115 432 LINE",
"44 698 LINE",
"67 698 LINE",
"138 432 LINE",
"359 432 LINE",
"434 698 LINE",
"466 698 LINE",
"540 432 LINE",
"763 432 LINE",
"834 698 LINE",
"856 698 LINE",
"785 432 LINE",
"859 432 LINE",
"859 413 LINE",
"780 413 LINE",
"743 275 LINE",
"859 275 LINE",
"859 256 LINE",
"738 256 LINE",
"670 0 LINE",
"640 0 LINE",
"568 256 LINE",
"332 256 LINE",
"260 0 LINE",
"230 0 LINE",
"162 256 LINE",
"41 256 LINE"
);
},
{
closed = 1;
nodes = (
"524 413 LINE",
"375 413 LINE",
"337 275 LINE",
"563 275 LINE"
);
},
{
closed = 1;
nodes = (
"545 413 LINE",
"584 275 LINE",
"721 275 LINE",
"758 413 LINE"
);
},
{
closed = 1;
nodes = (
"179 275 LINE",
"315 275 LINE",
"354 413 LINE",
"143 413 LINE"
);
},
{
closed = 1;
nodes = (
"381 432 LINE",
"519 432 LINE",
"451 674 LINE",
"448 674 LINE"
);
},
{
closed = 1;
nodes = (
"656 30 LINE",
"716 256 LINE",
"589 256 LINE",
"653 30 LINE"
);
},
{
closed = 1;
nodes = (
"247 30 LINE",
"310 256 LINE",
"184 256 LINE",
"244 30 LINE"
);
}
);
width = 900;
}
);
unicode = 20A9;
},
{
glyphname = uni20AA;
layers = (
{
layerId = "4CAE8106-A471-4E77-8FE8-6CA20233BBD2";
name = Light;
paths = (
{
closed = 1;
nodes = (
"284 572 LINE",
"306 572 LINE",
"306 20 LINE",
"527 20 LINE SMOOTH",
"555 20 OFFCURVE",
"583 28 OFFCURVE",
"603 49 CURVE SMOOTH",
"623 69 OFFCURVE",
"636 104 OFFCURVE",
"636 156 CURVE SMOOTH",
"636 698 LINE",
"658 698 LINE",
"658 156 LINE SMOOTH",
"658 49 OFFCURVE",
"611 0 OFFCURVE",
"527 0 CURVE SMOOTH",
"284 0 LINE"
);
},
{
closed = 1;
nodes = (
"108 0 LINE",
"108 698 LINE",
"341 698 LINE SMOOTH",
"425 698 OFFCURVE",
"482 649 OFFCURVE",
"482 542 CURVE SMOOTH",
"482 126 LINE",
"460 126 LINE",
"460 542 LINE SMOOTH",
"460 594 OFFCURVE",
"445 629 OFFCURVE",
"422 650 CURVE SMOOTH",
"399 670 OFFCURVE",
"369 678 OFFCURVE",
"341 678 CURVE SMOOTH",
"130 678 LINE",
"130 0 LINE"
);
}
);
width = 766;
}
);
unicode = 20AA;
},
{
glyphname = uni20AB;
layers = (
{
layerId = "4CAE8106-A471-4E77-8FE8-6CA20233BBD2";
name = Light;
paths = (
{
closed = 1;
nodes = (
"429 183 LINE",
"426 183 LINE",
"417 162 OFFCURVE",
"399 141 OFFCURVE",
"373 125 CURVE SMOOTH",
"347 109 OFFCURVE",
"312 98 OFFCURVE",
"269 98 CURVE SMOOTH",
"142 98 OFFCURVE",
"69 174 OFFCURVE",
"69 323 CURVE SMOOTH",
"69 472 OFFCURVE",
"142 548 OFFCURVE",
"269 548 CURVE SMOOTH",
"312 548 OFFCURVE",
"347 537 OFFCURVE",
"373 521 CURVE SMOOTH",
"399 505 OFFCURVE",
"417 483 OFFCURVE",
"426 462 CURVE",
"429 462 LINE",
"429 645 LINE",
"264 645 LINE",
"264 664 LINE",
"429 664 LINE",
"429 740 LINE",
"450 740 LINE",
"450 664 LINE",
"522 664 LINE",
"522 645 LINE",
"450 645 LINE",
"450 110 LINE",
"429 110 LINE"
);
},
{
closed = 1;
nodes = (
"312 117 OFFCURVE",
"353 130 OFFCURVE",
"382 153 CURVE SMOOTH",
"410 176 OFFCURVE",
"429 209 OFFCURVE",
"429 248 CURVE SMOOTH",
"429 397 LINE SMOOTH",
"429 437 OFFCURVE",
"410 469 OFFCURVE",
"382 493 CURVE",
"353 516 OFFCURVE",
"312 529 OFFCURVE",
"271 529 CURVE SMOOTH",
"158 529 OFFCURVE",
"92 460 OFFCURVE",
"92 348 CURVE SMOOTH",
"92 298 LINE SMOOTH",
"92 186 OFFCURVE",
"158 117 OFFCURVE",
"271 117 CURVE SMOOTH"
);
},
{
closed = 1;
nodes = (
"69 0 LINE",
"69 20 LINE",
"485 20 LINE",
"485 0 LINE"
);
}
);
width = 562;
}
);
unicode = 20AB;
},
{
glyphname = uni20AD;
layers = (
{
layerId = "4CAE8106-A471-4E77-8FE8-6CA20233BBD2";
name = Light;
paths = (
{
closed = 1;
nodes = (
"133 0 LINE",
"111 0 LINE",
"111 358 LINE",
"16 358 LINE",
"16 378 LINE",
"111 378 LINE",
"111 698 LINE",
"133 698 LINE",
"133 378 LINE",
"229 378 LINE",
"494 698 LINE",
"520 698 LINE",
"256 378 LINE",
"507 378 LINE",
"507 358 LINE",
"257 358 LINE",
"536 0 LINE",
"510 0 LINE",
"229 358 LINE",
"133 358 LINE"
);
}
);
width = 569;
}
);
unicode = 20AD;
},
{
glyphname = uni20AE;
layers = (
{
layerId = "4CAE8106-A471-4E77-8FE8-6CA20233BBD2";
name = Light;
paths = (
{
closed = 1;
nodes = (
"301 253 LINE",
"301 0 LINE",
"279 0 LINE",
"279 244 LINE",
"123 168 LINE",
"123 189 LINE",
"279 265 LINE",
"279 393 LINE",
"123 317 LINE",
"123 338 LINE",
"279 414 LINE",
"279 678 LINE",
"27 678 LINE",
"27 698 LINE",
"553 698 LINE",
"553 678 LINE",
"301 678 LINE",
"301 423 LINE",
"457 499 LINE",
"457 478 LINE",
"301 402 LINE",
"301 274 LINE",
"457 350 LINE",
"457 329 LINE"
);
}
);
width = 580;
}
);
unicode = 20AE;
},
{
glyphname = uni20B1;
layers = (
{
layerId = "4CAE8106-A471-4E77-8FE8-6CA20233BBD2";
name = Light;
paths = (
{
closed = 1;
nodes = (
"133 0 LINE",
"111 0 LINE",
"111 393 LINE",
"16 393 LINE",
"16 412 LINE",
"111 412 LINE",
"111 543 LINE",
"16 543 LINE",
"16 562 LINE",
"111 562 LINE",
"111 698 LINE",
"335 698 LINE SMOOTH",
"431 698 OFFCURVE",
"488 646 OFFCURVE",
"504 562 CURVE",
"591 562 LINE",
"591 543 LINE",
"506 543 LINE",
"506 477 LINE",
"506 412 LINE",
"591 412 LINE",
"591 393 LINE",
"504 393 LINE",
"488 309 OFFCURVE",
"431 257 OFFCURVE",
"335 257 CURVE SMOOTH",
"133 257 LINE"
);
},
{
closed = 1;
nodes = (
"133 562 LINE",
"482 562 LINE",
"477 594 OFFCURVE",
"462 623 OFFCURVE",
"438 644 CURVE",
"413 664 OFFCURVE",
"379 678 OFFCURVE",
"335 678 CURVE SMOOTH",
"133 678 LINE"
);
},
{
closed = 1;
nodes = (
"484 412 LINE",
"484 543 LINE",
"133 543 LINE",
"133 412 LINE"
);
},
{
closed = 1;
nodes = (
"335 277 LINE SMOOTH",
"379 277 OFFCURVE",
"413 291 OFFCURVE",
"438 312 CURVE SMOOTH",
"462 332 OFFCURVE",
"477 361 OFFCURVE",
"482 393 CURVE",
"133 393 LINE",
"133 277 LINE"
);
}
);
width = 607;
}
);
unicode = 20B1;
},
{
glyphname = uni20B2;
layers = (
{
layerId = "4CAE8106-A471-4E77-8FE8-6CA20233BBD2";
name = Light;
paths = (
{
closed = 1;
nodes = (
"252 -82 LINE",
"267 4 LINE",
"139 32 OFFCURVE",
"70 146 OFFCURVE",
"70 349 CURVE SMOOTH",
"70 584 OFFCURVE",
"162 700 OFFCURVE",
"330 700 CURVE SMOOTH",
"345 700 OFFCURVE",
"359 699 OFFCURVE",
"372 697 CURVE",
"386 780 LINE",
"407 780 LINE",
"393 693 LINE",
"465 676 OFFCURVE",
"521 629 OFFCURVE",
"549 565 CURVE",
"530 556 LINE",
"503 616 OFFCURVE",
"454 657 OFFCURVE",
"390 673 CURVE",
"338 332 LINE",
"566 332 LINE",
"566 206 LINE SMOOTH",
"566 143 OFFCURVE",
"542 91 OFFCURVE",
"502 55 CURVE SMOOTH",
"461 19 OFFCURVE",
"402 -2 OFFCURVE",
"330 -2 CURVE SMOOTH",
"315 -2 OFFCURVE",
"300 -1 OFFCURVE",
"286 1 CURVE",
"272 -82 LINE"
);
},
{
closed = 1;
nodes = (
"94 328 LINE SMOOTH",
"94 152 OFFCURVE",
"159 51 OFFCURVE",
"271 24 CURVE",
"369 677 LINE",
"357 679 OFFCURVE",
"344 680 OFFCURVE",
"330 680 CURVE SMOOTH",
"182 680 OFFCURVE",
"94 575 OFFCURVE",
"94 370 CURVE SMOOTH"
);
},
{
closed = 1;
nodes = (
"335 313 LINE",
"290 21 LINE",
"303 19 OFFCURVE",
"316 18 OFFCURVE",
"330 18 CURVE SMOOTH",
"387 18 OFFCURVE",
"441 34 OFFCURVE",
"480 66 CURVE SMOOTH",
"519 97 OFFCURVE",
"544 143 OFFCURVE",
"544 206 CURVE SMOOTH",
"544 313 LINE"
);
}
);
width = 644;
}
);
unicode = 20B2;
},
{
glyphname = uni20B4;
layers = (
{
layerId = "4CAE8106-A471-4E77-8FE8-6CA20233BBD2";
name = Light;
paths = (
{
closed = 1;
nodes = (
"192 -12 OFFCURVE",
"115 51 OFFCURVE",
"115 159 CURVE SMOOTH",
"115 208 OFFCURVE",
"134 242 OFFCURVE",
"155 270 CURVE",
"45 270 LINE",
"45 289 LINE",
"172 289 LINE",
"400 427 LINE",
"45 427 LINE",
"45 446 LINE",
"423 446 LINE",
"450 474 OFFCURVE",
"459 505 OFFCURVE",
"459 549 CURVE SMOOTH",
"459 637 OFFCURVE",
"398 690 OFFCURVE",
"301 690 CURVE SMOOTH",
"241 690 OFFCURVE",
"186 668 OFFCURVE",
"130 608 CURVE",
"114 623 LINE",
"170 684 OFFCURVE",
"237 710 OFFCURVE",
"302 710 CURVE SMOOTH",
"355 710 OFFCURVE",
"400 695 OFFCURVE",
"432 667 CURVE SMOOTH",
"464 639 OFFCURVE",
"482 599 OFFCURVE",
"482 548 CURVE SMOOTH",
"482 501 OFFCURVE",
"469 470 OFFCURVE",
"449 446 CURVE",
"555 446 LINE",
"555 427 LINE",
"434 427 LINE",
"206 289 LINE",
"555 289 LINE",
"555 270 LINE",
"182 270 LINE",
"154 239 OFFCURVE",
"138 207 OFFCURVE",
"138 159 CURVE SMOOTH",
"138 63 OFFCURVE",
"201 8 OFFCURVE",
"309 8 CURVE SMOOTH",
"373 8 OFFCURVE",
"436 36 OFFCURVE",
"496 101 CURVE",
"511 86 LINE",
"450 18 OFFCURVE",
"377 -12 OFFCURVE",
"309 -12 CURVE SMOOTH"
);
}
);
width = 618;
}
);
unicode = 20B4;
},
{
glyphname = uni20B5;
layers = (
{
layerId = "4CAE8106-A471-4E77-8FE8-6CA20233BBD2";
name = Light;
paths = (
{
closed = 1;
nodes = (
"242 -82 LINE",
"258 6 LINE",
"137 35 OFFCURVE",
"70 145 OFFCURVE",
"70 349 CURVE SMOOTH",
"70 589 OFFCURVE",
"164 700 OFFCURVE",
"329 700 CURVE SMOOTH",
"341 700 OFFCURVE",
"352 699 OFFCURVE",
"363 698 CURVE",
"376 780 LINE",
"397 780 LINE",
"383 694 LINE",
"459 678 OFFCURVE",
"514 626 OFFCURVE",
"545 557 CURVE",
"526 548 LINE",
"497 615 OFFCURVE",
"447 659 OFFCURVE",
"380 674 CURVE",
"281 22 LINE",
"294 19 OFFCURVE",
"310 18 OFFCURVE",
"329 18 CURVE SMOOTH",
"429 18 OFFCURVE",
"496 70 OFFCURVE",
"531 158 CURVE",
"550 150 LINE",
"514 58 OFFCURVE",
"437 -2 OFFCURVE",
"329 -2 CURVE SMOOTH",
"310 -2 OFFCURVE",
"292 -1 OFFCURVE",
"277 2 CURVE",
"263 -82 LINE"
);
},
{
closed = 1;
nodes = (
"94 328 LINE SMOOTH",
"94 148 OFFCURVE",
"156 53 OFFCURVE",
"261 26 CURVE",
"360 678 LINE",
"349 679 OFFCURVE",
"340 680 OFFCURVE",
"329 680 CURVE SMOOTH",
"182 680 OFFCURVE",
"94 585 OFFCURVE",
"94 370 CURVE SMOOTH"
);
}
);
width = 610;
}
);
unicode = 20B5;
},
{
glyphname = uni20B8;
layers = (
{
layerId = "4CAE8106-A471-4E77-8FE8-6CA20233BBD2";
name = Light;
paths = (
{
closed = 1;
nodes = (
"38 678 LINE",
"38 698 LINE",
"564 698 LINE",
"564 678 LINE"
);
},
{
closed = 1;
nodes = (
"312 529 LINE",
"312 0 LINE",
"290 0 LINE",
"290 529 LINE",
"38 529 LINE",
"38 549 LINE",
"564 549 LINE",
"564 529 LINE"
);
}
);
width = 602;
}
);
unicode = 20B8;
},
{
glyphname = uni20B9;
layers = (
{
layerId = "4CAE8106-A471-4E77-8FE8-6CA20233BBD2";
name = Light;
paths = (
{
closed = 1;
nodes = (
"489 0 LINE",
"244 322 LINE",
"70 322 LINE",
"70 342 LINE",
"293 342 LINE SMOOTH",
"344 342 OFFCURVE",
"382 359 OFFCURVE",
"407 387 CURVE SMOOTH",
"431 414 OFFCURVE",
"443 453 OFFCURVE",
"443 497 CURVE SMOOTH",
"443 509 LINE",
"70 509 LINE",
"70 529 LINE",
"443 529 LINE",
"443 572 OFFCURVE",
"429 608 OFFCURVE",
"405 635 CURVE SMOOTH",
"380 662 OFFCURVE",
"343 678 OFFCURVE",
"295 678 CURVE SMOOTH",
"70 678 LINE",
"70 698 LINE",
"580 698 LINE",
"580 678 LINE",
"373 678 LINE",
"373 676 LINE",
"429 653 OFFCURVE",
"462 605 OFFCURVE",
"466 529 CURVE",
"580 529 LINE",
"580 509 LINE",
"466 509 LINE",
"466 502 LINE SMOOTH",
"466 449 OFFCURVE",
"450 404 OFFCURVE",
"421 372 CURVE SMOOTH",
"392 340 OFFCURVE",
"348 322 OFFCURVE",
"292 322 CURVE SMOOTH",
"269 322 LINE",
"515 0 LINE"
);
}
);
width = 611;
}
);
unicode = 20B9;
},
{
glyphname = uni20BA;
layers = (
{
layerId = "4CAE8106-A471-4E77-8FE8-6CA20233BBD2";
name = Light;
paths = (
{
closed = 1;
nodes = (
"154 304 LINE",
"23 241 LINE",
"23 262 LINE",
"154 325 LINE",
"154 453 LINE",
"23 390 LINE",
"23 411 LINE",
"154 474 LINE",
"154 698 LINE",
"176 698 LINE",
"176 483 LINE",
"384 584 LINE",
"384 563 LINE",
"176 462 LINE",
"176 334 LINE",
"384 435 LINE",
"384 414 LINE",
"176 313 LINE",
"176 20 LINE",
"311 20 LINE SMOOTH",
"383 20 OFFCURVE",
"439 51 OFFCURVE",
"477 103 CURVE SMOOTH",
"515 154 OFFCURVE",
"534 225 OFFCURVE",
"534 305 CURVE",
"556 305 LINE",
"556 218 OFFCURVE",
"534 143 OFFCURVE",
"494 88 CURVE SMOOTH",
"453 33 OFFCURVE",
"391 0 OFFCURVE",
"314 0 CURVE SMOOTH",
"154 0 LINE"
);
}
);
width = 611;
}
);
unicode = 20BA;
},
{
glyphname = uni20BD;
layers = (
{
layerId = "4CAE8106-A471-4E77-8FE8-6CA20233BBD2";
name = Light;
paths = (
{
closed = 1;
nodes = (
"133 173 LINE",
"133 0 LINE",
"111 0 LINE",
"111 173 LINE",
"16 173 LINE",
"16 193 LINE",
"111 193 LINE",
"111 322 LINE",
"16 322 LINE",
"16 342 LINE",
"111 342 LINE",
"111 698 LINE",
"379 698 LINE SMOOTH",
"494 698 OFFCURVE",
"553 625 OFFCURVE",
"553 510 CURVE SMOOTH",
"553 395 OFFCURVE",
"494 322 OFFCURVE",
"379 322 CURVE SMOOTH",
"133 322 LINE",
"133 193 LINE",
"380 193 LINE",
"380 173 LINE"
);
},
{
closed = 1;
nodes = (
"133 342 LINE",
"379 342 LINE SMOOTH",
"431 342 OFFCURVE",
"468 360 OFFCURVE",
"493 387 CURVE SMOOTH",
"517 414 OFFCURVE",
"529 450 OFFCURVE",
"529 489 CURVE SMOOTH",
"529 531 LINE SMOOTH",
"529 568 OFFCURVE",
"517 606 OFFCURVE",
"493 633 CURVE SMOOTH",
"468 660 OFFCURVE",
"431 678 OFFCURVE",
"379 678 CURVE SMOOTH",
"133 678 LINE"
);
}
);
width = 597;
}
);
unicode = 20BD;
},
{
glyphname = uni20BF;
layers = (
{
layerId = "4CAE8106-A471-4E77-8FE8-6CA20233BBD2";
name = Light;
paths = (
{
closed = 1;
nodes = (
"346 21 LINE",
"241 21 LINE",
"241 -82 LINE",
"221 -82 LINE",
"221 21 LINE",
"108 21 LINE",
"108 677 LINE",
"221 677 LINE",
"221 780 LINE",
"241 780 LINE",
"241 677 LINE",
"346 677 LINE",
"346 780 LINE",
"366 780 LINE",
"366 676 LINE",
"455 669 OFFCURVE",
"508 616 OFFCURVE",
"508 516 CURVE SMOOTH",
"508 433 OFFCURVE",
"472 390 OFFCURVE",
"411 370 CURVE",
"411 368 LINE",
"498 355 OFFCURVE",
"540 290 OFFCURVE",
"540 199 CURVE SMOOTH",
"540 91 OFFCURVE",
"481 21 OFFCURVE",
"366 21 CURVE",
"366 -82 LINE",
"346 -82 LINE"
);
},
{
closed = 1;
nodes = (
"130 376 LINE",
"350 376 LINE SMOOTH",
"395 376 OFFCURVE",
"430 391 OFFCURVE",
"452 413 CURVE SMOOTH",
"474 435 OFFCURVE",
"484 464 OFFCURVE",
"484 495 CURVE SMOOTH",
"484 538 LINE SMOOTH",
"484 570 OFFCURVE",
"474 600 OFFCURVE",
"452 622 CURVE SMOOTH",
"430 644 OFFCURVE",
"395 657 OFFCURVE",
"350 657 CURVE SMOOTH",
"130 657 LINE"
);
},
{
closed = 1;
nodes = (
"130 41 LINE",
"366 41 LINE SMOOTH",
"418 41 OFFCURVE",
"455 58 OFFCURVE",
"480 83 CURVE SMOOTH",
"504 108 OFFCURVE",
"516 142 OFFCURVE",
"516 177 CURVE SMOOTH",
"516 220 LINE SMOOTH",
"516 255 OFFCURVE",
"504 289 OFFCURVE",
"480 314 CURVE SMOOTH",
"455 339 OFFCURVE",
"418 356 OFFCURVE",
"366 356 CURVE SMOOTH",
"130 356 LINE"
);
}
);
width = 605;
}
);
unicode = 20BF;
},
{
glyphname = fi;
layers = (
{
layerId = "4CAE8106-A471-4E77-8FE8-6CA20233BBD2";
name = Light;
paths = (
{
closed = 1;
nodes = (
"123 487 LINE",
"30 487 LINE",
"30 506 LINE",
"123 506 LINE",
"123 711 LINE SMOOTH",
"123 730 OFFCURVE",
"133 740 OFFCURVE",
"152 740 CURVE SMOOTH",
"260 740 LINE",
"260 721 LINE",
"144 721 LINE",
"144 506 LINE",
"405 506 LINE",
"405 0 LINE",
"384 0 LINE",
"384 487 LINE",
"144 487 LINE",
"144 0 LINE",
"123 0 LINE"
);
},
{
closed = 1;
nodes = (
"378 673 OFFCURVE",
"372 683 OFFCURVE",
"372 694 CURVE SMOOTH",
"372 701 LINE SMOOTH",
"372 712 OFFCURVE",
"378 722 OFFCURVE",
"395 722 CURVE SMOOTH",
"412 722 OFFCURVE",
"418 712 OFFCURVE",
"418 701 CURVE SMOOTH",
"418 694 LINE SMOOTH",
"418 683 OFFCURVE",
"412 673 OFFCURVE",
"395 673 CURVE SMOOTH"
);
}
);
width = 510;
}
);
leftKerningGroup = f;
rightKerningGroup = i;
unicode = FB01;
},
{
glyphname = fl;
lastChange = "2018-11-02 14:37:09 +0000";
layers = (
{
layerId = "4CAE8106-A471-4E77-8FE8-6CA20233BBD2";
name = Light;
paths = (
{
closed = 1;
nodes = (
"123 487 LINE",
"30 487 LINE",
"30 506 LINE",
"123 506 LINE",
"123 711 LINE SMOOTH",
"123 730 OFFCURVE",
"133 740 OFFCURVE",
"152 740 CURVE SMOOTH",
"260 740 LINE",
"260 721 LINE",
"144 721 LINE",
"144 506 LINE",
"260 506 LINE",
"260 487 LINE",
"144 487 LINE",
"144 0 LINE",
"123 0 LINE"
);
},
{
closed = 1;
nodes = (
"419 0 LINE SMOOTH",
"400 0 OFFCURVE",
"390 10 OFFCURVE",
"390 29 CURVE SMOOTH",
"390 740 LINE",
"411 740 LINE",
"411 19 LINE",
"496 19 LINE",
"496 0 LINE"
);
}
);
width = 536;
}
);
leftKerningGroup = f;
rightKerningGroup = l;
unicode = FB02;
},
{
glyphname = aacute;
lastChange = "2018-11-02 02:05:34 +0000";
layers = (
{
layerId = "4CAE8106-A471-4E77-8FE8-6CA20233BBD2";
name = Light;
paths = (
{
closed = 1;
nodes = (
"232 587 LINE",
"217 597 LINE",
"328 751 LINE",
"347 739 LINE"
);
},
{
closed = 1;
nodes = (
"154 518 OFFCURVE",
"106 477 OFFCURVE",
"78 412 CURVE",
"96 404 LINE",
"124 471 OFFCURVE",
"173 499 OFFCURVE",
"249 499 CURVE SMOOTH",
"344 499 OFFCURVE",
"393 453 OFFCURVE",
"393 349 CURVE SMOOTH",
"393 275 LINE",
"251 275 LINE SMOOTH",
"179 275 OFFCURVE",
"131 259 OFFCURVE",
"102 234 CURVE SMOOTH",
"73 209 OFFCURVE",
"61 171 OFFCURVE",
"61 130 CURVE SMOOTH",
"61 38 OFFCURVE",
"120 -12 OFFCURVE",
"224 -12 CURVE SMOOTH",
"317 -12 OFFCURVE",
"365 29 OFFCURVE",
"390 77 CURVE",
"393 77 LINE",
"393 0 LINE",
"414 0 LINE",
"414 352 LINE SMOOTH",
"414 460 OFFCURVE",
"360 518 OFFCURVE",
"249 518 CURVE SMOOTH"
);
},
{
closed = 1;
nodes = (
"393 101 OFFCURVE",
"373 66 OFFCURVE",
"342 43 CURVE SMOOTH",
"311 19 OFFCURVE",
"269 7 OFFCURVE",
"224 7 CURVE SMOOTH",
"141 7 OFFCURVE",
"84 44 OFFCURVE",
"84 115 CURVE SMOOTH",
"84 145 LINE SMOOTH",
"84 212 OFFCURVE",
"133 257 OFFCURVE",
"252 257 CURVE SMOOTH",
"393 257 LINE",
"393 148 LINE SMOOTH"
);
}
);
width = 509;
}
);
leftKerningGroup = a;
rightKerningGroup = a;
unicode = 00E1;
},
{
glyphname = abreve;
lastChange = "2018-11-02 02:05:36 +0000";
layers = (
{
layerId = "4CAE8106-A471-4E77-8FE8-6CA20233BBD2";
name = Light;
paths = (
{
closed = 1;
nodes = (
"215 606 OFFCURVE",
"192 617 OFFCURVE",
"172 637 CURVE SMOOTH",
"152 657 OFFCURVE",
"137 687 OFFCURVE",
"118 723 CURVE",
"134 730 LINE",
"149 703 LINE SMOOTH",
"166 671 OFFCURVE",
"181 652 OFFCURVE",
"197 641 CURVE",
"212 629 OFFCURVE",
"227 625 OFFCURVE",
"250 625 CURVE SMOOTH",
"271 625 OFFCURVE",
"288 629 OFFCURVE",
"304 641 CURVE SMOOTH",
"319 652 OFFCURVE",
"334 671 OFFCURVE",
"351 703 CURVE SMOOTH",
"366 730 LINE",
"382 723 LINE",
"363 687 OFFCURVE",
"348 657 OFFCURVE",
"328 637 CURVE SMOOTH",
"308 617 OFFCURVE",
"283 606 OFFCURVE",
"250 606 CURVE SMOOTH"
);
},
{
closed = 1;
nodes = (
"154 518 OFFCURVE",
"106 477 OFFCURVE",
"78 412 CURVE",
"96 404 LINE",
"124 471 OFFCURVE",
"173 499 OFFCURVE",
"249 499 CURVE SMOOTH",
"344 499 OFFCURVE",
"393 453 OFFCURVE",
"393 349 CURVE SMOOTH",
"393 275 LINE",
"251 275 LINE SMOOTH",
"179 275 OFFCURVE",
"131 259 OFFCURVE",
"102 234 CURVE SMOOTH",
"73 209 OFFCURVE",
"61 171 OFFCURVE",
"61 130 CURVE SMOOTH",
"61 38 OFFCURVE",
"120 -12 OFFCURVE",
"224 -12 CURVE SMOOTH",
"317 -12 OFFCURVE",
"365 29 OFFCURVE",
"390 77 CURVE",
"393 77 LINE",
"393 0 LINE",
"414 0 LINE",
"414 352 LINE SMOOTH",
"414 460 OFFCURVE",
"360 518 OFFCURVE",
"249 518 CURVE SMOOTH"
);
},
{
closed = 1;
nodes = (
"393 101 OFFCURVE",
"373 66 OFFCURVE",
"342 43 CURVE SMOOTH",
"311 19 OFFCURVE",
"269 7 OFFCURVE",
"224 7 CURVE SMOOTH",
"141 7 OFFCURVE",
"84 44 OFFCURVE",
"84 115 CURVE SMOOTH",
"84 145 LINE SMOOTH",
"84 212 OFFCURVE",
"133 257 OFFCURVE",
"252 257 CURVE SMOOTH",
"393 257 LINE",
"393 148 LINE SMOOTH"
);
}
);
width = 509;
}
);
leftKerningGroup = a;
rightKerningGroup = a;
unicode = 0103;
},
{
glyphname = acircumflex;
lastChange = "2018-11-02 02:05:37 +0000";
layers = (
{
layerId = "4CAE8106-A471-4E77-8FE8-6CA20233BBD2";
name = Light;
paths = (
{
closed = 1;
nodes = (
"262 743 LINE",
"390 610 LINE",
"376 599 LINE",
"250 726 LINE",
"124 599 LINE",
"110 610 LINE",
"238 743 LINE"
);
},
{
closed = 1;
nodes = (
"154 518 OFFCURVE",
"106 477 OFFCURVE",
"78 412 CURVE",
"96 404 LINE",
"124 471 OFFCURVE",
"173 499 OFFCURVE",
"249 499 CURVE SMOOTH",
"344 499 OFFCURVE",
"393 453 OFFCURVE",
"393 349 CURVE SMOOTH",
"393 275 LINE",
"251 275 LINE SMOOTH",
"179 275 OFFCURVE",
"131 259 OFFCURVE",
"102 234 CURVE SMOOTH",
"73 209 OFFCURVE",
"61 171 OFFCURVE",
"61 130 CURVE SMOOTH",
"61 38 OFFCURVE",
"120 -12 OFFCURVE",
"224 -12 CURVE SMOOTH",
"317 -12 OFFCURVE",
"365 29 OFFCURVE",
"390 77 CURVE",
"393 77 LINE",
"393 0 LINE",
"414 0 LINE",
"414 352 LINE SMOOTH",
"414 460 OFFCURVE",
"360 518 OFFCURVE",
"249 518 CURVE SMOOTH"
);
},
{
closed = 1;
nodes = (
"393 101 OFFCURVE",
"373 66 OFFCURVE",
"342 43 CURVE SMOOTH",
"311 19 OFFCURVE",
"269 7 OFFCURVE",
"224 7 CURVE SMOOTH",
"141 7 OFFCURVE",
"84 44 OFFCURVE",
"84 115 CURVE SMOOTH",
"84 145 LINE SMOOTH",
"84 212 OFFCURVE",
"133 257 OFFCURVE",
"252 257 CURVE SMOOTH",
"393 257 LINE",
"393 148 LINE SMOOTH"
);
}
);
width = 509;
}
);
leftKerningGroup = a;
rightKerningGroup = a;
unicode = 00E2;
},
{
glyphname = adieresis;
lastChange = "2018-11-02 02:05:37 +0000";
layers = (
{
layerId = "4CAE8106-A471-4E77-8FE8-6CA20233BBD2";
name = Light;
paths = (
{
closed = 1;
nodes = (
"142 642 OFFCURVE",
"136 652 OFFCURVE",
"136 663 CURVE SMOOTH",
"136 670 LINE SMOOTH",
"136 681 OFFCURVE",
"142 691 OFFCURVE",
"159 691 CURVE SMOOTH",
"176 691 OFFCURVE",
"182 681 OFFCURVE",
"182 670 CURVE SMOOTH",
"182 663 LINE SMOOTH",
"182 652 OFFCURVE",
"176 642 OFFCURVE",
"159 642 CURVE SMOOTH"
);
},
{
closed = 1;
nodes = (
"324 642 OFFCURVE",
"318 652 OFFCURVE",
"318 663 CURVE SMOOTH",
"318 670 LINE SMOOTH",
"318 681 OFFCURVE",
"324 691 OFFCURVE",
"341 691 CURVE SMOOTH",
"358 691 OFFCURVE",
"364 681 OFFCURVE",
"364 670 CURVE SMOOTH",
"364 663 LINE SMOOTH",
"364 652 OFFCURVE",
"358 642 OFFCURVE",
"341 642 CURVE SMOOTH"
);
},
{
closed = 1;
nodes = (
"154 518 OFFCURVE",
"106 477 OFFCURVE",
"78 412 CURVE",
"96 404 LINE",
"124 471 OFFCURVE",
"173 499 OFFCURVE",
"249 499 CURVE SMOOTH",
"344 499 OFFCURVE",
"393 453 OFFCURVE",
"393 349 CURVE SMOOTH",
"393 275 LINE",
"251 275 LINE SMOOTH",
"179 275 OFFCURVE",
"131 259 OFFCURVE",
"102 234 CURVE SMOOTH",
"73 209 OFFCURVE",
"61 171 OFFCURVE",
"61 130 CURVE SMOOTH",
"61 38 OFFCURVE",
"120 -12 OFFCURVE",
"224 -12 CURVE SMOOTH",
"317 -12 OFFCURVE",
"365 29 OFFCURVE",
"390 77 CURVE",
"393 77 LINE",
"393 0 LINE",
"414 0 LINE",
"414 352 LINE SMOOTH",
"414 460 OFFCURVE",
"360 518 OFFCURVE",
"249 518 CURVE SMOOTH"
);
},
{
closed = 1;
nodes = (
"393 101 OFFCURVE",
"373 66 OFFCURVE",
"342 43 CURVE SMOOTH",
"311 19 OFFCURVE",
"269 7 OFFCURVE",
"224 7 CURVE SMOOTH",
"141 7 OFFCURVE",
"84 44 OFFCURVE",
"84 115 CURVE SMOOTH",
"84 145 LINE SMOOTH",
"84 212 OFFCURVE",
"133 257 OFFCURVE",
"252 257 CURVE SMOOTH",
"393 257 LINE",
"393 148 LINE SMOOTH"
);
}
);
width = 509;
}
);
leftKerningGroup = a;
rightKerningGroup = a;
unicode = 00E4;
},
{
glyphname = uni1EA1;
lastChange = "2018-11-02 02:05:38 +0000";
layers = (
{
layerId = "4CAE8106-A471-4E77-8FE8-6CA20233BBD2";
name = Light;
paths = (
{
closed = 1;
nodes = (
"207 -134 OFFCURVE",
"201 -124 OFFCURVE",
"201 -113 CURVE SMOOTH",
"201 -106 LINE SMOOTH",
"201 -95 OFFCURVE",
"207 -85 OFFCURVE",
"224 -85 CURVE SMOOTH",
"241 -85 OFFCURVE",
"247 -95 OFFCURVE",
"247 -106 CURVE SMOOTH",
"247 -113 LINE SMOOTH",
"247 -124 OFFCURVE",
"241 -134 OFFCURVE",
"224 -134 CURVE SMOOTH"
);
},
{
closed = 1;
nodes = (
"154 518 OFFCURVE",
"106 477 OFFCURVE",
"78 412 CURVE",
"96 404 LINE",
"124 471 OFFCURVE",
"173 499 OFFCURVE",
"249 499 CURVE SMOOTH",
"344 499 OFFCURVE",
"393 453 OFFCURVE",
"393 349 CURVE SMOOTH",
"393 275 LINE",
"251 275 LINE SMOOTH",
"179 275 OFFCURVE",
"131 259 OFFCURVE",
"102 234 CURVE SMOOTH",
"73 209 OFFCURVE",
"61 171 OFFCURVE",
"61 130 CURVE SMOOTH",
"61 38 OFFCURVE",
"120 -12 OFFCURVE",
"224 -12 CURVE SMOOTH",
"317 -12 OFFCURVE",
"365 29 OFFCURVE",
"390 77 CURVE",
"393 77 LINE",
"393 0 LINE",
"414 0 LINE",
"414 352 LINE SMOOTH",
"414 460 OFFCURVE",
"360 518 OFFCURVE",
"249 518 CURVE SMOOTH"
);
},
{
closed = 1;
nodes = (
"393 101 OFFCURVE",
"373 66 OFFCURVE",
"342 43 CURVE SMOOTH",
"311 19 OFFCURVE",
"269 7 OFFCURVE",
"224 7 CURVE SMOOTH",
"141 7 OFFCURVE",
"84 44 OFFCURVE",
"84 115 CURVE SMOOTH",
"84 145 LINE SMOOTH",
"84 212 OFFCURVE",
"133 257 OFFCURVE",
"252 257 CURVE SMOOTH",
"393 257 LINE",
"393 148 LINE SMOOTH"
);
}
);
width = 509;
}
);
leftKerningGroup = a;
rightKerningGroup = a;
unicode = 1EA1;
},
{
glyphname = agrave;
lastChange = "2018-11-02 02:05:38 +0000";
layers = (
{
layerId = "4CAE8106-A471-4E77-8FE8-6CA20233BBD2";
name = Light;
paths = (
{
closed = 1;
nodes = (
"152 739 LINE",
"171 751 LINE",
"282 597 LINE",
"267 587 LINE"
);
},
{
closed = 1;
nodes = (
"154 518 OFFCURVE",
"106 477 OFFCURVE",
"78 412 CURVE",
"96 404 LINE",
"124 471 OFFCURVE",
"173 499 OFFCURVE",
"249 499 CURVE SMOOTH",
"344 499 OFFCURVE",
"393 453 OFFCURVE",
"393 349 CURVE SMOOTH",
"393 275 LINE",
"251 275 LINE SMOOTH",
"179 275 OFFCURVE",
"131 259 OFFCURVE",
"102 234 CURVE SMOOTH",
"73 209 OFFCURVE",
"61 171 OFFCURVE",
"61 130 CURVE SMOOTH",
"61 38 OFFCURVE",
"120 -12 OFFCURVE",
"224 -12 CURVE SMOOTH",
"317 -12 OFFCURVE",
"365 29 OFFCURVE",
"390 77 CURVE",
"393 77 LINE",
"393 0 LINE",
"414 0 LINE",
"414 352 LINE SMOOTH",
"414 460 OFFCURVE",
"360 518 OFFCURVE",
"249 518 CURVE SMOOTH"
);
},
{
closed = 1;
nodes = (
"393 101 OFFCURVE",
"373 66 OFFCURVE",
"342 43 CURVE SMOOTH",
"311 19 OFFCURVE",
"269 7 OFFCURVE",
"224 7 CURVE SMOOTH",
"141 7 OFFCURVE",
"84 44 OFFCURVE",
"84 115 CURVE SMOOTH",
"84 145 LINE SMOOTH",
"84 212 OFFCURVE",
"133 257 OFFCURVE",
"252 257 CURVE SMOOTH",
"393 257 LINE",
"393 148 LINE SMOOTH"
);
}
);
width = 509;
}
);
leftKerningGroup = a;
rightKerningGroup = a;
unicode = 00E0;
},
{
glyphname = uni1EA3;
lastChange = "2018-11-02 02:05:39 +0000";
layers = (
{
layerId = "4CAE8106-A471-4E77-8FE8-6CA20233BBD2";
name = Light;
paths = (
{
closed = 1;
nodes = (
"175 737 LINE",
"312 737 LINE SMOOTH",
"327 737 OFFCURVE",
"335 731 OFFCURVE",
"335 719 CURVE SMOOTH",
"335 715 OFFCURVE",
"333 709 OFFCURVE",
"330 702 CURVE",
"326 695 OFFCURVE",
"317 681 OFFCURVE",
"304 661 CURVE SMOOTH",
"255 585 LINE",
"239 593 LINE",
"316 719 LINE",
"175 719 LINE"
);
},
{
closed = 1;
nodes = (
"154 518 OFFCURVE",
"106 477 OFFCURVE",
"78 412 CURVE",
"96 404 LINE",
"124 471 OFFCURVE",
"173 499 OFFCURVE",
"249 499 CURVE SMOOTH",
"344 499 OFFCURVE",
"393 453 OFFCURVE",
"393 349 CURVE SMOOTH",
"393 275 LINE",
"251 275 LINE SMOOTH",
"179 275 OFFCURVE",
"131 259 OFFCURVE",
"102 234 CURVE SMOOTH",
"73 209 OFFCURVE",
"61 171 OFFCURVE",
"61 130 CURVE SMOOTH",
"61 38 OFFCURVE",
"120 -12 OFFCURVE",
"224 -12 CURVE SMOOTH",
"317 -12 OFFCURVE",
"365 29 OFFCURVE",
"390 77 CURVE",
"393 77 LINE",
"393 0 LINE",
"414 0 LINE",
"414 352 LINE SMOOTH",
"414 460 OFFCURVE",
"360 518 OFFCURVE",
"249 518 CURVE SMOOTH"
);
},
{
closed = 1;
nodes = (
"393 101 OFFCURVE",
"373 66 OFFCURVE",
"342 43 CURVE SMOOTH",
"311 19 OFFCURVE",
"269 7 OFFCURVE",
"224 7 CURVE SMOOTH",
"141 7 OFFCURVE",
"84 44 OFFCURVE",
"84 115 CURVE SMOOTH",
"84 145 LINE SMOOTH",
"84 212 OFFCURVE",
"133 257 OFFCURVE",
"252 257 CURVE SMOOTH",
"393 257 LINE",
"393 148 LINE SMOOTH"
);
}
);
width = 509;
}
);
leftKerningGroup = a;
rightKerningGroup = a;
unicode = 1EA3;
},
{
glyphname = amacron;
lastChange = "2018-11-02 02:05:39 +0000";
layers = (
{
layerId = "4CAE8106-A471-4E77-8FE8-6CA20233BBD2";
name = Light;
paths = (
{
closed = 1;
nodes = (
"121 676 LINE",
"379 676 LINE",
"379 658 LINE",
"121 658 LINE"
);
},
{
closed = 1;
nodes = (
"154 518 OFFCURVE",
"106 477 OFFCURVE",
"78 412 CURVE",
"96 404 LINE",
"124 471 OFFCURVE",
"173 499 OFFCURVE",
"249 499 CURVE SMOOTH",
"344 499 OFFCURVE",
"393 453 OFFCURVE",
"393 349 CURVE SMOOTH",
"393 275 LINE",
"251 275 LINE SMOOTH",
"179 275 OFFCURVE",
"131 259 OFFCURVE",
"102 234 CURVE SMOOTH",
"73 209 OFFCURVE",
"61 171 OFFCURVE",
"61 130 CURVE SMOOTH",
"61 38 OFFCURVE",
"120 -12 OFFCURVE",
"224 -12 CURVE SMOOTH",
"317 -12 OFFCURVE",
"365 29 OFFCURVE",
"390 77 CURVE",
"393 77 LINE",
"393 0 LINE",
"414 0 LINE",
"414 352 LINE SMOOTH",
"414 460 OFFCURVE",
"360 518 OFFCURVE",
"249 518 CURVE SMOOTH"
);
},
{
closed = 1;
nodes = (
"393 101 OFFCURVE",
"373 66 OFFCURVE",
"342 43 CURVE SMOOTH",
"311 19 OFFCURVE",
"269 7 OFFCURVE",
"224 7 CURVE SMOOTH",
"141 7 OFFCURVE",
"84 44 OFFCURVE",
"84 115 CURVE SMOOTH",
"84 145 LINE SMOOTH",
"84 212 OFFCURVE",
"133 257 OFFCURVE",
"252 257 CURVE SMOOTH",
"393 257 LINE",
"393 148 LINE SMOOTH"
);
}
);
width = 509;
}
);
leftKerningGroup = a;
rightKerningGroup = a;
unicode = 0101;
},
{
glyphname = aogonek;
lastChange = "2018-11-02 02:31:59 +0000";
layers = (
{
layerId = "4CAE8106-A471-4E77-8FE8-6CA20233BBD2";
name = Light;
paths = (
{
closed = 1;
nodes = (
"433 -171 OFFCURVE",
"416 -184 OFFCURVE",
"384 -184 CURVE SMOOTH",
"349 -184 OFFCURVE",
"325 -167 OFFCURVE",
"325 -130 CURVE SMOOTH",
"325 -85 OFFCURVE",
"355 -55 OFFCURVE",
"414 0 CURVE",
"414 352 LINE SMOOTH",
"414 460 OFFCURVE",
"360 518 OFFCURVE",
"249 518 CURVE SMOOTH",
"154 518 OFFCURVE",
"106 477 OFFCURVE",
"78 412 CURVE",
"96 404 LINE",
"124 471 OFFCURVE",
"173 499 OFFCURVE",
"249 499 CURVE SMOOTH",
"344 499 OFFCURVE",
"393 453 OFFCURVE",
"393 349 CURVE SMOOTH",
"393 275 LINE",
"251 275 LINE SMOOTH",
"179 275 OFFCURVE",
"131 259 OFFCURVE",
"102 234 CURVE SMOOTH",
"73 209 OFFCURVE",
"61 171 OFFCURVE",
"61 130 CURVE SMOOTH",
"61 38 OFFCURVE",
"120 -12 OFFCURVE",
"224 -12 CURVE SMOOTH",
"317 -12 OFFCURVE",
"365 29 OFFCURVE",
"390 77 CURVE",
"393 77 LINE",
"393 0 LINE",
"330 -51 OFFCURVE",
"304 -86 OFFCURVE",
"304 -133 CURVE SMOOTH",
"304 -177 OFFCURVE",
"338 -202 OFFCURVE",
"383 -202 CURVE SMOOTH",
"419 -202 OFFCURVE",
"445 -189 OFFCURVE",
"458 -170 CURVE",
"444 -159 LINE"
);
},
{
closed = 1;
nodes = (
"311 19 OFFCURVE",
"269 7 OFFCURVE",
"224 7 CURVE SMOOTH",
"141 7 OFFCURVE",
"84 44 OFFCURVE",
"84 115 CURVE SMOOTH",
"84 145 LINE SMOOTH",
"84 212 OFFCURVE",
"133 257 OFFCURVE",
"252 257 CURVE SMOOTH",
"393 257 LINE",
"393 148 LINE SMOOTH",
"393 101 OFFCURVE",
"373 66 OFFCURVE",
"342 43 CURVE SMOOTH"
);
}
);
width = 509;
}
);
leftKerningGroup = a;
rightKerningGroup = a;
unicode = 0105;
},
{
glyphname = aring;
lastChange = "2018-11-02 02:05:41 +0000";
layers = (
{
layerId = "4CAE8106-A471-4E77-8FE8-6CA20233BBD2";
name = Light;
paths = (
{
closed = 1;
nodes = (
"195 589 OFFCURVE",
"160 625 OFFCURVE",
"160 680 CURVE SMOOTH",
"160 735 OFFCURVE",
"195 771 OFFCURVE",
"250 771 CURVE SMOOTH",
"305 771 OFFCURVE",
"340 735 OFFCURVE",
"340 680 CURVE SMOOTH",
"340 625 OFFCURVE",
"305 589 OFFCURVE",
"250 589 CURVE SMOOTH"
);
},
{
closed = 1;
nodes = (
"293 607 OFFCURVE",
"320 634 OFFCURVE",
"320 675 CURVE SMOOTH",
"320 685 LINE SMOOTH",
"320 726 OFFCURVE",
"293 753 OFFCURVE",
"250 753 CURVE SMOOTH",
"207 753 OFFCURVE",
"180 726 OFFCURVE",
"180 685 CURVE SMOOTH",
"180 675 LINE SMOOTH",
"180 634 OFFCURVE",
"207 607 OFFCURVE",
"250 607 CURVE SMOOTH"
);
},
{
closed = 1;
nodes = (
"154 518 OFFCURVE",
"106 477 OFFCURVE",
"78 412 CURVE",
"96 404 LINE",
"124 471 OFFCURVE",
"173 499 OFFCURVE",
"249 499 CURVE SMOOTH",
"344 499 OFFCURVE",
"393 453 OFFCURVE",
"393 349 CURVE SMOOTH",
"393 275 LINE",
"251 275 LINE SMOOTH",
"179 275 OFFCURVE",
"131 259 OFFCURVE",
"102 234 CURVE SMOOTH",
"73 209 OFFCURVE",
"61 171 OFFCURVE",
"61 130 CURVE SMOOTH",
"61 38 OFFCURVE",
"120 -12 OFFCURVE",
"224 -12 CURVE SMOOTH",
"317 -12 OFFCURVE",
"365 29 OFFCURVE",
"390 77 CURVE",
"393 77 LINE",
"393 0 LINE",
"414 0 LINE",
"414 352 LINE SMOOTH",
"414 460 OFFCURVE",
"360 518 OFFCURVE",
"249 518 CURVE SMOOTH"
);
},
{
closed = 1;
nodes = (
"393 101 OFFCURVE",
"373 66 OFFCURVE",
"342 43 CURVE SMOOTH",
"311 19 OFFCURVE",
"269 7 OFFCURVE",
"224 7 CURVE SMOOTH",
"141 7 OFFCURVE",
"84 44 OFFCURVE",
"84 115 CURVE SMOOTH",
"84 145 LINE SMOOTH",
"84 212 OFFCURVE",
"133 257 OFFCURVE",
"252 257 CURVE SMOOTH",
"393 257 LINE",
"393 148 LINE SMOOTH"
);
}
);
width = 509;
}
);
leftKerningGroup = a;
rightKerningGroup = a;
unicode = 00E5;
},
{
glyphname = aringacute;
lastChange = "2018-11-02 02:05:41 +0000";
layers = (
{
layerId = "4CAE8106-A471-4E77-8FE8-6CA20233BBD2";
name = Light;
paths = (
{
closed = 1;
nodes = (
"250 799 LINE",
"235 808 LINE",
"315 911 LINE",
"334 898 LINE"
);
},
{
closed = 1;
nodes = (
"195 589 OFFCURVE",
"160 625 OFFCURVE",
"160 680 CURVE SMOOTH",
"160 735 OFFCURVE",
"195 771 OFFCURVE",
"250 771 CURVE SMOOTH",
"305 771 OFFCURVE",
"340 735 OFFCURVE",
"340 680 CURVE SMOOTH",
"340 625 OFFCURVE",
"305 589 OFFCURVE",
"250 589 CURVE SMOOTH"
);
},
{
closed = 1;
nodes = (
"293 607 OFFCURVE",
"320 634 OFFCURVE",
"320 675 CURVE SMOOTH",
"320 685 LINE SMOOTH",
"320 726 OFFCURVE",
"293 753 OFFCURVE",
"250 753 CURVE SMOOTH",
"207 753 OFFCURVE",
"180 726 OFFCURVE",
"180 685 CURVE SMOOTH",
"180 675 LINE SMOOTH",
"180 634 OFFCURVE",
"207 607 OFFCURVE",
"250 607 CURVE SMOOTH"
);
},
{
closed = 1;
nodes = (
"154 518 OFFCURVE",
"106 477 OFFCURVE",
"78 412 CURVE",
"96 404 LINE",
"124 471 OFFCURVE",
"173 499 OFFCURVE",
"249 499 CURVE SMOOTH",
"344 499 OFFCURVE",
"393 453 OFFCURVE",
"393 349 CURVE SMOOTH",
"393 275 LINE",
"251 275 LINE SMOOTH",
"179 275 OFFCURVE",
"131 259 OFFCURVE",
"102 234 CURVE SMOOTH",
"73 209 OFFCURVE",
"61 171 OFFCURVE",
"61 130 CURVE SMOOTH",
"61 38 OFFCURVE",
"120 -12 OFFCURVE",
"224 -12 CURVE SMOOTH",
"317 -12 OFFCURVE",
"365 29 OFFCURVE",
"390 77 CURVE",
"393 77 LINE",
"393 0 LINE",
"414 0 LINE",
"414 352 LINE SMOOTH",
"414 460 OFFCURVE",
"360 518 OFFCURVE",
"249 518 CURVE SMOOTH"
);
},
{
closed = 1;
nodes = (
"393 101 OFFCURVE",
"373 66 OFFCURVE",
"342 43 CURVE SMOOTH",
"311 19 OFFCURVE",
"269 7 OFFCURVE",
"224 7 CURVE SMOOTH",
"141 7 OFFCURVE",
"84 44 OFFCURVE",
"84 115 CURVE SMOOTH",
"84 145 LINE SMOOTH",
"84 212 OFFCURVE",
"133 257 OFFCURVE",
"252 257 CURVE SMOOTH",
"393 257 LINE",
"393 148 LINE SMOOTH"
);
}
);
width = 509;
}
);
leftKerningGroup = a;
rightKerningGroup = a;
unicode = 01FB;
},
{
glyphname = atilde;
lastChange = "2018-11-02 02:05:42 +0000";
layers = (
{
layerId = "4CAE8106-A471-4E77-8FE8-6CA20233BBD2";
name = Light;
paths = (
{
closed = 1;
nodes = (
"298 628 OFFCURVE",
"279 635 OFFCURVE",
"244 658 CURVE SMOOTH",
"215 677 OFFCURVE",
"197 684 OFFCURVE",
"178 684 CURVE SMOOTH",
"155 684 OFFCURVE",
"134 673 OFFCURVE",
"113 651 CURVE",
"101 663 LINE",
"124 689 OFFCURVE",
"150 702 OFFCURVE",
"179 702 CURVE SMOOTH",
"202 702 OFFCURVE",
"221 695 OFFCURVE",
"256 672 CURVE SMOOTH",
"285 653 OFFCURVE",
"303 646 OFFCURVE",
"322 646 CURVE SMOOTH",
"346 646 OFFCURVE",
"366 656 OFFCURVE",
"387 679 CURVE",
"399 667 LINE",
"376 641 OFFCURVE",
"350 628 OFFCURVE",
"321 628 CURVE SMOOTH"
);
},
{
closed = 1;
nodes = (
"154 518 OFFCURVE",
"106 477 OFFCURVE",
"78 412 CURVE",
"96 404 LINE",
"124 471 OFFCURVE",
"173 499 OFFCURVE",
"249 499 CURVE SMOOTH",
"344 499 OFFCURVE",
"393 453 OFFCURVE",
"393 349 CURVE SMOOTH",
"393 275 LINE",
"251 275 LINE SMOOTH",
"179 275 OFFCURVE",
"131 259 OFFCURVE",
"102 234 CURVE SMOOTH",
"73 209 OFFCURVE",
"61 171 OFFCURVE",
"61 130 CURVE SMOOTH",
"61 38 OFFCURVE",
"120 -12 OFFCURVE",
"224 -12 CURVE SMOOTH",
"317 -12 OFFCURVE",
"365 29 OFFCURVE",
"390 77 CURVE",
"393 77 LINE",
"393 0 LINE",
"414 0 LINE",
"414 352 LINE SMOOTH",
"414 460 OFFCURVE",
"360 518 OFFCURVE",
"249 518 CURVE SMOOTH"
);
},
{
closed = 1;
nodes = (
"393 101 OFFCURVE",
"373 66 OFFCURVE",
"342 43 CURVE SMOOTH",
"311 19 OFFCURVE",
"269 7 OFFCURVE",
"224 7 CURVE SMOOTH",
"141 7 OFFCURVE",
"84 44 OFFCURVE",
"84 115 CURVE SMOOTH",
"84 145 LINE SMOOTH",
"84 212 OFFCURVE",
"133 257 OFFCURVE",
"252 257 CURVE SMOOTH",
"393 257 LINE",
"393 148 LINE SMOOTH"
);
}
);
width = 509;
}
);
leftKerningGroup = a;
rightKerningGroup = a;
unicode = 00E3;
},
{
glyphname = uni1EAF;
lastChange = "2018-11-02 02:05:43 +0000";
layers = (
{
layerId = "4CAE8106-A471-4E77-8FE8-6CA20233BBD2";
name = Light;
paths = (
{
closed = 1;
nodes = (
"214 594 OFFCURVE",
"190 603 OFFCURVE",
"170 622 CURVE SMOOTH",
"150 641 OFFCURVE",
"134 666 OFFCURVE",
"117 701 CURVE",
"133 708 LINE",
"149 681 LINE SMOOTH",
"165 653 OFFCURVE",
"179 636 OFFCURVE",
"195 626 CURVE SMOOTH",
"210 616 OFFCURVE",
"226 613 OFFCURVE",
"249 613 CURVE SMOOTH",
"270 613 OFFCURVE",
"288 616 OFFCURVE",
"304 626 CURVE SMOOTH",
"319 636 OFFCURVE",
"333 653 OFFCURVE",
"349 681 CURVE SMOOTH",
"365 708 LINE",
"381 701 LINE",
"364 666 OFFCURVE",
"348 640 OFFCURVE",
"328 622 CURVE SMOOTH",
"308 604 OFFCURVE",
"282 594 OFFCURVE",
"249 594 CURVE SMOOTH"
);
},
{
closed = 1;
nodes = (
"240 697 LINE",
"225 707 LINE",
"336 861 LINE",
"355 849 LINE"
);
},
{
closed = 1;
nodes = (
"154 518 OFFCURVE",
"106 477 OFFCURVE",
"78 412 CURVE",
"96 404 LINE",
"124 471 OFFCURVE",
"173 499 OFFCURVE",
"249 499 CURVE SMOOTH",
"344 499 OFFCURVE",
"393 453 OFFCURVE",
"393 349 CURVE SMOOTH",
"393 275 LINE",
"251 275 LINE SMOOTH",
"179 275 OFFCURVE",
"131 259 OFFCURVE",
"102 234 CURVE SMOOTH",
"73 209 OFFCURVE",
"61 171 OFFCURVE",
"61 130 CURVE SMOOTH",
"61 38 OFFCURVE",
"120 -12 OFFCURVE",
"224 -12 CURVE SMOOTH",
"317 -12 OFFCURVE",
"365 29 OFFCURVE",
"390 77 CURVE",
"393 77 LINE",
"393 0 LINE",
"414 0 LINE",
"414 352 LINE SMOOTH",
"414 460 OFFCURVE",
"360 518 OFFCURVE",
"249 518 CURVE SMOOTH"
);
},
{
closed = 1;
nodes = (
"393 101 OFFCURVE",
"373 66 OFFCURVE",
"342 43 CURVE SMOOTH",
"311 19 OFFCURVE",
"269 7 OFFCURVE",
"224 7 CURVE SMOOTH",
"141 7 OFFCURVE",
"84 44 OFFCURVE",
"84 115 CURVE SMOOTH",
"84 145 LINE SMOOTH",
"84 212 OFFCURVE",
"133 257 OFFCURVE",
"252 257 CURVE SMOOTH",
"393 257 LINE",
"393 148 LINE SMOOTH"
);
}
);
width = 509;
}
);
leftKerningGroup = a;
rightKerningGroup = a;
unicode = 1EAF;
},
{
glyphname = uni1EB7;
lastChange = "2018-11-02 02:05:44 +0000";
layers = (
{
layerId = "4CAE8106-A471-4E77-8FE8-6CA20233BBD2";
name = Light;
paths = (
{
closed = 1;
nodes = (
"215 606 OFFCURVE",
"192 617 OFFCURVE",
"172 637 CURVE SMOOTH",
"152 657 OFFCURVE",
"137 687 OFFCURVE",
"118 723 CURVE",
"134 730 LINE",
"149 703 LINE SMOOTH",
"166 671 OFFCURVE",
"181 652 OFFCURVE",
"197 641 CURVE",
"212 629 OFFCURVE",
"227 625 OFFCURVE",
"250 625 CURVE SMOOTH",
"271 625 OFFCURVE",
"288 629 OFFCURVE",
"304 641 CURVE SMOOTH",
"319 652 OFFCURVE",
"334 671 OFFCURVE",
"351 703 CURVE SMOOTH",
"366 730 LINE",
"382 723 LINE",
"363 687 OFFCURVE",
"348 657 OFFCURVE",
"328 637 CURVE SMOOTH",
"308 617 OFFCURVE",
"283 606 OFFCURVE",
"250 606 CURVE SMOOTH"
);
},
{
closed = 1;
nodes = (
"207 -134 OFFCURVE",
"201 -124 OFFCURVE",
"201 -113 CURVE SMOOTH",
"201 -106 LINE SMOOTH",
"201 -95 OFFCURVE",
"207 -85 OFFCURVE",
"224 -85 CURVE SMOOTH",
"241 -85 OFFCURVE",
"247 -95 OFFCURVE",
"247 -106 CURVE SMOOTH",
"247 -113 LINE SMOOTH",
"247 -124 OFFCURVE",
"241 -134 OFFCURVE",
"224 -134 CURVE SMOOTH"
);
},
{
closed = 1;
nodes = (
"154 518 OFFCURVE",
"106 477 OFFCURVE",
"78 412 CURVE",
"96 404 LINE",
"124 471 OFFCURVE",
"173 499 OFFCURVE",
"249 499 CURVE SMOOTH",
"344 499 OFFCURVE",
"393 453 OFFCURVE",
"393 349 CURVE SMOOTH",
"393 275 LINE",
"251 275 LINE SMOOTH",
"179 275 OFFCURVE",
"131 259 OFFCURVE",
"102 234 CURVE SMOOTH",
"73 209 OFFCURVE",
"61 171 OFFCURVE",
"61 130 CURVE SMOOTH",
"61 38 OFFCURVE",
"120 -12 OFFCURVE",
"224 -12 CURVE SMOOTH",
"317 -12 OFFCURVE",
"365 29 OFFCURVE",
"390 77 CURVE",
"393 77 LINE",
"393 0 LINE",
"414 0 LINE",
"414 352 LINE SMOOTH",
"414 460 OFFCURVE",
"360 518 OFFCURVE",
"249 518 CURVE SMOOTH"
);
},
{
closed = 1;
nodes = (
"393 101 OFFCURVE",
"373 66 OFFCURVE",
"342 43 CURVE SMOOTH",
"311 19 OFFCURVE",
"269 7 OFFCURVE",
"224 7 CURVE SMOOTH",
"141 7 OFFCURVE",
"84 44 OFFCURVE",
"84 115 CURVE SMOOTH",
"84 145 LINE SMOOTH",
"84 212 OFFCURVE",
"133 257 OFFCURVE",
"252 257 CURVE SMOOTH",
"393 257 LINE",
"393 148 LINE SMOOTH"
);
}
);
width = 509;
}
);
leftKerningGroup = a;
rightKerningGroup = a;
unicode = 1EB7;
},
{
glyphname = uni1EB1;
lastChange = "2018-11-02 02:05:45 +0000";
layers = (
{
layerId = "4CAE8106-A471-4E77-8FE8-6CA20233BBD2";
name = Light;
paths = (
{
closed = 1;
nodes = (
"214 594 OFFCURVE",
"190 603 OFFCURVE",
"170 622 CURVE SMOOTH",
"150 641 OFFCURVE",
"134 666 OFFCURVE",
"117 701 CURVE",
"133 708 LINE",
"149 681 LINE SMOOTH",
"165 653 OFFCURVE",
"179 636 OFFCURVE",
"195 626 CURVE SMOOTH",
"210 616 OFFCURVE",
"226 613 OFFCURVE",
"249 613 CURVE SMOOTH",
"270 613 OFFCURVE",
"288 616 OFFCURVE",
"304 626 CURVE SMOOTH",
"319 636 OFFCURVE",
"333 653 OFFCURVE",
"349 681 CURVE SMOOTH",
"365 708 LINE",
"381 701 LINE",
"364 666 OFFCURVE",
"348 640 OFFCURVE",
"328 622 CURVE SMOOTH",
"308 604 OFFCURVE",
"282 594 OFFCURVE",
"249 594 CURVE SMOOTH"
);
},
{
closed = 1;
nodes = (
"143 849 LINE",
"162 861 LINE",
"273 707 LINE",
"258 697 LINE"
);
},
{
closed = 1;
nodes = (
"154 518 OFFCURVE",
"106 477 OFFCURVE",
"78 412 CURVE",
"96 404 LINE",
"124 471 OFFCURVE",
"173 499 OFFCURVE",
"249 499 CURVE SMOOTH",
"344 499 OFFCURVE",
"393 453 OFFCURVE",
"393 349 CURVE SMOOTH",
"393 275 LINE",
"251 275 LINE SMOOTH",
"179 275 OFFCURVE",
"131 259 OFFCURVE",
"102 234 CURVE SMOOTH",
"73 209 OFFCURVE",
"61 171 OFFCURVE",
"61 130 CURVE SMOOTH",
"61 38 OFFCURVE",
"120 -12 OFFCURVE",
"224 -12 CURVE SMOOTH",
"317 -12 OFFCURVE",
"365 29 OFFCURVE",
"390 77 CURVE",
"393 77 LINE",
"393 0 LINE",
"414 0 LINE",
"414 352 LINE SMOOTH",
"414 460 OFFCURVE",
"360 518 OFFCURVE",
"249 518 CURVE SMOOTH"
);
},
{
closed = 1;
nodes = (
"393 101 OFFCURVE",
"373 66 OFFCURVE",
"342 43 CURVE SMOOTH",
"311 19 OFFCURVE",
"269 7 OFFCURVE",
"224 7 CURVE SMOOTH",
"141 7 OFFCURVE",
"84 44 OFFCURVE",
"84 115 CURVE SMOOTH",
"84 145 LINE SMOOTH",
"84 212 OFFCURVE",
"133 257 OFFCURVE",
"252 257 CURVE SMOOTH",
"393 257 LINE",
"393 148 LINE SMOOTH"
);
}
);
width = 509;
}
);
leftKerningGroup = a;
rightKerningGroup = a;
unicode = 1EB1;
},
{
glyphname = uni1EB3;
lastChange = "2018-11-02 02:05:45 +0000";
layers = (
{
layerId = "4CAE8106-A471-4E77-8FE8-6CA20233BBD2";
name = Light;
paths = (
{
closed = 1;
nodes = (
"214 594 OFFCURVE",
"190 603 OFFCURVE",
"170 622 CURVE SMOOTH",
"150 641 OFFCURVE",
"134 666 OFFCURVE",
"117 701 CURVE",
"133 708 LINE",
"149 681 LINE SMOOTH",
"165 653 OFFCURVE",
"179 636 OFFCURVE",
"195 626 CURVE SMOOTH",
"210 616 OFFCURVE",
"226 613 OFFCURVE",
"249 613 CURVE SMOOTH",
"270 613 OFFCURVE",
"288 616 OFFCURVE",
"304 626 CURVE SMOOTH",
"319 636 OFFCURVE",
"333 653 OFFCURVE",
"349 681 CURVE SMOOTH",
"365 708 LINE",
"381 701 LINE",
"364 666 OFFCURVE",
"348 640 OFFCURVE",
"328 622 CURVE SMOOTH",
"308 604 OFFCURVE",
"282 594 OFFCURVE",
"249 594 CURVE SMOOTH"
);
},
{
closed = 1;
nodes = (
"175 847 LINE",
"312 847 LINE SMOOTH",
"327 847 OFFCURVE",
"335 841 OFFCURVE",
"335 829 CURVE SMOOTH",
"335 825 OFFCURVE",
"333 819 OFFCURVE",
"330 812 CURVE",
"326 805 OFFCURVE",
"317 791 OFFCURVE",
"304 771 CURVE SMOOTH",
"255 695 LINE",
"239 703 LINE",
"316 829 LINE",
"175 829 LINE"
);
},
{
closed = 1;
nodes = (
"154 518 OFFCURVE",
"106 477 OFFCURVE",
"78 412 CURVE",
"96 404 LINE",
"124 471 OFFCURVE",
"173 499 OFFCURVE",
"249 499 CURVE SMOOTH",
"344 499 OFFCURVE",
"393 453 OFFCURVE",
"393 349 CURVE SMOOTH",
"393 275 LINE",
"251 275 LINE SMOOTH",
"179 275 OFFCURVE",
"131 259 OFFCURVE",
"102 234 CURVE SMOOTH",
"73 209 OFFCURVE",
"61 171 OFFCURVE",
"61 130 CURVE SMOOTH",
"61 38 OFFCURVE",
"120 -12 OFFCURVE",
"224 -12 CURVE SMOOTH",
"317 -12 OFFCURVE",
"365 29 OFFCURVE",
"390 77 CURVE",
"393 77 LINE",
"393 0 LINE",
"414 0 LINE",
"414 352 LINE SMOOTH",
"414 460 OFFCURVE",
"360 518 OFFCURVE",
"249 518 CURVE SMOOTH"
);
},
{
closed = 1;
nodes = (
"393 101 OFFCURVE",
"373 66 OFFCURVE",
"342 43 CURVE SMOOTH",
"311 19 OFFCURVE",
"269 7 OFFCURVE",
"224 7 CURVE SMOOTH",
"141 7 OFFCURVE",
"84 44 OFFCURVE",
"84 115 CURVE SMOOTH",
"84 145 LINE SMOOTH",
"84 212 OFFCURVE",
"133 257 OFFCURVE",
"252 257 CURVE SMOOTH",
"393 257 LINE",
"393 148 LINE SMOOTH"
);
}
);
width = 509;
}
);
leftKerningGroup = a;
rightKerningGroup = a;
unicode = 1EB3;
},
{
glyphname = uni1EB5;
lastChange = "2018-11-02 02:05:46 +0000";
layers = (
{
layerId = "4CAE8106-A471-4E77-8FE8-6CA20233BBD2";
name = Light;
paths = (
{
closed = 1;
nodes = (
"214 594 OFFCURVE",
"190 603 OFFCURVE",
"170 622 CURVE SMOOTH",
"150 641 OFFCURVE",
"134 666 OFFCURVE",
"117 701 CURVE",
"133 708 LINE",
"149 681 LINE SMOOTH",
"165 653 OFFCURVE",
"179 636 OFFCURVE",
"195 626 CURVE SMOOTH",
"210 616 OFFCURVE",
"226 613 OFFCURVE",
"249 613 CURVE SMOOTH",
"270 613 OFFCURVE",
"288 616 OFFCURVE",
"304 626 CURVE SMOOTH",
"319 636 OFFCURVE",
"333 653 OFFCURVE",
"349 681 CURVE SMOOTH",
"365 708 LINE",
"381 701 LINE",
"364 666 OFFCURVE",
"348 640 OFFCURVE",
"328 622 CURVE SMOOTH",
"308 604 OFFCURVE",
"282 594 OFFCURVE",
"249 594 CURVE SMOOTH"
);
},
{
closed = 1;
nodes = (
"297 763 OFFCURVE",
"278 770 OFFCURVE",
"243 793 CURVE SMOOTH",
"214 812 OFFCURVE",
"196 819 OFFCURVE",
"177 819 CURVE SMOOTH",
"154 819 OFFCURVE",
"133 808 OFFCURVE",
"112 786 CURVE",
"100 798 LINE",
"123 824 OFFCURVE",
"149 837 OFFCURVE",
"178 837 CURVE SMOOTH",
"201 837 OFFCURVE",
"220 830 OFFCURVE",
"255 807 CURVE SMOOTH",
"284 788 OFFCURVE",
"302 781 OFFCURVE",
"321 781 CURVE SMOOTH",
"345 781 OFFCURVE",
"365 791 OFFCURVE",
"386 814 CURVE",
"398 802 LINE",
"375 776 OFFCURVE",
"349 763 OFFCURVE",
"320 763 CURVE SMOOTH"
);
},
{
closed = 1;
nodes = (
"154 518 OFFCURVE",
"106 477 OFFCURVE",
"78 412 CURVE",
"96 404 LINE",
"124 471 OFFCURVE",
"173 499 OFFCURVE",
"249 499 CURVE SMOOTH",
"344 499 OFFCURVE",
"393 453 OFFCURVE",
"393 349 CURVE SMOOTH",
"393 275 LINE",
"251 275 LINE SMOOTH",
"179 275 OFFCURVE",
"131 259 OFFCURVE",
"102 234 CURVE SMOOTH",
"73 209 OFFCURVE",
"61 171 OFFCURVE",
"61 130 CURVE SMOOTH",
"61 38 OFFCURVE",
"120 -12 OFFCURVE",
"224 -12 CURVE SMOOTH",
"317 -12 OFFCURVE",
"365 29 OFFCURVE",
"390 77 CURVE",
"393 77 LINE",
"393 0 LINE",
"414 0 LINE",
"414 352 LINE SMOOTH",
"414 460 OFFCURVE",
"360 518 OFFCURVE",
"249 518 CURVE SMOOTH"
);
},
{
closed = 1;
nodes = (
"393 101 OFFCURVE",
"373 66 OFFCURVE",
"342 43 CURVE SMOOTH",
"311 19 OFFCURVE",
"269 7 OFFCURVE",
"224 7 CURVE SMOOTH",
"141 7 OFFCURVE",
"84 44 OFFCURVE",
"84 115 CURVE SMOOTH",
"84 145 LINE SMOOTH",
"84 212 OFFCURVE",
"133 257 OFFCURVE",
"252 257 CURVE SMOOTH",
"393 257 LINE",
"393 148 LINE SMOOTH"
);
}
);
width = 509;
}
);
leftKerningGroup = a;
rightKerningGroup = a;
unicode = 1EB5;
},
{
glyphname = uni1EA5;
lastChange = "2018-11-02 02:05:46 +0000";
layers = (
{
layerId = "4CAE8106-A471-4E77-8FE8-6CA20233BBD2";
name = Light;
paths = (
{
closed = 1;
nodes = (
"363 697 LINE",
"348 707 LINE",
"459 861 LINE",
"478 849 LINE"
);
},
{
closed = 1;
nodes = (
"261 735 LINE",
"389 602 LINE",
"375 591 LINE",
"249 718 LINE",
"123 591 LINE",
"109 602 LINE",
"237 735 LINE"
);
},
{
closed = 1;
nodes = (
"154 518 OFFCURVE",
"106 477 OFFCURVE",
"78 412 CURVE",
"96 404 LINE",
"124 471 OFFCURVE",
"173 499 OFFCURVE",
"249 499 CURVE SMOOTH",
"344 499 OFFCURVE",
"393 453 OFFCURVE",
"393 349 CURVE SMOOTH",
"393 275 LINE",
"251 275 LINE SMOOTH",
"179 275 OFFCURVE",
"131 259 OFFCURVE",
"102 234 CURVE SMOOTH",
"73 209 OFFCURVE",
"61 171 OFFCURVE",
"61 130 CURVE SMOOTH",
"61 38 OFFCURVE",
"120 -12 OFFCURVE",
"224 -12 CURVE SMOOTH",
"317 -12 OFFCURVE",
"365 29 OFFCURVE",
"390 77 CURVE",
"393 77 LINE",
"393 0 LINE",
"414 0 LINE",
"414 352 LINE SMOOTH",
"414 460 OFFCURVE",
"360 518 OFFCURVE",
"249 518 CURVE SMOOTH"
);
},
{
closed = 1;
nodes = (
"393 101 OFFCURVE",
"373 66 OFFCURVE",
"342 43 CURVE SMOOTH",
"311 19 OFFCURVE",
"269 7 OFFCURVE",
"224 7 CURVE SMOOTH",
"141 7 OFFCURVE",
"84 44 OFFCURVE",
"84 115 CURVE SMOOTH",
"84 145 LINE SMOOTH",
"84 212 OFFCURVE",
"133 257 OFFCURVE",
"252 257 CURVE SMOOTH",
"393 257 LINE",
"393 148 LINE SMOOTH"
);
}
);
width = 509;
}
);
leftKerningGroup = a;
rightKerningGroup = a;
unicode = 1EA5;
},
{
glyphname = uni1EAD;
lastChange = "2018-11-02 02:05:47 +0000";
layers = (
{
layerId = "4CAE8106-A471-4E77-8FE8-6CA20233BBD2";
name = Light;
paths = (
{
closed = 1;
nodes = (
"262 743 LINE",
"390 610 LINE",
"376 599 LINE",
"250 726 LINE",
"124 599 LINE",
"110 610 LINE",
"238 743 LINE"
);
},
{
closed = 1;
nodes = (
"207 -134 OFFCURVE",
"201 -124 OFFCURVE",
"201 -113 CURVE SMOOTH",
"201 -106 LINE SMOOTH",
"201 -95 OFFCURVE",
"207 -85 OFFCURVE",
"224 -85 CURVE SMOOTH",
"241 -85 OFFCURVE",
"247 -95 OFFCURVE",
"247 -106 CURVE SMOOTH",
"247 -113 LINE SMOOTH",
"247 -124 OFFCURVE",
"241 -134 OFFCURVE",
"224 -134 CURVE SMOOTH"
);
},
{
closed = 1;
nodes = (
"154 518 OFFCURVE",
"106 477 OFFCURVE",
"78 412 CURVE",
"96 404 LINE",
"124 471 OFFCURVE",
"173 499 OFFCURVE",
"249 499 CURVE SMOOTH",
"344 499 OFFCURVE",
"393 453 OFFCURVE",
"393 349 CURVE SMOOTH",
"393 275 LINE",
"251 275 LINE SMOOTH",
"179 275 OFFCURVE",
"131 259 OFFCURVE",
"102 234 CURVE SMOOTH",
"73 209 OFFCURVE",
"61 171 OFFCURVE",
"61 130 CURVE SMOOTH",
"61 38 OFFCURVE",
"120 -12 OFFCURVE",
"224 -12 CURVE SMOOTH",
"317 -12 OFFCURVE",
"365 29 OFFCURVE",
"390 77 CURVE",
"393 77 LINE",
"393 0 LINE",
"414 0 LINE",
"414 352 LINE SMOOTH",
"414 460 OFFCURVE",
"360 518 OFFCURVE",
"249 518 CURVE SMOOTH"
);
},
{
closed = 1;
nodes = (
"393 101 OFFCURVE",
"373 66 OFFCURVE",
"342 43 CURVE SMOOTH",
"311 19 OFFCURVE",
"269 7 OFFCURVE",
"224 7 CURVE SMOOTH",
"141 7 OFFCURVE",
"84 44 OFFCURVE",
"84 115 CURVE SMOOTH",
"84 145 LINE SMOOTH",
"84 212 OFFCURVE",
"133 257 OFFCURVE",
"252 257 CURVE SMOOTH",
"393 257 LINE",
"393 148 LINE SMOOTH"
);
}
);
width = 509;
}
);
leftKerningGroup = a;
rightKerningGroup = a;
unicode = 1EAD;
},
{
glyphname = uni1EA7;
lastChange = "2018-11-02 02:05:48 +0000";
layers = (
{
layerId = "4CAE8106-A471-4E77-8FE8-6CA20233BBD2";
name = Light;
paths = (
{
closed = 1;
nodes = (
"20 849 LINE",
"39 861 LINE",
"150 707 LINE",
"135 697 LINE"
);
},
{
closed = 1;
nodes = (
"261 735 LINE",
"389 602 LINE",
"375 591 LINE",
"249 718 LINE",
"123 591 LINE",
"109 602 LINE",
"237 735 LINE"
);
},
{
closed = 1;
nodes = (
"154 518 OFFCURVE",
"106 477 OFFCURVE",
"78 412 CURVE",
"96 404 LINE",
"124 471 OFFCURVE",
"173 499 OFFCURVE",
"249 499 CURVE SMOOTH",
"344 499 OFFCURVE",
"393 453 OFFCURVE",
"393 349 CURVE SMOOTH",
"393 275 LINE",
"251 275 LINE SMOOTH",
"179 275 OFFCURVE",
"131 259 OFFCURVE",
"102 234 CURVE SMOOTH",
"73 209 OFFCURVE",
"61 171 OFFCURVE",
"61 130 CURVE SMOOTH",
"61 38 OFFCURVE",
"120 -12 OFFCURVE",
"224 -12 CURVE SMOOTH",
"317 -12 OFFCURVE",
"365 29 OFFCURVE",
"390 77 CURVE",
"393 77 LINE",
"393 0 LINE",
"414 0 LINE",
"414 352 LINE SMOOTH",
"414 460 OFFCURVE",
"360 518 OFFCURVE",
"249 518 CURVE SMOOTH"
);
},
{
closed = 1;
nodes = (
"393 101 OFFCURVE",
"373 66 OFFCURVE",
"342 43 CURVE SMOOTH",
"311 19 OFFCURVE",
"269 7 OFFCURVE",
"224 7 CURVE SMOOTH",
"141 7 OFFCURVE",
"84 44 OFFCURVE",
"84 115 CURVE SMOOTH",
"84 145 LINE SMOOTH",
"84 212 OFFCURVE",
"133 257 OFFCURVE",
"252 257 CURVE SMOOTH",
"393 257 LINE",
"393 148 LINE SMOOTH"
);
}
);
width = 509;
}
);
leftKerningGroup = a;
rightKerningGroup = a;
unicode = 1EA7;
},
{
glyphname = uni1EA9;
lastChange = "2018-11-02 02:05:48 +0000";
layers = (
{
layerId = "4CAE8106-A471-4E77-8FE8-6CA20233BBD2";
name = Light;
paths = (
{
closed = 1;
nodes = (
"288 847 LINE",
"425 847 LINE SMOOTH",
"440 847 OFFCURVE",
"448 841 OFFCURVE",
"448 829 CURVE SMOOTH",
"448 825 OFFCURVE",
"446 819 OFFCURVE",
"443 812 CURVE",
"439 805 OFFCURVE",
"430 791 OFFCURVE",
"417 771 CURVE SMOOTH",
"368 695 LINE",
"352 703 LINE",
"429 829 LINE",
"288 829 LINE"
);
},
{
closed = 1;
nodes = (
"261 735 LINE",
"389 602 LINE",
"375 591 LINE",
"249 718 LINE",
"123 591 LINE",
"109 602 LINE",
"237 735 LINE"
);
},
{
closed = 1;
nodes = (
"154 518 OFFCURVE",
"106 477 OFFCURVE",
"78 412 CURVE",
"96 404 LINE",
"124 471 OFFCURVE",
"173 499 OFFCURVE",
"249 499 CURVE SMOOTH",
"344 499 OFFCURVE",
"393 453 OFFCURVE",
"393 349 CURVE SMOOTH",
"393 275 LINE",
"251 275 LINE SMOOTH",
"179 275 OFFCURVE",
"131 259 OFFCURVE",
"102 234 CURVE SMOOTH",
"73 209 OFFCURVE",
"61 171 OFFCURVE",
"61 130 CURVE SMOOTH",
"61 38 OFFCURVE",
"120 -12 OFFCURVE",
"224 -12 CURVE SMOOTH",
"317 -12 OFFCURVE",
"365 29 OFFCURVE",
"390 77 CURVE",
"393 77 LINE",
"393 0 LINE",
"414 0 LINE",
"414 352 LINE SMOOTH",
"414 460 OFFCURVE",
"360 518 OFFCURVE",
"249 518 CURVE SMOOTH"
);
},
{
closed = 1;
nodes = (
"393 101 OFFCURVE",
"373 66 OFFCURVE",
"342 43 CURVE SMOOTH",
"311 19 OFFCURVE",
"269 7 OFFCURVE",
"224 7 CURVE SMOOTH",
"141 7 OFFCURVE",
"84 44 OFFCURVE",
"84 115 CURVE SMOOTH",
"84 145 LINE SMOOTH",
"84 212 OFFCURVE",
"133 257 OFFCURVE",
"252 257 CURVE SMOOTH",
"393 257 LINE",
"393 148 LINE SMOOTH"
);
}
);
width = 509;
}
);
leftKerningGroup = a;
rightKerningGroup = a;
unicode = 1EA9;
},
{
glyphname = uni1EAB;
lastChange = "2018-11-02 02:05:49 +0000";
layers = (
{
layerId = "4CAE8106-A471-4E77-8FE8-6CA20233BBD2";
name = Light;
paths = (
{
closed = 1;
nodes = (
"201 847 OFFCURVE",
"220 840 OFFCURVE",
"255 817 CURVE SMOOTH",
"284 798 OFFCURVE",
"302 791 OFFCURVE",
"321 791 CURVE SMOOTH",
"345 791 OFFCURVE",
"365 801 OFFCURVE",
"386 824 CURVE",
"398 812 LINE",
"375 786 OFFCURVE",
"349 773 OFFCURVE",
"320 773 CURVE SMOOTH",
"297 773 OFFCURVE",
"278 780 OFFCURVE",
"243 803 CURVE SMOOTH",
"214 822 OFFCURVE",
"196 829 OFFCURVE",
"177 829 CURVE SMOOTH",
"154 829 OFFCURVE",
"133 818 OFFCURVE",
"112 796 CURVE",
"100 808 LINE",
"123 834 OFFCURVE",
"149 847 OFFCURVE",
"178 847 CURVE SMOOTH"
);
},
{
closed = 1;
nodes = (
"261 735 LINE",
"389 602 LINE",
"375 591 LINE",
"249 718 LINE",
"123 591 LINE",
"109 602 LINE",
"237 735 LINE"
);
},
{
closed = 1;
nodes = (
"154 518 OFFCURVE",
"106 477 OFFCURVE",
"78 412 CURVE",
"96 404 LINE",
"124 471 OFFCURVE",
"173 499 OFFCURVE",
"249 499 CURVE SMOOTH",
"344 499 OFFCURVE",
"393 453 OFFCURVE",
"393 349 CURVE SMOOTH",
"393 275 LINE",
"251 275 LINE SMOOTH",
"179 275 OFFCURVE",
"131 259 OFFCURVE",
"102 234 CURVE SMOOTH",
"73 209 OFFCURVE",
"61 171 OFFCURVE",
"61 130 CURVE SMOOTH",
"61 38 OFFCURVE",
"120 -12 OFFCURVE",
"224 -12 CURVE SMOOTH",
"317 -12 OFFCURVE",
"365 29 OFFCURVE",
"390 77 CURVE",
"393 77 LINE",
"393 0 LINE",
"414 0 LINE",
"414 352 LINE SMOOTH",
"414 460 OFFCURVE",
"360 518 OFFCURVE",
"249 518 CURVE SMOOTH"
);
},
{
closed = 1;
nodes = (
"393 101 OFFCURVE",
"373 66 OFFCURVE",
"342 43 CURVE SMOOTH",
"311 19 OFFCURVE",
"269 7 OFFCURVE",
"224 7 CURVE SMOOTH",
"141 7 OFFCURVE",
"84 44 OFFCURVE",
"84 115 CURVE SMOOTH",
"84 145 LINE SMOOTH",
"84 212 OFFCURVE",
"133 257 OFFCURVE",
"252 257 CURVE SMOOTH",
"393 257 LINE",
"393 148 LINE SMOOTH"
);
}
);
width = 509;
}
);
leftKerningGroup = a;
rightKerningGroup = a;
unicode = 1EAB;
},
{
glyphname = ae;
layers = (
{
layerId = "4CAE8106-A471-4E77-8FE8-6CA20233BBD2";
name = Light;
paths = (
{
closed = 1;
nodes = (
"247 257 LINE SMOOTH",
"128 257 OFFCURVE",
"79 212 OFFCURVE",
"79 145 CURVE SMOOTH",
"79 115 LINE SMOOTH",
"79 44 OFFCURVE",
"136 7 OFFCURVE",
"219 7 CURVE SMOOTH",
"264 7 OFFCURVE",
"306 19 OFFCURVE",
"337 43 CURVE SMOOTH",
"368 66 OFFCURVE",
"388 101 OFFCURVE",
"388 148 CURVE SMOOTH",
"388 257 LINE"
);
},
{
closed = 1;
nodes = (
"778 275 LINE",
"778 279 LINE SMOOTH",
"778 346 OFFCURVE",
"760 400 OFFCURVE",
"728 439 CURVE SMOOTH",
"696 478 OFFCURVE",
"651 499 OFFCURVE",
"596 499 CURVE SMOOTH",
"477 499 OFFCURVE",
"411 414 OFFCURVE",
"411 277 CURVE SMOOTH",
"411 275 LINE"
);
},
{
closed = 1;
nodes = (
"685 7 OFFCURVE",
"744 48 OFFCURVE",
"775 131 CURVE",
"793 124 LINE",
"762 40 OFFCURVE",
"697 -12 OFFCURVE",
"600 -12 CURVE SMOOTH",
"507 -12 OFFCURVE",
"439 33 OFFCURVE",
"408 121 CURVE",
"405 121 LINE",
"388 32 OFFCURVE",
"312 -12 OFFCURVE",
"219 -12 CURVE SMOOTH",
"115 -12 OFFCURVE",
"56 38 OFFCURVE",
"56 130 CURVE SMOOTH",
"56 171 OFFCURVE",
"68 209 OFFCURVE",
"97 234 CURVE SMOOTH",
"126 259 OFFCURVE",
"174 275 OFFCURVE",
"246 275 CURVE SMOOTH",
"388 275 LINE",
"388 349 LINE SMOOTH",
"388 453 OFFCURVE",
"339 498 OFFCURVE",
"244 499 CURVE SMOOTH",
"168 500 OFFCURVE",
"119 471 OFFCURVE",
"91 404 CURVE",
"73 412 LINE",
"86 444 OFFCURVE",
"106 471 OFFCURVE",
"134 490 CURVE SMOOTH",
"161 509 OFFCURVE",
"197 518 OFFCURVE",
"244 518 CURVE SMOOTH",
"343 517 OFFCURVE",
"397 470 OFFCURVE",
"405 382 CURVE",
"408 382 LINE",
"439 470 OFFCURVE",
"504 518 OFFCURVE",
"596 518 CURVE SMOOTH",
"657 518 OFFCURVE",
"708 494 OFFCURVE",
"744 450 CURVE SMOOTH",
"780 406 OFFCURVE",
"801 343 OFFCURVE",
"801 266 CURVE SMOOTH",
"801 256 LINE",
"411 256 LINE",
"411 229 LINE SMOOTH",
"411 92 OFFCURVE",
"479 7 OFFCURVE",
"600 7 CURVE SMOOTH"
);
}
);
width = 861;
}
);
leftKerningGroup = a;
rightKerningGroup = e;
unicode = 00E6;
},
{
glyphname = aeacute;
layers = (
{
layerId = "4CAE8106-A471-4E77-8FE8-6CA20233BBD2";
name = Light;
paths = (
{
closed = 1;
nodes = (
"247 257 LINE SMOOTH",
"128 257 OFFCURVE",
"79 212 OFFCURVE",
"79 145 CURVE SMOOTH",
"79 115 LINE SMOOTH",
"79 44 OFFCURVE",
"136 7 OFFCURVE",
"219 7 CURVE SMOOTH",
"264 7 OFFCURVE",
"306 19 OFFCURVE",
"337 43 CURVE SMOOTH",
"368 66 OFFCURVE",
"388 101 OFFCURVE",
"388 148 CURVE SMOOTH",
"388 257 LINE"
);
},
{
closed = 1;
nodes = (
"778 275 LINE",
"778 279 LINE SMOOTH",
"778 346 OFFCURVE",
"760 400 OFFCURVE",
"728 439 CURVE SMOOTH",
"696 478 OFFCURVE",
"651 499 OFFCURVE",
"596 499 CURVE SMOOTH",
"477 499 OFFCURVE",
"411 414 OFFCURVE",
"411 277 CURVE SMOOTH",
"411 275 LINE"
);
},
{
closed = 1;
nodes = (
"685 7 OFFCURVE",
"744 48 OFFCURVE",
"775 131 CURVE",
"793 124 LINE",
"762 40 OFFCURVE",
"697 -12 OFFCURVE",
"600 -12 CURVE SMOOTH",
"507 -12 OFFCURVE",
"439 33 OFFCURVE",
"408 121 CURVE",
"405 121 LINE",
"388 32 OFFCURVE",
"312 -12 OFFCURVE",
"219 -12 CURVE SMOOTH",
"115 -12 OFFCURVE",
"56 38 OFFCURVE",
"56 130 CURVE SMOOTH",
"56 171 OFFCURVE",
"68 209 OFFCURVE",
"97 234 CURVE SMOOTH",
"126 259 OFFCURVE",
"174 275 OFFCURVE",
"246 275 CURVE SMOOTH",
"388 275 LINE",
"388 349 LINE SMOOTH",
"388 453 OFFCURVE",
"339 498 OFFCURVE",
"244 499 CURVE SMOOTH",
"168 500 OFFCURVE",
"119 471 OFFCURVE",
"91 404 CURVE",
"73 412 LINE",
"86 444 OFFCURVE",
"106 471 OFFCURVE",
"134 490 CURVE SMOOTH",
"161 509 OFFCURVE",
"197 518 OFFCURVE",
"244 518 CURVE SMOOTH",
"343 517 OFFCURVE",
"397 470 OFFCURVE",
"405 382 CURVE",
"408 382 LINE",
"439 470 OFFCURVE",
"504 518 OFFCURVE",
"596 518 CURVE SMOOTH",
"657 518 OFFCURVE",
"708 494 OFFCURVE",
"744 450 CURVE SMOOTH",
"780 406 OFFCURVE",
"801 343 OFFCURVE",
"801 266 CURVE SMOOTH",
"801 256 LINE",
"411 256 LINE",
"411 229 LINE SMOOTH",
"411 92 OFFCURVE",
"479 7 OFFCURVE",
"600 7 CURVE SMOOTH"
);
},
{
closed = 1;
nodes = (
"410 587 LINE",
"395 597 LINE",
"506 751 LINE",
"525 739 LINE"
);
}
);
width = 861;
}
);
leftKerningGroup = a;
rightKerningGroup = e;
unicode = 01FD;
},
{
glyphname = cacute;
layers = (
{
layerId = "4CAE8106-A471-4E77-8FE8-6CA20233BBD2";
name = Light;
paths = (
{
closed = 1;
nodes = (
"137 -12 OFFCURVE",
"60 77 OFFCURVE",
"60 253 CURVE SMOOTH",
"60 429 OFFCURVE",
"137 518 OFFCURVE",
"270 518 CURVE SMOOTH",
"350 518 OFFCURVE",
"404 478 OFFCURVE",
"435 418 CURVE",
"417 409 LINE",
"385 468 OFFCURVE",
"342 499 OFFCURVE",
"270 499 CURVE SMOOTH",
"149 499 OFFCURVE",
"83 414 OFFCURVE",
"83 277 CURVE SMOOTH",
"83 229 LINE SMOOTH",
"83 92 OFFCURVE",
"149 7 OFFCURVE",
"270 7 CURVE SMOOTH",
"349 7 OFFCURVE",
"396 39 OFFCURVE",
"428 95 CURVE",
"444 84 LINE",
"411 27 OFFCURVE",
"358 -12 OFFCURVE",
"270 -12 CURVE SMOOTH"
);
},
{
closed = 1;
nodes = (
"253 587 LINE",
"238 597 LINE",
"349 751 LINE",
"368 739 LINE"
);
}
);
width = 487;
}
);
leftKerningGroup = c;
rightKerningGroup = c;
unicode = 0107;
},
{
glyphname = ccaron;
layers = (
{
layerId = "4CAE8106-A471-4E77-8FE8-6CA20233BBD2";
name = Light;
paths = (
{
closed = 1;
nodes = (
"137 -12 OFFCURVE",
"60 77 OFFCURVE",
"60 253 CURVE SMOOTH",
"60 429 OFFCURVE",
"137 518 OFFCURVE",
"270 518 CURVE SMOOTH",
"350 518 OFFCURVE",
"404 478 OFFCURVE",
"435 418 CURVE",
"417 409 LINE",
"385 468 OFFCURVE",
"342 499 OFFCURVE",
"270 499 CURVE SMOOTH",
"149 499 OFFCURVE",
"83 414 OFFCURVE",
"83 277 CURVE SMOOTH",
"83 229 LINE SMOOTH",
"83 92 OFFCURVE",
"149 7 OFFCURVE",
"270 7 CURVE SMOOTH",
"349 7 OFFCURVE",
"396 39 OFFCURVE",
"428 95 CURVE",
"444 84 LINE",
"411 27 OFFCURVE",
"358 -12 OFFCURVE",
"270 -12 CURVE SMOOTH"
);
},
{
closed = 1;
nodes = (
"259 603 LINE",
"131 736 LINE",
"145 747 LINE",
"271 620 LINE",
"397 747 LINE",
"411 736 LINE",
"283 603 LINE"
);
}
);
width = 487;
}
);
leftKerningGroup = c;
rightKerningGroup = c;
unicode = 010D;
},
{
glyphname = ccedilla;
layers = (
{
layerId = "4CAE8106-A471-4E77-8FE8-6CA20233BBD2";
name = Light;
paths = (
{
closed = 1;
nodes = (
"350 518 OFFCURVE",
"404 478 OFFCURVE",
"435 418 CURVE",
"417 409 LINE",
"385 468 OFFCURVE",
"342 499 OFFCURVE",
"270 499 CURVE SMOOTH",
"149 499 OFFCURVE",
"83 414 OFFCURVE",
"83 277 CURVE SMOOTH",
"83 229 LINE SMOOTH",
"83 92 OFFCURVE",
"149 7 OFFCURVE",
"270 7 CURVE SMOOTH",
"349 7 OFFCURVE",
"396 39 OFFCURVE",
"428 95 CURVE",
"444 84 LINE",
"412 28 OFFCURVE",
"362 -9 OFFCURVE",
"278 -12 CURVE",
"263 -73 LINE",
"265 -75 LINE",
"274 -72 OFFCURVE",
"286 -72 OFFCURVE",
"295 -72 CURVE SMOOTH",
"334 -72 OFFCURVE",
"362 -95 OFFCURVE",
"362 -131 CURVE SMOOTH",
"362 -170 OFFCURVE",
"331 -202 OFFCURVE",
"280 -202 CURVE SMOOTH",
"241 -202 OFFCURVE",
"211 -187 OFFCURVE",
"199 -170 CURVE",
"212 -157 LINE",
"227 -175 OFFCURVE",
"249 -184 OFFCURVE",
"280 -184 CURVE SMOOTH",
"316 -184 OFFCURVE",
"341 -167 OFFCURVE",
"341 -132 CURVE SMOOTH",
"341 -107 OFFCURVE",
"325 -89 OFFCURVE",
"280 -86 CURVE SMOOTH",
"243 -84 LINE",
"260 -12 LINE",
"133 -8 OFFCURVE",
"60 81 OFFCURVE",
"60 253 CURVE SMOOTH",
"60 429 OFFCURVE",
"137 518 OFFCURVE",
"270 518 CURVE SMOOTH"
);
}
);
width = 487;
}
);
leftKerningGroup = c;
rightKerningGroup = c;
unicode = 00E7;
},
{
glyphname = ccircumflex;
layers = (
{
layerId = "4CAE8106-A471-4E77-8FE8-6CA20233BBD2";
name = Light;
paths = (
{
closed = 1;
nodes = (
"137 -12 OFFCURVE",
"60 77 OFFCURVE",
"60 253 CURVE SMOOTH",
"60 429 OFFCURVE",
"137 518 OFFCURVE",
"270 518 CURVE SMOOTH",
"350 518 OFFCURVE",
"404 478 OFFCURVE",
"435 418 CURVE",
"417 409 LINE",
"385 468 OFFCURVE",
"342 499 OFFCURVE",
"270 499 CURVE SMOOTH",
"149 499 OFFCURVE",
"83 414 OFFCURVE",
"83 277 CURVE SMOOTH",
"83 229 LINE SMOOTH",
"83 92 OFFCURVE",
"149 7 OFFCURVE",
"270 7 CURVE SMOOTH",
"349 7 OFFCURVE",
"396 39 OFFCURVE",
"428 95 CURVE",
"444 84 LINE",
"411 27 OFFCURVE",
"358 -12 OFFCURVE",
"270 -12 CURVE SMOOTH"
);
},
{
closed = 1;
nodes = (
"283 743 LINE",
"411 610 LINE",
"397 599 LINE",
"271 726 LINE",
"145 599 LINE",
"131 610 LINE",
"259 743 LINE"
);
}
);
width = 487;
}
);
leftKerningGroup = c;
rightKerningGroup = c;
unicode = 0109;
},
{
glyphname = cdotaccent;
layers = (
{
layerId = "4CAE8106-A471-4E77-8FE8-6CA20233BBD2";
name = Light;
paths = (
{
closed = 1;
nodes = (
"137 -12 OFFCURVE",
"60 77 OFFCURVE",
"60 253 CURVE SMOOTH",
"60 429 OFFCURVE",
"137 518 OFFCURVE",
"270 518 CURVE SMOOTH",
"350 518 OFFCURVE",
"404 478 OFFCURVE",
"435 418 CURVE",
"417 409 LINE",
"385 468 OFFCURVE",
"342 499 OFFCURVE",
"270 499 CURVE SMOOTH",
"149 499 OFFCURVE",
"83 414 OFFCURVE",
"83 277 CURVE SMOOTH",
"83 229 LINE SMOOTH",
"83 92 OFFCURVE",
"149 7 OFFCURVE",
"270 7 CURVE SMOOTH",
"349 7 OFFCURVE",
"396 39 OFFCURVE",
"428 95 CURVE",
"444 84 LINE",
"411 27 OFFCURVE",
"358 -12 OFFCURVE",
"270 -12 CURVE SMOOTH"
);
},
{
closed = 1;
nodes = (
"254 642 OFFCURVE",
"248 652 OFFCURVE",
"248 663 CURVE SMOOTH",
"248 670 LINE SMOOTH",
"248 681 OFFCURVE",
"254 691 OFFCURVE",
"271 691 CURVE SMOOTH",
"288 691 OFFCURVE",
"294 681 OFFCURVE",
"294 670 CURVE SMOOTH",
"294 663 LINE SMOOTH",
"294 652 OFFCURVE",
"288 642 OFFCURVE",
"271 642 CURVE SMOOTH"
);
}
);
width = 487;
}
);
leftKerningGroup = c;
rightKerningGroup = c;
unicode = 010B;
},
{
glyphname = dcaron;
layers = (
{
layerId = "4CAE8106-A471-4E77-8FE8-6CA20233BBD2";
name = Light;
paths = (
{
closed = 1;
nodes = (
"439 78 LINE",
"436 78 LINE",
"425 55 OFFCURVE",
"407 33 OFFCURVE",
"380 17 CURVE SMOOTH",
"352 0 OFFCURVE",
"316 -12 OFFCURVE",
"272 -12 CURVE SMOOTH",
"139 -12 OFFCURVE",
"60 76 OFFCURVE",
"60 253 CURVE SMOOTH",
"60 430 OFFCURVE",
"139 518 OFFCURVE",
"272 518 CURVE SMOOTH",
"316 518 OFFCURVE",
"352 506 OFFCURVE",
"380 490 CURVE",
"407 473 OFFCURVE",
"425 449 OFFCURVE",
"436 428 CURVE",
"439 428 LINE",
"439 740 LINE",
"460 740 LINE",
"460 0 LINE",
"439 0 LINE"
);
},
{
closed = 1;
nodes = (
"316 7 OFFCURVE",
"357 21 OFFCURVE",
"389 45 CURVE SMOOTH",
"420 69 OFFCURVE",
"439 103 OFFCURVE",
"439 143 CURVE SMOOTH",
"439 363 LINE SMOOTH",
"439 403 OFFCURVE",
"420 437 OFFCURVE",
"389 461 CURVE SMOOTH",
"357 485 OFFCURVE",
"316 499 OFFCURVE",
"272 499 CURVE SMOOTH",
"151 499 OFFCURVE",
"83 414 OFFCURVE",
"83 277 CURVE SMOOTH",
"83 229 LINE SMOOTH",
"83 92 OFFCURVE",
"151 7 OFFCURVE",
"272 7 CURVE SMOOTH"
);
},
{
closed = 1;
nodes = (
"565 564 LINE",
"548 564 LINE",
"564 740 LINE",
"589 740 LINE"
);
}
);
width = 565;
}
);
leftKerningGroup = d;
rightKerningGroup = dcaron;
unicode = 010F;
},
{
glyphname = dcroat;
layers = (
{
layerId = "4CAE8106-A471-4E77-8FE8-6CA20233BBD2";
name = Light;
paths = (
{
closed = 1;
nodes = (
"439 78 LINE",
"436 78 LINE",
"425 55 OFFCURVE",
"407 33 OFFCURVE",
"380 17 CURVE SMOOTH",
"352 0 OFFCURVE",
"316 -12 OFFCURVE",
"272 -12 CURVE SMOOTH",
"139 -12 OFFCURVE",
"60 76 OFFCURVE",
"60 253 CURVE SMOOTH",
"60 430 OFFCURVE",
"139 518 OFFCURVE",
"272 518 CURVE SMOOTH",
"316 518 OFFCURVE",
"352 506 OFFCURVE",
"380 490 CURVE",
"407 473 OFFCURVE",
"425 449 OFFCURVE",
"436 428 CURVE",
"439 428 LINE",
"439 629 LINE",
"276 629 LINE",
"276 647 LINE",
"439 647 LINE",
"439 740 LINE",
"460 740 LINE",
"460 647 LINE",
"526 647 LINE",
"526 629 LINE",
"460 629 LINE",
"460 0 LINE",
"439 0 LINE"
);
},
{
closed = 1;
nodes = (
"316 7 OFFCURVE",
"357 21 OFFCURVE",
"389 45 CURVE SMOOTH",
"420 69 OFFCURVE",
"439 103 OFFCURVE",
"439 143 CURVE SMOOTH",
"439 363 LINE SMOOTH",
"439 403 OFFCURVE",
"420 437 OFFCURVE",
"389 461 CURVE SMOOTH",
"357 485 OFFCURVE",
"316 499 OFFCURVE",
"272 499 CURVE SMOOTH",
"151 499 OFFCURVE",
"83 414 OFFCURVE",
"83 277 CURVE SMOOTH",
"83 229 LINE SMOOTH",
"83 92 OFFCURVE",
"151 7 OFFCURVE",
"272 7 CURVE SMOOTH"
);
}
);
width = 568;
}
);
leftKerningGroup = d;
unicode = 0111;
},
{
glyphname = eth;
layers = (
{
layerId = "4CAE8106-A471-4E77-8FE8-6CA20233BBD2";
name = Light;
paths = (
{
closed = 1;
nodes = (
"404 738 LINE",
"296 660 LINE",
"344 615 OFFCURVE",
"390 555 OFFCURVE",
"424 485 CURVE SMOOTH",
"458 415 OFFCURVE",
"480 333 OFFCURVE",
"480 248 CURVE SMOOTH",
"480 165 OFFCURVE",
"459 100 OFFCURVE",
"422 56 CURVE SMOOTH",
"385 12 OFFCURVE",
"333 -12 OFFCURVE",
"270 -12 CURVE SMOOTH",
"207 -12 OFFCURVE",
"155 12 OFFCURVE",
"118 56 CURVE SMOOTH",
"81 100 OFFCURVE",
"60 165 OFFCURVE",
"60 248 CURVE SMOOTH",
"60 328 OFFCURVE",
"81 390 OFFCURVE",
"118 434 CURVE SMOOTH",
"155 477 OFFCURVE",
"207 500 OFFCURVE",
"270 500 CURVE SMOOTH",
"339 500 OFFCURVE",
"392 473 OFFCURVE",
"429 419 CURVE",
"432 421 LINE",
"397 517 OFFCURVE",
"342 590 OFFCURVE",
"282 650 CURVE",
"174 572 LINE",
"164 586 LINE",
"269 662 LINE",
"242 686 OFFCURVE",
"199 719 OFFCURVE",
"156 740 CURVE",
"192 740 LINE",
"223 721 OFFCURVE",
"250 701 OFFCURVE",
"283 672 CURVE",
"394 752 LINE"
);
},
{
closed = 1;
nodes = (
"325 7 OFFCURVE",
"372 27 OFFCURVE",
"405 64 CURVE SMOOTH",
"437 100 OFFCURVE",
"457 153 OFFCURVE",
"457 218 CURVE SMOOTH",
"457 270 LINE SMOOTH",
"457 335 OFFCURVE",
"437 388 OFFCURVE",
"405 425 CURVE SMOOTH",
"372 461 OFFCURVE",
"325 481 OFFCURVE",
"270 481 CURVE SMOOTH",
"215 481 OFFCURVE",
"168 461 OFFCURVE",
"136 425 CURVE SMOOTH",
"103 388 OFFCURVE",
"83 335 OFFCURVE",
"83 270 CURVE SMOOTH",
"83 218 LINE SMOOTH",
"83 153 OFFCURVE",
"103 100 OFFCURVE",
"136 64 CURVE SMOOTH",
"168 27 OFFCURVE",
"215 7 OFFCURVE",
"270 7 CURVE SMOOTH"
);
}
);
width = 544;
}
);
leftKerningGroup = d;
rightKerningGroup = o;
unicode = 00F0;
},
{
glyphname = eacute;
layers = (
{
layerId = "4CAE8106-A471-4E77-8FE8-6CA20233BBD2";
name = Light;
paths = (
{
closed = 1;
nodes = (
"139 -12 OFFCURVE",
"60 77 OFFCURVE",
"60 253 CURVE SMOOTH",
"60 428 OFFCURVE",
"137 518 OFFCURVE",
"268 518 CURVE SMOOTH",
"329 518 OFFCURVE",
"380 494 OFFCURVE",
"416 450 CURVE SMOOTH",
"452 406 OFFCURVE",
"473 343 OFFCURVE",
"473 266 CURVE SMOOTH",
"473 256 LINE",
"83 256 LINE",
"83 229 LINE SMOOTH",
"83 92 OFFCURVE",
"151 7 OFFCURVE",
"272 7 CURVE SMOOTH",
"357 7 OFFCURVE",
"416 48 OFFCURVE",
"447 131 CURVE",
"465 124 LINE",
"434 40 OFFCURVE",
"369 -12 OFFCURVE",
"272 -12 CURVE SMOOTH"
);
},
{
closed = 1;
nodes = (
"149 499 OFFCURVE",
"83 414 OFFCURVE",
"83 277 CURVE SMOOTH",
"83 275 LINE",
"450 275 LINE",
"450 279 LINE SMOOTH",
"450 346 OFFCURVE",
"432 400 OFFCURVE",
"400 439 CURVE SMOOTH",
"368 478 OFFCURVE",
"323 499 OFFCURVE",
"268 499 CURVE SMOOTH"
);
},
{
closed = 1;
nodes = (
"251 587 LINE",
"236 597 LINE",
"347 751 LINE",
"366 739 LINE"
);
}
);
width = 533;
}
);
leftKerningGroup = c;
rightKerningGroup = e;
unicode = 00E9;
},
{
glyphname = ebreve;
layers = (
{
layerId = "4CAE8106-A471-4E77-8FE8-6CA20233BBD2";
name = Light;
paths = (
{
closed = 1;
nodes = (
"139 -12 OFFCURVE",
"60 77 OFFCURVE",
"60 253 CURVE SMOOTH",
"60 428 OFFCURVE",
"137 518 OFFCURVE",
"268 518 CURVE SMOOTH",
"329 518 OFFCURVE",
"380 494 OFFCURVE",
"416 450 CURVE SMOOTH",
"452 406 OFFCURVE",
"473 343 OFFCURVE",
"473 266 CURVE SMOOTH",
"473 256 LINE",
"83 256 LINE",
"83 229 LINE SMOOTH",
"83 92 OFFCURVE",
"151 7 OFFCURVE",
"272 7 CURVE SMOOTH",
"357 7 OFFCURVE",
"416 48 OFFCURVE",
"447 131 CURVE",
"465 124 LINE",
"434 40 OFFCURVE",
"369 -12 OFFCURVE",
"272 -12 CURVE SMOOTH"
);
},
{
closed = 1;
nodes = (
"149 499 OFFCURVE",
"83 414 OFFCURVE",
"83 277 CURVE SMOOTH",
"83 275 LINE",
"450 275 LINE",
"450 279 LINE SMOOTH",
"450 346 OFFCURVE",
"432 400 OFFCURVE",
"400 439 CURVE SMOOTH",
"368 478 OFFCURVE",
"323 499 OFFCURVE",
"268 499 CURVE SMOOTH"
);
},
{
closed = 1;
nodes = (
"234 606 OFFCURVE",
"211 617 OFFCURVE",
"191 637 CURVE SMOOTH",
"171 657 OFFCURVE",
"156 687 OFFCURVE",
"137 723 CURVE",
"153 730 LINE",
"168 703 LINE SMOOTH",
"185 671 OFFCURVE",
"200 652 OFFCURVE",
"216 641 CURVE",
"231 629 OFFCURVE",
"246 625 OFFCURVE",
"269 625 CURVE SMOOTH",
"290 625 OFFCURVE",
"307 629 OFFCURVE",
"323 641 CURVE SMOOTH",
"338 652 OFFCURVE",
"353 671 OFFCURVE",
"370 703 CURVE SMOOTH",
"385 730 LINE",
"401 723 LINE",
"382 687 OFFCURVE",
"367 657 OFFCURVE",
"347 637 CURVE SMOOTH",
"327 617 OFFCURVE",
"302 606 OFFCURVE",
"269 606 CURVE SMOOTH"
);
}
);
width = 533;
}
);
leftKerningGroup = c;
rightKerningGroup = e;
unicode = 0115;
},
{
glyphname = ecaron;
layers = (
{
layerId = "4CAE8106-A471-4E77-8FE8-6CA20233BBD2";
name = Light;
paths = (
{
closed = 1;
nodes = (
"139 -12 OFFCURVE",
"60 77 OFFCURVE",
"60 253 CURVE SMOOTH",
"60 428 OFFCURVE",
"137 518 OFFCURVE",
"268 518 CURVE SMOOTH",
"329 518 OFFCURVE",
"380 494 OFFCURVE",
"416 450 CURVE SMOOTH",
"452 406 OFFCURVE",
"473 343 OFFCURVE",
"473 266 CURVE SMOOTH",
"473 256 LINE",
"83 256 LINE",
"83 229 LINE SMOOTH",
"83 92 OFFCURVE",
"151 7 OFFCURVE",
"272 7 CURVE SMOOTH",
"357 7 OFFCURVE",
"416 48 OFFCURVE",
"447 131 CURVE",
"465 124 LINE",
"434 40 OFFCURVE",
"369 -12 OFFCURVE",
"272 -12 CURVE SMOOTH"
);
},
{
closed = 1;
nodes = (
"149 499 OFFCURVE",
"83 414 OFFCURVE",
"83 277 CURVE SMOOTH",
"83 275 LINE",
"450 275 LINE",
"450 279 LINE SMOOTH",
"450 346 OFFCURVE",
"432 400 OFFCURVE",
"400 439 CURVE SMOOTH",
"368 478 OFFCURVE",
"323 499 OFFCURVE",
"268 499 CURVE SMOOTH"
);
},
{
closed = 1;
nodes = (
"257 603 LINE",
"129 736 LINE",
"143 747 LINE",
"269 620 LINE",
"395 747 LINE",
"409 736 LINE",
"281 603 LINE"
);
}
);
width = 533;
}
);
leftKerningGroup = c;
rightKerningGroup = e;
unicode = 011B;
},
{
glyphname = ecircumflex;
layers = (
{
layerId = "4CAE8106-A471-4E77-8FE8-6CA20233BBD2";
name = Light;
paths = (
{
closed = 1;
nodes = (
"139 -12 OFFCURVE",
"60 77 OFFCURVE",
"60 253 CURVE SMOOTH",
"60 428 OFFCURVE",
"137 518 OFFCURVE",
"268 518 CURVE SMOOTH",
"329 518 OFFCURVE",
"380 494 OFFCURVE",
"416 450 CURVE SMOOTH",
"452 406 OFFCURVE",
"473 343 OFFCURVE",
"473 266 CURVE SMOOTH",
"473 256 LINE",
"83 256 LINE",
"83 229 LINE SMOOTH",
"83 92 OFFCURVE",
"151 7 OFFCURVE",
"272 7 CURVE SMOOTH",
"357 7 OFFCURVE",
"416 48 OFFCURVE",
"447 131 CURVE",
"465 124 LINE",
"434 40 OFFCURVE",
"369 -12 OFFCURVE",
"272 -12 CURVE SMOOTH"
);
},
{
closed = 1;
nodes = (
"149 499 OFFCURVE",
"83 414 OFFCURVE",
"83 277 CURVE SMOOTH",
"83 275 LINE",
"450 275 LINE",
"450 279 LINE SMOOTH",
"450 346 OFFCURVE",
"432 400 OFFCURVE",
"400 439 CURVE SMOOTH",
"368 478 OFFCURVE",
"323 499 OFFCURVE",
"268 499 CURVE SMOOTH"
);
},
{
closed = 1;
nodes = (
"281 743 LINE",
"409 610 LINE",
"395 599 LINE",
"269 726 LINE",
"143 599 LINE",
"129 610 LINE",
"257 743 LINE"
);
}
);
width = 533;
}
);
leftKerningGroup = c;
rightKerningGroup = e;
unicode = 00EA;
},
{
glyphname = edieresis;
layers = (
{
layerId = "4CAE8106-A471-4E77-8FE8-6CA20233BBD2";
name = Light;
paths = (
{
closed = 1;
nodes = (
"139 -12 OFFCURVE",
"60 77 OFFCURVE",
"60 253 CURVE SMOOTH",
"60 428 OFFCURVE",
"137 518 OFFCURVE",
"268 518 CURVE SMOOTH",
"329 518 OFFCURVE",
"380 494 OFFCURVE",
"416 450 CURVE SMOOTH",
"452 406 OFFCURVE",
"473 343 OFFCURVE",
"473 266 CURVE SMOOTH",
"473 256 LINE",
"83 256 LINE",
"83 229 LINE SMOOTH",
"83 92 OFFCURVE",
"151 7 OFFCURVE",
"272 7 CURVE SMOOTH",
"357 7 OFFCURVE",
"416 48 OFFCURVE",
"447 131 CURVE",
"465 124 LINE",
"434 40 OFFCURVE",
"369 -12 OFFCURVE",
"272 -12 CURVE SMOOTH"
);
},
{
closed = 1;
nodes = (
"149 499 OFFCURVE",
"83 414 OFFCURVE",
"83 277 CURVE SMOOTH",
"83 275 LINE",
"450 275 LINE",
"450 279 LINE SMOOTH",
"450 346 OFFCURVE",
"432 400 OFFCURVE",
"400 439 CURVE SMOOTH",
"368 478 OFFCURVE",
"323 499 OFFCURVE",
"268 499 CURVE SMOOTH"
);
},
{
closed = 1;
nodes = (
"161 642 OFFCURVE",
"155 652 OFFCURVE",
"155 663 CURVE SMOOTH",
"155 670 LINE SMOOTH",
"155 681 OFFCURVE",
"161 691 OFFCURVE",
"178 691 CURVE SMOOTH",
"195 691 OFFCURVE",
"201 681 OFFCURVE",
"201 670 CURVE SMOOTH",
"201 663 LINE SMOOTH",
"201 652 OFFCURVE",
"195 642 OFFCURVE",
"178 642 CURVE SMOOTH"
);
},
{
closed = 1;
nodes = (
"343 642 OFFCURVE",
"337 652 OFFCURVE",
"337 663 CURVE SMOOTH",
"337 670 LINE SMOOTH",
"337 681 OFFCURVE",
"343 691 OFFCURVE",
"360 691 CURVE SMOOTH",
"377 691 OFFCURVE",
"383 681 OFFCURVE",
"383 670 CURVE SMOOTH",
"383 663 LINE SMOOTH",
"383 652 OFFCURVE",
"377 642 OFFCURVE",
"360 642 CURVE SMOOTH"
);
}
);
width = 533;
}
);
leftKerningGroup = c;
rightKerningGroup = e;
unicode = 00EB;
},
{
glyphname = edotaccent;
layers = (
{
layerId = "4CAE8106-A471-4E77-8FE8-6CA20233BBD2";
name = Light;
paths = (
{
closed = 1;
nodes = (
"139 -12 OFFCURVE",
"60 77 OFFCURVE",
"60 253 CURVE SMOOTH",
"60 428 OFFCURVE",
"137 518 OFFCURVE",
"268 518 CURVE SMOOTH",
"329 518 OFFCURVE",
"380 494 OFFCURVE",
"416 450 CURVE SMOOTH",
"452 406 OFFCURVE",
"473 343 OFFCURVE",
"473 266 CURVE SMOOTH",
"473 256 LINE",
"83 256 LINE",
"83 229 LINE SMOOTH",
"83 92 OFFCURVE",
"151 7 OFFCURVE",
"272 7 CURVE SMOOTH",
"357 7 OFFCURVE",
"416 48 OFFCURVE",
"447 131 CURVE",
"465 124 LINE",
"434 40 OFFCURVE",
"369 -12 OFFCURVE",
"272 -12 CURVE SMOOTH"
);
},
{
closed = 1;
nodes = (
"149 499 OFFCURVE",
"83 414 OFFCURVE",
"83 277 CURVE SMOOTH",
"83 275 LINE",
"450 275 LINE",
"450 279 LINE SMOOTH",
"450 346 OFFCURVE",
"432 400 OFFCURVE",
"400 439 CURVE SMOOTH",
"368 478 OFFCURVE",
"323 499 OFFCURVE",
"268 499 CURVE SMOOTH"
);
},
{
closed = 1;
nodes = (
"252 642 OFFCURVE",
"246 652 OFFCURVE",
"246 663 CURVE SMOOTH",
"246 670 LINE SMOOTH",
"246 681 OFFCURVE",
"252 691 OFFCURVE",
"269 691 CURVE SMOOTH",
"286 691 OFFCURVE",
"292 681 OFFCURVE",
"292 670 CURVE SMOOTH",
"292 663 LINE SMOOTH",
"292 652 OFFCURVE",
"286 642 OFFCURVE",
"269 642 CURVE SMOOTH"
);
}
);
width = 533;
}
);
leftKerningGroup = c;
rightKerningGroup = e;
unicode = 0117;
},
{
glyphname = uni1EB9;
layers = (
{
layerId = "4CAE8106-A471-4E77-8FE8-6CA20233BBD2";
name = Light;
paths = (
{
closed = 1;
nodes = (
"139 -12 OFFCURVE",
"60 77 OFFCURVE",
"60 253 CURVE SMOOTH",
"60 428 OFFCURVE",
"137 518 OFFCURVE",
"268 518 CURVE SMOOTH",
"329 518 OFFCURVE",
"380 494 OFFCURVE",
"416 450 CURVE SMOOTH",
"452 406 OFFCURVE",
"473 343 OFFCURVE",
"473 266 CURVE SMOOTH",
"473 256 LINE",
"83 256 LINE",
"83 229 LINE SMOOTH",
"83 92 OFFCURVE",
"151 7 OFFCURVE",
"272 7 CURVE SMOOTH",
"357 7 OFFCURVE",
"416 48 OFFCURVE",
"447 131 CURVE",
"465 124 LINE",
"434 40 OFFCURVE",
"369 -12 OFFCURVE",
"272 -12 CURVE SMOOTH"
);
},
{
closed = 1;
nodes = (
"149 499 OFFCURVE",
"83 414 OFFCURVE",
"83 277 CURVE SMOOTH",
"83 275 LINE",
"450 275 LINE",
"450 279 LINE SMOOTH",
"450 346 OFFCURVE",
"432 400 OFFCURVE",
"400 439 CURVE SMOOTH",
"368 478 OFFCURVE",
"323 499 OFFCURVE",
"268 499 CURVE SMOOTH"
);
},
{
closed = 1;
nodes = (
"255 -134 OFFCURVE",
"249 -124 OFFCURVE",
"249 -113 CURVE SMOOTH",
"249 -106 LINE SMOOTH",
"249 -95 OFFCURVE",
"255 -85 OFFCURVE",
"272 -85 CURVE SMOOTH",
"289 -85 OFFCURVE",
"295 -95 OFFCURVE",
"295 -106 CURVE SMOOTH",
"295 -113 LINE SMOOTH",
"295 -124 OFFCURVE",
"289 -134 OFFCURVE",
"272 -134 CURVE SMOOTH"
);
}
);
width = 533;
}
);
leftKerningGroup = c;
rightKerningGroup = e;
unicode = 1EB9;
},
{
glyphname = egrave;
layers = (
{
layerId = "4CAE8106-A471-4E77-8FE8-6CA20233BBD2";
name = Light;
paths = (
{
closed = 1;
nodes = (
"139 -12 OFFCURVE",
"60 77 OFFCURVE",
"60 253 CURVE SMOOTH",
"60 428 OFFCURVE",
"137 518 OFFCURVE",
"268 518 CURVE SMOOTH",
"329 518 OFFCURVE",
"380 494 OFFCURVE",
"416 450 CURVE SMOOTH",
"452 406 OFFCURVE",
"473 343 OFFCURVE",
"473 266 CURVE SMOOTH",
"473 256 LINE",
"83 256 LINE",
"83 229 LINE SMOOTH",
"83 92 OFFCURVE",
"151 7 OFFCURVE",
"272 7 CURVE SMOOTH",
"357 7 OFFCURVE",
"416 48 OFFCURVE",
"447 131 CURVE",
"465 124 LINE",
"434 40 OFFCURVE",
"369 -12 OFFCURVE",
"272 -12 CURVE SMOOTH"
);
},
{
closed = 1;
nodes = (
"149 499 OFFCURVE",
"83 414 OFFCURVE",
"83 277 CURVE SMOOTH",
"83 275 LINE",
"450 275 LINE",
"450 279 LINE SMOOTH",
"450 346 OFFCURVE",
"432 400 OFFCURVE",
"400 439 CURVE SMOOTH",
"368 478 OFFCURVE",
"323 499 OFFCURVE",
"268 499 CURVE SMOOTH"
);
},
{
closed = 1;
nodes = (
"171 739 LINE",
"190 751 LINE",
"301 597 LINE",
"286 587 LINE"
);
}
);
width = 533;
}
);
leftKerningGroup = c;
rightKerningGroup = e;
unicode = 00E8;
},
{
glyphname = uni1EBB;
layers = (
{
layerId = "4CAE8106-A471-4E77-8FE8-6CA20233BBD2";
name = Light;
paths = (
{
closed = 1;
nodes = (
"139 -12 OFFCURVE",
"60 77 OFFCURVE",
"60 253 CURVE SMOOTH",
"60 428 OFFCURVE",
"137 518 OFFCURVE",
"268 518 CURVE SMOOTH",
"329 518 OFFCURVE",
"380 494 OFFCURVE",
"416 450 CURVE SMOOTH",
"452 406 OFFCURVE",
"473 343 OFFCURVE",
"473 266 CURVE SMOOTH",
"473 256 LINE",
"83 256 LINE",
"83 229 LINE SMOOTH",
"83 92 OFFCURVE",
"151 7 OFFCURVE",
"272 7 CURVE SMOOTH",
"357 7 OFFCURVE",
"416 48 OFFCURVE",
"447 131 CURVE",
"465 124 LINE",
"434 40 OFFCURVE",
"369 -12 OFFCURVE",
"272 -12 CURVE SMOOTH"
);
},
{
closed = 1;
nodes = (
"149 499 OFFCURVE",
"83 414 OFFCURVE",
"83 277 CURVE SMOOTH",
"83 275 LINE",
"450 275 LINE",
"450 279 LINE SMOOTH",
"450 346 OFFCURVE",
"432 400 OFFCURVE",
"400 439 CURVE SMOOTH",
"368 478 OFFCURVE",
"323 499 OFFCURVE",
"268 499 CURVE SMOOTH"
);
},
{
closed = 1;
nodes = (
"194 737 LINE",
"331 737 LINE SMOOTH",
"346 737 OFFCURVE",
"354 731 OFFCURVE",
"354 719 CURVE SMOOTH",
"354 715 OFFCURVE",
"352 709 OFFCURVE",
"349 702 CURVE",
"345 695 OFFCURVE",
"336 681 OFFCURVE",
"323 661 CURVE SMOOTH",
"274 585 LINE",
"258 593 LINE",
"335 719 LINE",
"194 719 LINE"
);
}
);
width = 533;
}
);
leftKerningGroup = c;
rightKerningGroup = e;
unicode = 1EBB;
},
